<svg width="53" height="24" viewBox="0 0 53 24" fill="none" xmlns="http://www.w3.org/2000/svg">
<path fill-rule="evenodd" clip-rule="evenodd" d="M44.0964 20.039C44.7306 20.039 45.241 20.2261 45.62 20.6093C46.0013 20.9836 46.2104 21.4969 46.1982 22.0286C46.2027 22.543 45.9937 23.0367 45.62 23.3938C45.2423 23.7809 44.7306 23.9822 44.0964 23.9822C43.4622 23.9822 42.9244 23.7861 42.5546 23.3938C41.8024 22.6172 41.8111 21.3883 42.5741 20.6222C42.9775 20.2263 43.5291 20.0149 44.0964 20.039Z" fill="white"/>
<path fill-rule="evenodd" clip-rule="evenodd" d="M17.0436 2.67742C16.5032 2.67742 16.1256 2.86452 15.899 3.23871C15.6577 3.61725 15.5291 4.05553 15.5279 4.50323H18.4057C18.4047 4.26097 18.3829 4.01925 18.3406 3.78065C18.3026 3.57609 18.229 3.37962 18.1232 3.2C18.0218 3.03944 17.8818 2.90641 17.7156 2.8129C17.5066 2.71233 17.2758 2.66404 17.0436 2.67226V2.67742ZM17.015 0C18.0568 0 18.898 0.15871 19.5517 0.477419C20.1557 0.74801 20.6823 1.16302 21.0844 1.68516C21.4651 2.17926 21.727 2.75298 21.8501 3.36258C21.9885 3.97417 22.0584 4.59903 22.0584 5.22581V6.10323H15.4627C15.4627 6.87097 15.6425 7.42323 16.011 7.74194C16.3795 8.06065 16.9863 8.21935 17.8184 8.21935C18.359 8.22085 18.8983 8.16768 19.428 8.06065C19.9788 7.95832 20.5202 7.81116 21.0466 7.62065L21.828 9.98065C21.0737 10.3768 20.2632 10.6574 19.4241 10.8129C18.6414 10.9637 17.8462 11.0424 17.0488 11.0477C15.8938 11.0477 14.9471 10.8968 14.2191 10.5884C12.9148 10.0747 11.9488 8.9583 11.6355 7.60258C11.4747 6.93745 11.3951 6.25557 11.3985 5.57161C11.3992 4.89386 11.4947 4.21947 11.6824 3.56774C11.8638 2.91467 12.1795 2.30581 12.6096 1.77935C13.0808 1.22674 13.6732 0.78806 14.3415 0.496774C15.0604 0.169032 15.9602 0.00129032 17.0189 0.00129032L17.015 0Z" fill="white"/>
<path fill-rule="evenodd" clip-rule="evenodd" d="M32.0646 4.95313L33.3669 2.55571L34.643 0.310547H39.0705V8.18151H40.3298V10.5402C39.5172 10.89 38.6412 11.0718 37.7553 11.0744C37.3137 11.0857 36.8733 11.0225 36.4531 10.8873C36.1423 10.7873 35.8644 10.6064 35.6483 10.3635C35.4517 10.128 35.3174 9.84775 35.2577 9.54797C35.178 9.20442 35.14 8.85269 35.1444 8.50022V5.61764H35.0402L34.2159 7.15313L33.0517 9.23055H30.9825L29.9225 7.43313L28.843 5.50539H28.7388V10.8409H24.754V2.77248H23.4961V0.310547H29.2597L30.6413 2.66022L31.9435 4.95442L32.0646 4.95313Z" fill="white"/>
<path fill-rule="evenodd" clip-rule="evenodd" d="M46.128 4.07313H48.8054C49.2939 4.07674 49.7802 4.13958 50.2534 4.26022C50.7314 4.3723 51.1861 4.5657 51.5973 4.83184C51.996 5.09678 52.3269 5.45023 52.5635 5.8641C52.8149 6.34131 52.9386 6.8744 52.9229 7.41248C52.9327 7.90827 52.8359 8.40044 52.6391 8.85635C52.4579 9.26907 52.1824 9.6344 51.8343 9.92345C51.4759 10.2304 51.0567 10.4598 50.6037 10.597C50.0998 10.7627 49.5719 10.8451 49.0411 10.8409H42.0625V0.310547H46.128V4.07313ZM46.128 6.23313V8.46151H47.6425C48.0583 8.46151 48.3704 8.35872 48.5788 8.15313C48.7898 7.93847 48.9028 7.64744 48.8913 7.34797C48.911 7.03623 48.7853 6.73276 48.5501 6.52474C48.3131 6.32861 47.9928 6.23442 47.5761 6.23442L46.128 6.23313Z" fill="white"/>
<path fill-rule="evenodd" clip-rule="evenodd" d="M7.97605 0.151741C8.57924 0.235254 9.17222 0.379661 9.74576 0.582709V4.11948H7.11789V2.87819C6.30401 2.65368 5.14895 2.86916 4.62937 3.59948C4.45651 3.85409 4.33736 4.14069 4.27907 4.44206C4.20151 4.78595 4.16351 5.13744 4.16578 5.48981C4.15698 5.94039 4.21222 6.38996 4.32986 6.82529C4.41593 7.13272 4.57334 7.41596 4.78954 7.65239C4.97979 7.85138 5.21761 7.9996 5.48102 8.08335C6.4733 8.40206 8.76519 7.96206 9.74836 7.65239V10.4008C8.63106 10.7879 6.83401 11.0459 5.66072 11.0459C4.52519 11.0459 3.5876 10.9053 2.85966 10.615C2.19454 10.3615 1.60057 9.95354 1.12772 9.42529C0.699923 8.92335 0.401425 8.32604 0.257846 7.68464C0.0933475 7.0086 0.0107259 6.31554 0.0117278 5.62013C0.0159944 4.95439 0.0985915 4.29142 0.257846 3.64464C0.406861 2.98528 0.704215 2.36778 1.12772 1.83819C1.59945 1.26697 2.20282 0.816471 2.88701 0.524644C4.27907 -0.111485 6.4733 -0.0740654 7.97866 0.150451L7.97605 0.151741Z" fill="white"/>
<path fill-rule="evenodd" clip-rule="evenodd" d="M5.27916 15.7091V23.7323H1.25924V15.7091H0V13.2188H11.923V21.0717H13.418V23.4304C13.2005 23.5155 12.9726 23.5904 12.7278 23.6652C12.4791 23.7383 12.2265 23.7977 11.9712 23.8433C11.7137 23.8982 11.4526 23.9357 11.1899 23.9555C10.9438 23.9749 10.7172 23.9826 10.5088 23.9826C10.0686 23.9947 9.62914 23.9381 9.20663 23.8149C8.90095 23.722 8.62197 23.5583 8.39275 23.3375C8.19057 23.1206 8.04719 22.8564 7.97604 22.5697C7.88838 22.2428 7.84675 21.9054 7.85233 21.5671V15.7091H5.27916Z" fill="white"/>
<path fill-rule="evenodd" clip-rule="evenodd" d="M25.143 21.0717H26.4022V23.4588C26.0157 23.6023 25.6163 23.7091 25.2094 23.7775C24.6447 23.8865 24.0709 23.9426 23.4957 23.9453C23.0373 23.9577 22.5826 23.8622 22.1687 23.6666C21.7898 23.4782 21.5918 23.095 21.5632 22.5053C21.5632 22.5053 21.5528 22.5053 21.5345 22.4859C20.2857 23.7762 18.1566 24.4421 16.4247 23.6279C16.0245 23.4512 15.6687 23.1891 15.3829 22.8601C15.1265 22.5741 14.9446 22.2304 14.8529 21.8588C14.7639 21.5322 14.7162 21.1958 14.711 20.8575C14.7099 20.4981 14.7675 20.1408 14.8815 19.7995C15.0068 19.4543 15.2145 19.1444 15.4871 18.8962C15.828 18.593 16.2227 18.355 16.6512 18.1943C17.2486 17.9546 17.8799 17.808 18.5225 17.7595L21.3053 17.5014V17.1646C21.3053 16.6962 21.1921 16.3324 20.9551 16.0782C20.3873 15.4988 18.7973 15.7324 18.0498 15.8343C17.5132 15.9016 16.984 16.0178 16.4689 16.1814L15.8634 13.7853C16.2113 13.6428 16.5685 13.5239 16.9325 13.4292C18.6163 12.9801 20.8131 12.7272 22.506 13.1208C23.018 13.2297 23.5014 13.4433 23.9254 13.7479C24.3243 14.0521 24.6344 14.456 24.8239 14.9182C25.0472 15.4846 25.1535 16.0897 25.1365 16.6975L25.143 21.0717ZM19.1137 19.7053C18.959 19.8926 18.8755 20.1278 18.878 20.3698C18.8613 20.6762 18.9479 20.9794 19.1241 21.2317C19.2947 21.4369 19.5786 21.5504 19.9849 21.5504C20.4198 21.5504 20.959 21.2317 21.2715 20.9517V19.1259C20.6946 19.2098 19.4731 19.255 19.1137 19.7053Z" fill="white"/>
<path fill-rule="evenodd" clip-rule="evenodd" d="M32.2805 15.7091V23.7323H28.2579V15.7091H27V13.2188H38.923V21.0717H40.1823V23.4304C39.246 23.8046 38.5259 23.9826 37.5232 23.9826C37.0828 23.996 36.6432 23.9394 36.221 23.8149C35.9141 23.7246 35.6345 23.5606 35.4071 23.3375C35.2021 23.1212 35.0556 22.8571 34.9813 22.5697C34.902 22.2414 34.8639 21.9047 34.868 21.5671V15.7091H32.2805Z" fill="white"/>
<path fill-rule="evenodd" clip-rule="evenodd" d="M46.1319 13.2266L45.5837 19.3298H42.6211L42.0625 13.2266H46.1319Z" fill="white"/>
</svg>
