<svg width="72" height="72" viewBox="0 0 72 72" fill="none" xmlns="http://www.w3.org/2000/svg">
<path fill-rule="evenodd" clip-rule="evenodd" d="M1 5.87767C1 6.91502 1.84503 7.75533 2.88821 7.75533H5.01245V13.1536C5.01245 16.2599 7.55629 18.7866 10.68 18.7866H26.6132V20.7251C13.6318 21.69 3.36318 32.4779 3.36318 45.6274V49.8521C3.36318 50.1187 3.38066 50.3795 3.39815 50.6403L3.4098 50.8286C3.38358 51.0199 3.36318 51.214 3.36318 51.4111V60.4864C3.36318 64.6301 6.75205 68 10.916 68H46.0869C50.2538 68 53.6427 64.6301 53.6427 60.4864V51.4111C53.6427 51.2343 53.6252 51.0691 53.5931 50.8315L53.6077 50.6403C53.611 50.5807 53.6146 50.5213 53.6181 50.4619C53.6304 50.2586 53.6427 50.0562 53.6427 49.8521V45.6274C53.6427 32.4779 43.3711 21.69 30.3897 20.7251V18.7866H46.3258C49.4495 18.7866 51.9905 16.2599 51.9905 13.1536V7.75533H54.1147C55.155 7.75533 56 6.91502 56 5.87767C56 4.84031 55.155 4 54.1147 4H50.0993H6.90066H2.88821C1.84503 4 1 4.84031 1 5.87767ZM49.8604 45.6303V49.855C49.8604 50.0376 49.8487 50.2143 49.8342 50.3911L49.8109 50.8141C49.8033 50.8842 49.8088 50.9586 49.8142 51.0317L49.8167 51.0662L49.8604 60.4951C49.8604 62.5698 48.1703 64.2534 46.084 64.2534H10.9131C8.82967 64.2534 7.13669 62.5698 7.13669 60.4951L7.15126 51.3415L7.18331 51.0662C7.18914 50.9822 7.19205 50.8953 7.18622 50.8141L7.16291 50.3911L7.15706 50.3046C7.1469 50.1566 7.13669 50.0078 7.13669 49.855V45.6303C7.13669 33.9181 16.7205 24.3877 28.4985 24.3877C40.2795 24.3877 49.8604 33.9181 49.8604 45.6303ZM48.2111 7.75533H8.79179V13.1536C8.79179 14.1881 9.63682 15.0313 10.68 15.0313H46.3229C47.3632 15.0313 48.2111 14.1881 48.2111 13.1536V7.75533Z" fill="#0353A4"/>
<path d="M5.01245 7.75533H5.36245V7.40533H5.01245V7.75533ZM26.6132 18.7866H26.9632V18.4366H26.6132V18.7866ZM26.6132 20.7251L26.6392 21.0742L26.9632 21.0501V20.7251H26.6132ZM3.39815 50.6403L3.74748 50.6187L3.74736 50.6169L3.39815 50.6403ZM3.4098 50.8286L3.75656 50.8762L3.76128 50.8417L3.75913 50.807L3.4098 50.8286ZM53.5931 50.8315L53.2441 50.8049L53.2413 50.8417L53.2463 50.8783L53.5931 50.8315ZM53.6077 50.6403L53.9567 50.6669L53.9571 50.6596L53.6077 50.6403ZM53.6181 50.4619L53.9675 50.483H53.9675L53.6181 50.4619ZM30.3897 20.7251H30.0397V21.0501L30.3637 21.0742L30.3897 20.7251ZM30.3897 18.7866V18.4366H30.0397V18.7866H30.3897ZM51.9905 7.75533V7.40533H51.6405V7.75533H51.9905ZM49.8342 50.3911L49.4852 50.3623L49.4847 50.3718L49.8342 50.3911ZM49.8109 50.8141L50.1588 50.8516L50.1598 50.8425L50.1603 50.8334L49.8109 50.8141ZM49.8142 51.0317L50.1633 51.0064L50.1632 51.0059L49.8142 51.0317ZM49.8167 51.0662L50.1667 51.0646L50.1666 51.0528L50.1658 51.041L49.8167 51.0662ZM49.8604 60.4951H50.2104L50.2104 60.4935L49.8604 60.4951ZM7.13669 60.4951L6.78669 60.4946V60.4951H7.13669ZM7.15126 51.3415L6.80361 51.301L6.80129 51.3209L6.80126 51.341L7.15126 51.3415ZM7.18331 51.0662L7.53096 51.1067L7.53191 51.0986L7.53247 51.0905L7.18331 51.0662ZM7.18622 50.8141L6.83671 50.8334L6.83712 50.8392L7.18622 50.8141ZM7.16291 50.3911L7.51241 50.3718L7.51211 50.3674L7.16291 50.3911ZM7.15706 50.3046L7.50626 50.281L7.50624 50.2807L7.15706 50.3046ZM8.79179 7.75533V7.40533H8.44179V7.75533H8.79179ZM48.2111 7.75533H48.5611V7.40533H48.2111V7.75533ZM2.88821 7.40533C2.03648 7.40533 1.35 6.71987 1.35 5.87767H0.65C0.65 7.11016 1.65358 8.10533 2.88821 8.10533V7.40533ZM5.01245 7.40533H2.88821V8.10533H5.01245V7.40533ZM5.36245 13.1536V7.75533H4.66245V13.1536H5.36245ZM10.68 18.4366C7.74751 18.4366 5.36245 16.0645 5.36245 13.1536H4.66245C4.66245 16.4553 7.36508 19.1366 10.68 19.1366V18.4366ZM26.6132 18.4366H10.68V19.1366H26.6132V18.4366ZM26.9632 20.7251V18.7866H26.2632V20.7251H26.9632ZM3.71318 45.6274C3.71318 32.6648 13.8368 22.0258 26.6392 21.0742L26.5873 20.3761C13.4268 21.3543 3.01318 32.2911 3.01318 45.6274H3.71318ZM3.71318 49.8521V45.6274H3.01318V49.8521H3.71318ZM3.74736 50.6169C3.72976 50.3543 3.71318 50.1051 3.71318 49.8521H3.01318C3.01318 50.1323 3.03157 50.4047 3.04893 50.6637L3.74736 50.6169ZM3.75913 50.807L3.74748 50.6187L3.04881 50.6619L3.06047 50.8503L3.75913 50.807ZM3.71318 51.4111C3.71318 51.2372 3.7312 51.0611 3.75656 50.8762L3.06305 50.7811C3.03595 50.9787 3.01318 51.1908 3.01318 51.4111H3.71318ZM3.71318 60.4864V51.4111H3.01318V60.4864H3.71318ZM10.916 67.65C6.94359 67.65 3.71318 64.435 3.71318 60.4864H3.01318C3.01318 64.8251 6.56052 68.35 10.916 68.35V67.65ZM46.0869 67.65H10.916V68.35H46.0869V67.65ZM53.2927 60.4864C53.2927 64.4349 50.0623 67.65 46.0869 67.65V68.35C50.4452 68.35 53.9926 64.8252 53.9926 60.4864H53.2927ZM53.2927 51.4111V60.4864H53.9926V51.4111H53.2927ZM53.2463 50.8783C53.2779 51.1127 53.2927 51.2588 53.2927 51.4111H53.9926C53.9926 51.2098 53.9725 51.0255 53.94 50.7847L53.2463 50.8783ZM53.2587 50.6137L53.2441 50.8049L53.9421 50.8581L53.9567 50.6669L53.2587 50.6137ZM53.2688 50.4408C53.2652 50.5 53.2616 50.5603 53.2582 50.621L53.9571 50.6596C53.9604 50.601 53.9639 50.5425 53.9675 50.483L53.2688 50.4408ZM53.2927 49.8521C53.2927 50.0439 53.2812 50.2358 53.2688 50.4408L53.9675 50.483C53.9797 50.2814 53.9926 50.0685 53.9926 49.8521H53.2927ZM53.2927 45.6274V49.8521H53.9926V45.6274H53.2927ZM30.3637 21.0742C43.1662 22.0258 53.2927 32.6649 53.2927 45.6274H53.9926C53.9926 32.291 43.5761 21.3543 30.4156 20.3761L30.3637 21.0742ZM30.0397 18.7866V20.7251H30.7397V18.7866H30.0397ZM46.3258 18.4366H30.3897V19.1366H46.3258V18.4366ZM51.6405 13.1536C51.6405 16.0647 49.2581 18.4366 46.3258 18.4366V19.1366C49.641 19.1366 52.3405 16.455 52.3405 13.1536H51.6405ZM51.6405 7.75533V13.1536H52.3405V7.75533H51.6405ZM54.1147 7.40533H51.9905V8.10533H54.1147V7.40533ZM55.65 5.87767C55.65 6.72022 54.9632 7.40533 54.1147 7.40533V8.10533C55.3468 8.10533 56.35 7.10981 56.35 5.87767H55.65ZM54.1147 4.35C54.9632 4.35 55.65 5.03511 55.65 5.87767H56.35C56.35 4.64552 55.3468 3.65 54.1147 3.65V4.35ZM50.0993 4.35H54.1147V3.65H50.0993V4.35ZM6.90066 4.35H50.0993V3.65H6.90066V4.35ZM2.88821 4.35H6.90066V3.65H2.88821V4.35ZM1.35 5.87767C1.35 5.03546 2.03648 4.35 2.88821 4.35V3.65C1.65358 3.65 0.65 4.64517 0.65 5.87767H1.35ZM50.2104 49.855V45.6303H49.5104V49.855H50.2104ZM50.183 50.4198C50.1978 50.2399 50.2104 50.052 50.2104 49.855H49.5104C49.5104 50.0232 49.4997 50.1888 49.4854 50.3623L50.183 50.4198ZM50.1603 50.8334L50.1836 50.4103L49.4847 50.3718L49.4614 50.7949L50.1603 50.8334ZM50.1632 51.0059C50.1574 50.9262 50.1553 50.8845 50.1588 50.8516L49.4629 50.7767C49.4513 50.8839 49.4602 50.9909 49.4651 51.0574L50.1632 51.0059ZM50.1658 51.041L50.1633 51.0064L49.4651 51.0569L49.4676 51.0915L50.1658 51.041ZM50.2104 60.4935L50.1667 51.0646L49.4667 51.0679L49.5104 60.4968L50.2104 60.4935ZM46.084 64.6034C48.3621 64.6034 50.2104 62.7646 50.2104 60.4951H49.5104C49.5104 62.375 47.9785 63.9034 46.084 63.9034V64.6034ZM10.9131 64.6034H46.084V63.9034H10.9131V64.6034ZM6.78669 60.4951C6.78669 62.7648 8.63804 64.6034 10.9131 64.6034V63.9034C9.02129 63.9034 7.48669 62.3749 7.48669 60.4951H6.78669ZM6.80126 51.341L6.78669 60.4946L7.48669 60.4957L7.50126 51.3421L6.80126 51.341ZM6.83566 51.0258L6.80361 51.301L7.49891 51.382L7.53096 51.1067L6.83566 51.0258ZM6.83712 50.8392C6.84124 50.8965 6.83951 50.9647 6.83415 51.042L7.53247 51.0905C7.53876 50.9997 7.54287 50.8941 7.53533 50.7891L6.83712 50.8392ZM6.81344 50.4103L6.83676 50.8334L7.53569 50.7949L7.51238 50.3718L6.81344 50.4103ZM6.80786 50.3283L6.81371 50.4147L7.51211 50.3674L7.50626 50.281L6.80786 50.3283ZM6.78669 49.855C6.78669 50.0217 6.79784 50.1823 6.80788 50.3286L7.50624 50.2807C7.49595 50.1308 7.48669 49.9939 7.48669 49.855H6.78669ZM6.78669 45.6303V49.855H7.48669V45.6303H6.78669ZM28.4985 24.0377C16.5291 24.0377 6.78669 33.7229 6.78669 45.6303H7.48669C7.48669 34.1132 16.912 24.7377 28.4985 24.7377V24.0377ZM50.2104 45.6303C50.2104 33.7229 40.4709 24.0377 28.4985 24.0377V24.7377C40.088 24.7377 49.5104 34.1132 49.5104 45.6303H50.2104ZM8.79179 8.10533H48.2111V7.40533H8.79179V8.10533ZM9.14179 13.1536V7.75533H8.44179V13.1536H9.14179ZM10.68 14.6813C9.82862 14.6813 9.14179 13.9933 9.14179 13.1536H8.44179C8.44179 14.3829 9.44502 15.3813 10.68 15.3813V14.6813ZM46.3229 14.6813H10.68V15.3813H46.3229V14.6813ZM47.8611 13.1536C47.8611 13.9929 47.1717 14.6813 46.3229 14.6813V15.3813C47.5546 15.3813 48.5611 14.3832 48.5611 13.1536H47.8611ZM47.8611 7.75533V13.1536H48.5611V7.75533H47.8611Z" fill="white"/>
<path fill-rule="evenodd" clip-rule="evenodd" d="M28.5 63C18.8525 63 11 54.9261 11 45C11 35.0739 18.8525 27 28.5 27C38.1475 27 46 35.0739 46 45C46 54.9261 38.1475 63 28.5 63ZM28.5029 59.1316C36.08 59.1316 42.2419 52.7935 42.2419 45C42.2419 37.2065 36.0829 30.8655 28.5029 30.8655C20.9229 30.8655 14.761 37.2065 14.761 45C14.761 52.7935 20.9258 59.1316 28.5029 59.1316Z" fill="#0353A4"/>
<path d="M10.65 45C10.65 55.1101 18.65 63.35 28.5 63.35V62.65C19.055 62.65 11.35 54.7421 11.35 45H10.65ZM28.5 26.65C18.65 26.65 10.65 34.8899 10.65 45H11.35C11.35 35.2579 19.055 27.35 28.5 27.35V26.65ZM46.35 45C46.35 34.8899 38.35 26.65 28.5 26.65V27.35C37.945 27.35 45.65 35.2579 45.65 45H46.35ZM28.5 63.35C38.35 63.35 46.35 55.1101 46.35 45H45.65C45.65 54.7421 37.945 62.65 28.5 62.65V63.35ZM41.8919 45C41.8919 52.6096 35.8774 58.7816 28.5029 58.7816V59.4816C36.2825 59.4816 42.5919 52.9775 42.5919 45H41.8919ZM28.5029 31.2155C35.8802 31.2155 41.8919 37.3903 41.8919 45H42.5919C42.5919 37.0227 36.2855 30.5155 28.5029 30.5155V31.2155ZM15.111 45C15.111 37.3904 21.1255 31.2155 28.5029 31.2155V30.5155C20.7204 30.5155 14.411 37.0226 14.411 45H15.111ZM28.5029 58.7816C21.1283 58.7816 15.111 52.6095 15.111 45H14.411C14.411 52.9776 20.7234 59.4816 28.5029 59.4816V58.7816Z" fill="white"/>
<path d="M33.6423 37.8811L29.1538 42.3696C28.4393 43.0841 28.4148 44.2131 29.0965 44.8949L32.913 43.5463L36.1102 40.349C36.8247 39.6345 36.8493 38.5055 36.1694 37.8257C35.4896 37.1459 34.3568 37.1666 33.6423 37.8811Z" fill="#DC493A"/>
<path fill-rule="evenodd" clip-rule="evenodd" d="M29 49C31.2091 49 33 47.2091 33 45C33 42.7909 31.2091 41 29 41C26.7909 41 25 42.7909 25 45C25 47.2091 26.7909 49 29 49Z" fill="#DC493A"/>
</svg>
