<svg width="22" height="16" viewBox="0 0 22 16" fill="none" xmlns="http://www.w3.org/2000/svg">
<path d="M22.0002 13.3327H19.2149V11.9091H20.605V7.75775L19.4084 4.08962H14.3315V11.9091H15.0292V13.3327H12.9414V2.66602H20.4115L22.0002 7.52914V13.3327Z" fill="#D6DCED"/>
<path d="M22.0002 13.3327H19.2149V11.9091H20.605V7.75775L19.4084 4.08962H14.3315V11.9091H15.0292V13.3327H12.9414V2.66602H20.4115L22.0002 7.52914V13.3327Z" fill="#B9D6F2"/>
<path fill-rule="evenodd" clip-rule="evenodd" d="M14.2344 13C14.2344 14.6533 15.5415 16 17.1461 16C18.7508 16 20.0526 14.6533 20.0579 13C20.0579 11.3467 18.7508 10 17.1461 10C15.5415 10 14.2344 11.3467 14.2344 13ZM15.6903 13C15.6903 12.1734 16.3438 11.5 17.1461 11.5C17.9485 11.5 18.602 12.1734 18.602 13C18.602 13.8266 17.9485 14.5 17.1461 14.5C16.3438 14.5 15.6903 13.8266 15.6903 13Z" fill="#D6DCED"/>
<path fill-rule="evenodd" clip-rule="evenodd" d="M14.2344 13C14.2344 14.6533 15.5415 16 17.1461 16C18.7508 16 20.0526 14.6533 20.0579 13C20.0579 11.3467 18.7508 10 17.1461 10C15.5415 10 14.2344 11.3467 14.2344 13ZM15.6903 13C15.6903 12.1734 16.3438 11.5 17.1461 11.5C17.9485 11.5 18.602 12.1734 18.602 13C18.602 13.8266 17.9485 14.5 17.1461 14.5C16.3438 14.5 15.6903 13.8266 15.6903 13Z" fill="#B9D6F2"/>
<path d="M3.88316 13.9993H1.29492V8.66602H2.58667V12.4739H3.88316V13.9993Z" fill="#D6DCED"/>
<path d="M3.88316 13.9993H1.29492V8.66602H2.58667V12.4739H3.88316V13.9993Z" fill="#B9D6F2"/>
<path d="M14.2353 14H8.13304V12.5252H12.8831V1.47482H0V0H14.2353V14Z" fill="#D6DCED"/>
<path d="M14.2353 14H8.13304V12.5252H12.8831V1.47482H0V0H14.2353V14Z" fill="#B9D6F2"/>
<path fill-rule="evenodd" clip-rule="evenodd" d="M3.23438 13C3.23438 14.6533 4.54148 16 6.14614 16C7.7508 16 9.05259 14.6533 9.0579 13C9.0579 11.3467 7.7508 10 6.14614 10C4.54148 10 3.23438 11.3467 3.23438 13ZM4.69026 13C4.69026 12.1734 5.34381 11.5 6.14614 11.5C6.94847 11.5 7.60202 12.1734 7.60202 13C7.60202 13.8266 6.94847 14.5 6.14614 14.5C5.34381 14.5 4.69026 13.8266 4.69026 13Z" fill="#D6DCED"/>
<path fill-rule="evenodd" clip-rule="evenodd" d="M3.23438 13C3.23438 14.6533 4.54148 16 6.14614 16C7.7508 16 9.05259 14.6533 9.0579 13C9.0579 11.3467 7.7508 10 6.14614 10C4.54148 10 3.23438 11.3467 3.23438 13ZM4.69026 13C4.69026 12.1734 5.34381 11.5 6.14614 11.5C6.94847 11.5 7.60202 12.1734 7.60202 13C7.60202 13.8266 6.94847 14.5 6.14614 14.5C5.34381 14.5 4.69026 13.8266 4.69026 13Z" fill="#B9D6F2"/>
<rect x="0.646484" y="2.66602" width="6.47059" height="1.33333" fill="#D6DCED"/>
<rect x="0.646484" y="2.66602" width="6.47059" height="1.33333" fill="#B9D6F2"/>
<rect x="1.29492" y="6" width="3.88235" height="1.33333" fill="#D6DCED"/>
<rect x="1.29492" y="6" width="3.88235" height="1.33333" fill="#B9D6F2"/>
</svg>
