<svg width="72" height="72" viewBox="0 0 72 72" fill="none" xmlns="http://www.w3.org/2000/svg">
<path fill-rule="evenodd" clip-rule="evenodd" d="M50 21.1268V69.9988L3 70V21.1268C3 20.4448 3.556 19.8913 4.24385 19.8913H13.9807C14.6685 19.8913 15.2245 20.4448 15.2245 21.1268V29.7094H20.3877V21.1268C20.3877 20.4448 20.9437 19.8913 21.6316 19.8913H25.2574V10.3289V2.23545C25.2574 1.55348 25.8134 1 26.5012 1H37.5056C38.1934 1 38.7494 1.55348 38.7494 2.23545V3.30288H46.0209C46.47 3.30288 46.8867 3.54503 47.1056 3.9342C47.3245 4.32337 47.3158 4.80025 47.0819 5.18201L44.9898 8.58444L47.0819 11.9869C47.317 12.3674 47.3257 12.8443 47.1056 13.2347C46.8854 13.6251 46.47 13.866 46.0209 13.866H37.5056C36.8177 13.866 36.2617 13.3125 36.2617 12.6305V11.5644H27.7451V19.8913H31.3684C32.0563 19.8913 32.6123 20.4448 32.6123 21.1268V29.7094H37.7742V21.1268C37.7742 20.4448 38.3302 19.8913 39.0181 19.8913H48.7562C49.444 19.8913 50 20.4448 50 21.1268ZM42.471 7.94077L43.8032 5.77379H38.7494V11.3951H43.8032L42.471 9.22811C42.2284 8.83277 42.2284 8.33611 42.471 7.94077ZM36.2617 9.09345H27.7451V3.4709H36.2617V9.09345ZM47.5123 22.3622H40.2619V29.7094H47.5123V22.3622ZM30.1246 22.3622V29.7094H22.8754V22.3622H30.1246ZM12.7356 22.3622H5.48645V29.7094H12.7356V22.3622ZM5.48645 62.7182H8.44307C9.13092 62.7182 9.68692 62.1648 9.68692 61.4828C9.68692 60.8008 9.13092 60.2473 8.44307 60.2473H5.48645V46.0433H9.64712C10.335 46.0433 10.891 45.4899 10.891 44.8079C10.891 44.1259 10.335 43.5724 9.64712 43.5724H5.48645V39.2854H13.819C14.5068 39.2854 15.0628 38.7319 15.0628 38.05C15.0628 37.368 14.5068 36.8145 13.819 36.8145H5.48645V32.1791H47.5123V36.8145H39.1798C38.4919 36.8145 37.9359 37.368 37.9359 38.05C37.9359 38.7319 38.4919 39.2854 39.1798 39.2854H47.5123V43.5724H43.3516C42.6638 43.5724 42.1078 44.1259 42.1078 44.8079C42.1078 45.4899 42.6638 46.0433 43.3516 46.0433H47.5123V60.2461H44.5557C43.8678 60.2461 43.3118 60.7996 43.3118 61.4816C43.3118 62.1635 43.8678 62.717 44.5557 62.717H47.5123V67.2332H35.7007V56.0394C35.7007 50.9975 31.5724 46.897 26.4963 46.897C21.4288 46.897 17.3042 50.9987 17.3042 56.0394V67.2332H5.48645V62.7182ZM19.7919 56.0394V67.2332H33.213V56.0394C33.213 52.3602 30.2004 49.368 26.4963 49.368C22.7996 49.368 19.7919 52.3602 19.7919 56.0394Z" fill="#0353A4"/>
<mask id="mask0" mask-type="alpha" maskUnits="userSpaceOnUse" x="15" y="0" width="35" height="20">
<rect x="15" width="35" height="20" fill="white"/>
</mask>
<g mask="url(#mask0)">
<path fill-rule="evenodd" clip-rule="evenodd" d="M50 21.1268V69.9988L3 70V21.1268C3 20.4448 3.556 19.8913 4.24385 19.8913H13.9807C14.6685 19.8913 15.2245 20.4448 15.2245 21.1268V29.7094H20.3877V21.1268C20.3877 20.4448 20.9437 19.8913 21.6316 19.8913H25.2574V10.3289V2.23545C25.2574 1.55348 25.8134 1 26.5012 1H37.5056C38.1934 1 38.7494 1.55348 38.7494 2.23545V3.30288H46.0209C46.47 3.30288 46.8867 3.54503 47.1056 3.9342C47.3245 4.32337 47.3158 4.80025 47.0819 5.18201L44.9898 8.58444L47.0819 11.9869C47.317 12.3674 47.3257 12.8443 47.1056 13.2347C46.8854 13.6251 46.47 13.866 46.0209 13.866H37.5056C36.8177 13.866 36.2617 13.3125 36.2617 12.6305V11.5644H27.7451V19.8913H31.3684C32.0563 19.8913 32.6123 20.4448 32.6123 21.1268V29.7094H37.7742V21.1268C37.7742 20.4448 38.3302 19.8913 39.0181 19.8913H48.7562C49.444 19.8913 50 20.4448 50 21.1268ZM42.471 7.94077L43.8032 5.77379H38.7494V11.3951H43.8032L42.471 9.22811C42.2284 8.83277 42.2284 8.33611 42.471 7.94077ZM36.2617 9.09345H27.7451V3.4709H36.2617V9.09345ZM47.5123 22.3622H40.2619V29.7094H47.5123V22.3622ZM30.1246 22.3622V29.7094H22.8754V22.3622H30.1246ZM12.7356 22.3622H5.48645V29.7094H12.7356V22.3622ZM5.48645 62.7182H8.44307C9.13092 62.7182 9.68692 62.1648 9.68692 61.4828C9.68692 60.8008 9.13092 60.2473 8.44307 60.2473H5.48645V46.0433H9.64712C10.335 46.0433 10.891 45.4899 10.891 44.8079C10.891 44.1259 10.335 43.5724 9.64712 43.5724H5.48645V39.2854H13.819C14.5068 39.2854 15.0628 38.7319 15.0628 38.05C15.0628 37.368 14.5068 36.8145 13.819 36.8145H5.48645V32.1791H47.5123V36.8145H39.1798C38.4919 36.8145 37.9359 37.368 37.9359 38.05C37.9359 38.7319 38.4919 39.2854 39.1798 39.2854H47.5123V43.5724H43.3516C42.6638 43.5724 42.1078 44.1259 42.1078 44.8079C42.1078 45.4899 42.6638 46.0433 43.3516 46.0433H47.5123V60.2461H44.5557C43.8678 60.2461 43.3118 60.7996 43.3118 61.4816C43.3118 62.1635 43.8678 62.717 44.5557 62.717H47.5123V67.2332H35.7007V56.0394C35.7007 50.9975 31.5724 46.897 26.4963 46.897C21.4288 46.897 17.3042 50.9987 17.3042 56.0394V67.2332H5.48645V62.7182ZM19.7919 56.0394V67.2332H33.213V56.0394C33.213 52.3602 30.2004 49.368 26.4963 49.368C22.7996 49.368 19.7919 52.3602 19.7919 56.0394Z" fill="#DC493A"/>
</g>
</svg>
