<svg width="140" height="88" viewBox="0 0 140 88" fill="none" xmlns="http://www.w3.org/2000/svg">
<g opacity="0.098562">
<path fill-rule="evenodd" clip-rule="evenodd" d="M98.445 67.0611L98.5857 62.0675V61.5147C99.0578 61.0606 101.699 58.4766 103.167 55.7135C104.382 53.426 104.784 50.8362 102.575 50.8362C102.488 50.8362 102.379 50.8581 102.249 50.9011C102.118 50.9442 101.988 51.0311 101.857 51.1612C100.98 51.9279 99.569 54.4989 98.5857 55.7577V39.3535L98.445 33.727C96.9775 33.8533 95.5337 33.9554 94.1135 34.0341C92.6932 34.113 91.577 34.1527 90.7652 34.1527C90.2968 34.1527 89.9148 34.1286 89.6178 34.0817C89.3214 34.0341 89.095 33.9789 88.9392 33.9157C88.8457 33.8214 88.7757 33.7113 88.7286 33.585C88.6814 33.4587 88.6272 33.3325 88.5645 33.2068C88.5645 32.9231 88.7286 32.6711 89.0563 32.4504C89.3841 32.2299 89.7354 32.1191 90.1097 32.1191H122.421C122.795 32.1191 123.17 32.2923 123.544 32.6393C123.793 32.8912 123.919 33.1119 123.919 33.3013C123.888 33.4275 123.856 33.5375 123.825 33.6326C123.793 33.727 123.731 33.8214 123.638 33.9157C123.513 33.9477 123.403 33.9632 123.31 33.9632C122.654 34.0895 122.123 34.1527 121.718 34.1527C120.532 34.1527 119.213 34.1052 117.761 34.0107C116.309 33.9157 115.069 33.8214 114.038 33.727L113.898 37.7456L113.945 39.3535V61.4346L113.898 63.1367L114.038 67.0611H98.445Z" fill="#003559"/>
<path fill-rule="evenodd" clip-rule="evenodd" d="M50.4248 68.8711L46.8652 60.0955H22.0108C20.8679 62.8761 19.9454 65.0626 19.2421 66.699C18.539 68.3211 18.0332 69.1893 17.7258 69.3052H17.0002C16.3408 69.3052 16.0117 68.7266 16.0117 67.568C16.0117 67.2783 16.0554 66.9594 16.1432 66.6118C16.2315 66.2641 16.3408 65.9459 16.4729 65.6563C18.539 61.2541 20.2962 57.5178 21.7471 54.4474C23.5933 50.4508 25.329 46.5986 26.9547 42.8916L45.876 0.142578L57.0037 25.8077C53.4021 30.0533 51.6011 35.0889 51.6011 40.9154L51.4644 42.9484C51.4644 49.4965 53.7455 55.2546 58.3069 60.2218C62.8687 65.1895 68.4406 68.0574 75.0221 68.8249L75.6702 68.8601L75.6749 68.8711H50.4248ZM23.3811 56.8804H45.6092C43.5877 51.8989 41.8298 47.6707 40.3349 44.1947C39.5441 42.3416 37.6978 38.1417 34.7971 31.5961L23.3811 56.8804Z" fill="#003559"/>
<path fill-rule="evenodd" clip-rule="evenodd" d="M76.9302 65.7546L78.105 65.8846C82.6725 65.8846 86.826 65.0173 90.5671 63.2813C94.6994 61.3728 97.8099 59.1553 99.9848 55.5108C100.333 54.8604 100.593 54.3615 100.768 54.0145C101.439 52.7557 101.968 52.1928 102.446 52.1221C103.195 52.0121 103.47 53.2046 103.074 54.0662C101.708 56.5914 101.578 56.5495 99.379 59.251C97.5521 61.1596 96.0261 62.8912 94.2862 63.9323C92.2855 65.2344 90.0236 66.2317 87.5006 66.9259C84.9778 67.62 82.411 67.9671 79.801 67.9671L76.2128 67.772C69.9057 67.0347 64.5659 64.2794 60.194 59.5067C55.823 54.7348 53.6367 49.203 53.6367 42.9121L53.7677 40.9591C53.7677 34.1042 56.3558 28.3884 61.5321 23.811C66.7081 19.2335 72.8418 16.9453 79.932 16.9453H81.628C84.8036 16.9453 87.9139 17.6608 90.9584 19.0928C93.6122 20.3078 96.2869 22.1295 98.9841 24.5594C99.7672 25.1666 100.398 25.8283 100.876 26.5444C101.355 27.2604 101.594 27.835 101.594 28.2691C101.594 28.9632 101.398 29.3102 101.007 29.3102C100.746 29.3102 100.376 29.1477 99.8976 28.8219C99.4192 28.4967 99.0713 28.2253 98.8537 28.0082C96.1132 24.9717 93.1552 22.7698 89.9796 21.4027C86.8047 20.0364 83.1941 19.3528 79.1489 19.3528H76.9302V65.7546Z" fill="#003559"/>
</g>
</svg>
