<svg width="72" height="72" viewBox="0 0 72 72" fill="none" xmlns="http://www.w3.org/2000/svg">
<path fill-rule="evenodd" clip-rule="evenodd" d="M27.2008 9.5V40.7C32.1008 43.6 35.1008 48.9 35.1008 54.7C35.1008 63.7 27.7008 71.1 18.7008 71.1C9.70078 71.1 2.30078 63.7 2.30078 54.7C2.30078 48.9 5.30078 43.7 10.2008 40.7V9.5C10.2008 4.8 14.0008 1 18.7008 1C23.4008 1 27.2008 4.8 27.2008 9.5ZM5.80078 54.7C5.80078 61.8 11.6008 67.6 18.7008 67.6C25.8008 67.6 31.6008 61.8 31.4008 54.6C31.4008 49.8 28.8008 45.4 24.5008 43.2C24.0008 42.9 23.6008 42.4 23.6008 41.7V9.5C23.6008 6.8 21.4008 4.5 18.6008 4.5C15.9008 4.5 13.6008 6.7 13.6008 9.5V41.8C13.6008 42.4 13.3008 43 12.7008 43.3C8.50078 45.5 5.80078 49.9 5.80078 54.7Z" fill="#0353A4"/>
<path fill-rule="evenodd" clip-rule="evenodd" d="M20.5016 24.1004V46.3004C24.4016 47.1004 27.4016 50.6004 27.5016 54.7004C27.5016 59.5004 23.6016 63.4004 18.8016 63.4004C14.0016 63.4004 10.1016 59.5004 10.1016 54.7004C10.1016 50.5004 13.1016 47.0004 17.1016 46.2004V24.1004C17.1016 23.2004 17.8016 22.4004 18.8016 22.4004C19.7016 22.4004 20.5016 23.1004 20.5016 24.1004ZM13.5016 54.9004C13.5016 57.8004 15.8016 60.1004 18.7016 60.1004C21.6016 60.1004 23.9016 57.7004 23.9016 54.9004C23.9016 52.0004 21.6016 49.7004 18.7016 49.7004C15.8016 49.7004 13.5016 52.0004 13.5016 54.9004Z" fill="#DC493A"/>
<path fill-rule="evenodd" clip-rule="evenodd" d="M59.1301 55.2023L56.9156 54.5256L57.8887 56.4371L56.2781 57.375L55.2938 55.4754L54.6563 57.8262L52.9004 57.28L54.0524 53.0652L52.4082 49.8952C52.274 49.919 52.1398 49.9427 51.9944 49.9427C51.7483 49.9427 51.5135 49.9071 51.2786 49.8478L49.5338 53.0059L50.5852 57.2563L48.8068 57.7431L48.2252 55.3804L47.1962 57.2563L45.6192 56.2709L46.6482 54.395L44.4225 55.0124L43.9639 53.1246L47.968 52.0086L49.7239 48.8148C49.4555 48.4943 49.243 48.1025 49.12 47.6751H45.6416L42.7224 50.7738L41.4138 49.4085L43.0468 47.6751H41V45.728H43.058L41.425 43.9945L42.7224 42.6173L45.6304 45.728H49.1088C49.2318 45.3124 49.422 44.9444 49.6792 44.6238L48.0798 41.5488L44.1093 40.3259L44.6238 38.4619L46.8719 39.1149L45.7087 36.8828L47.3193 35.9449L48.4713 38.177L49.1088 35.8262L50.8648 36.3723L49.7128 40.5871L51.2562 43.5553C51.5023 43.484 51.7483 43.4365 52.0168 43.4365C52.2293 43.4365 52.4418 43.4603 52.6431 43.5078L54.2201 40.6465L53.1688 36.3961L54.9471 35.9093L55.5287 38.2719L56.7367 36.0755L58.3137 37.0609L57.1057 39.2574L59.3315 38.64L59.79 40.5277L55.786 41.6438L54.2201 44.4932C54.5221 44.8375 54.757 45.253 54.8912 45.7161H58.3696L61.2888 42.6173L62.5862 43.9945L60.9532 45.728H63V47.6751H60.9532L62.5974 49.3966L61.2999 50.7738L58.3808 47.6751H54.9024C54.7458 48.2093 54.4662 48.6842 54.0859 49.0523L55.6741 52.1154L59.6446 53.3383L59.1301 55.2023ZM50.7977 46.7015C50.7977 47.402 51.3345 47.9838 52.0056 47.9838C52.6655 47.9838 53.2135 47.402 53.2135 46.7015C53.2135 46.001 52.6655 45.4193 52.0056 45.4193C51.3457 45.4193 50.7977 45.9892 50.7977 46.7015Z" fill="#0353A4"/>
<path fill-rule="evenodd" clip-rule="evenodd" d="M41.1406 17.8335C41.1406 13.8141 44.4519 10.5293 48.5041 10.5293C52.5563 10.5293 55.8675 13.8141 55.8675 17.8335C55.8675 21.8531 52.5563 25.1377 48.5041 25.1377C44.4519 25.1377 41.1406 21.8531 41.1406 17.8335ZM53.413 17.8335C53.413 15.1297 51.2298 12.9641 48.5041 12.9641C45.7784 12.9641 43.5951 15.1297 43.5951 17.8335C43.5951 20.5372 45.7784 22.703 48.5041 22.703C51.2298 22.703 53.413 20.5372 53.413 17.8335Z" fill="#DC493A"/>
<path fill-rule="evenodd" clip-rule="evenodd" d="M48.4817 4.44156C48.1561 4.44659 47.846 4.5797 47.6194 4.8116C47.3929 5.04349 47.2685 5.35517 47.2736 5.67806V8.07717C47.2673 8.51619 47.4999 8.92454 47.8822 9.14585C48.2644 9.36717 48.7372 9.36717 49.1195 9.14585C49.5018 8.92454 49.7343 8.51619 49.7281 8.07717V5.67806C49.7333 5.34858 49.6037 5.03106 49.3688 4.79804C49.1339 4.56502 48.8138 4.4364 48.4817 4.44156Z" fill="#DC493A"/>
<path fill-rule="evenodd" clip-rule="evenodd" d="M58.2827 8.09623C57.9638 8.10565 57.6612 8.23782 57.4389 8.46474L56.2357 9.65583C55.9157 9.96131 55.787 10.4144 55.8992 10.8406C56.0114 11.2668 56.347 11.5997 56.7766 11.711C57.2063 11.8223 57.6631 11.6947 57.9711 11.3773L59.1743 10.1861C59.5372 9.83614 59.6463 9.30105 59.4491 8.83867C59.2518 8.37629 58.7886 8.08146 58.2827 8.09623Z" fill="#DC493A"/>
<path fill-rule="evenodd" clip-rule="evenodd" d="M38.6827 8.09375C38.1822 8.09289 37.7313 8.39353 37.5432 8.85355C37.3551 9.31357 37.4673 9.84083 37.8269 10.1861L39.0302 11.3773C39.3382 11.6947 39.795 11.8223 40.2246 11.711C40.6543 11.5997 40.9899 11.2668 41.1021 10.8406C41.2143 10.4144 41.0856 9.96126 40.7656 9.65579L39.5623 8.46469C39.3317 8.22821 39.0144 8.0944 38.6827 8.09375V8.09375Z" fill="#DC493A"/>
<path fill-rule="evenodd" clip-rule="evenodd" d="M48.4817 26.3537C48.1561 26.3587 47.846 26.4918 47.6194 26.7237C47.3929 26.9556 47.2685 27.2673 47.2736 27.5902V29.9893C47.2673 30.4283 47.4999 30.8366 47.8822 31.058C48.2644 31.2793 48.7372 31.2793 49.1195 31.058C49.5018 30.8366 49.7343 30.4283 49.7281 29.9893V27.5902C49.7333 27.2607 49.6037 26.9432 49.3688 26.7102C49.1339 26.4771 48.8138 26.3485 48.4817 26.3537Z" fill="#DC493A"/>
<path fill-rule="evenodd" clip-rule="evenodd" d="M36.2467 16.6153C35.8045 16.6098 35.3936 16.8407 35.1709 17.2196C34.9482 17.5985 34.9482 18.0669 35.1709 18.4459C35.3936 18.8248 35.8045 19.0556 36.2467 19.0501H38.6676C39.1097 19.0556 39.5207 18.8248 39.7433 18.4459C39.966 18.0669 39.966 17.5985 39.7433 17.2196C39.5207 16.8407 39.1097 16.6098 38.6676 16.6153H36.2467Z" fill="#DC493A"/>
<path fill-rule="evenodd" clip-rule="evenodd" d="M58.3365 16.6153C57.8944 16.6098 57.4834 16.8407 57.2608 17.2196C57.0381 17.5985 57.0381 18.0669 57.2608 18.4459C57.4834 18.8248 57.8944 19.0556 58.3365 19.0501H60.7574C61.1996 19.0556 61.6105 18.8248 61.8332 18.4459C62.0559 18.0669 62.0559 17.5985 61.8332 17.2196C61.6105 16.8407 61.1996 16.6098 60.7574 16.6153H58.3365Z" fill="#DC493A"/>
<path fill-rule="evenodd" clip-rule="evenodd" d="M57.0928 23.9199C56.5924 23.9191 56.1415 24.2197 55.9534 24.6797C55.7652 25.1397 55.8775 25.667 56.2371 26.0123L57.4404 27.2035C57.7481 27.5218 58.2053 27.6501 58.6356 27.5389C59.0658 27.4277 59.4018 27.0945 59.5139 26.6677C59.626 26.2409 59.4966 25.7874 59.1758 25.4821L57.9725 24.2909C57.7419 24.0544 57.4245 23.9206 57.0928 23.9199V23.9199Z" fill="#DC493A"/>
<path fill-rule="evenodd" clip-rule="evenodd" d="M39.874 23.9224C39.5552 23.9318 39.2526 24.064 39.0303 24.2909L37.827 25.4821C37.5062 25.7874 37.3768 26.2409 37.4889 26.6677C37.601 27.0945 37.937 27.4278 38.3672 27.539C38.7975 27.6501 39.2547 27.5218 39.5624 27.2035L40.7657 26.0123C41.1286 25.6623 41.2377 25.1272 41.0404 24.6648C40.8432 24.2025 40.38 23.9076 39.874 23.9224Z" fill="#DC493A"/>
</svg>
