<svg width="5" height="14" viewBox="0 0 5 14" fill="none" xmlns="http://www.w3.org/2000/svg">
<path d="M3.22 2.5C2.86 2.5 2.57333 2.41333 2.36 2.24C2.14667 2.05333 2.04 1.80667 2.04 1.5C2.04 1.08667 2.2 0.733333 2.52 0.44C2.84 0.146666 3.22 -7.15256e-07 3.66 -7.15256e-07C4.04667 -7.15256e-07 4.32667 0.119999 4.5 0.359999C4.67333 0.586666 4.76 0.82 4.76 1.06C4.76 1.48667 4.60667 1.83333 4.3 2.1C4.00667 2.36667 3.64667 2.5 3.22 2.5ZM2.74 11.18C2.7 11.34 2.68 11.46 2.68 11.54C2.68 11.66 2.74 11.72 2.86 11.72C2.94 11.72 3.03333 11.7 3.14 11.66C3.26 11.6067 3.37333 11.5533 3.48 11.5C3.58667 11.4333 3.68667 11.38 3.78 11.34C3.87333 11.2867 3.94667 11.26 4 11.26C4.10667 11.26 4.18667 11.32 4.24 11.44C4.30667 11.5467 4.34667 11.6533 4.36 11.76C4.14667 11.9067 3.89333 12.0667 3.6 12.24C3.32 12.4133 3.02667 12.5733 2.72 12.72C2.42667 12.8667 2.13333 12.9867 1.84 13.08C1.56 13.1867 1.31333 13.24 1.1 13.24C0.873333 13.24 0.68 13.1933 0.52 13.1C0.373333 13.0067 0.3 12.8467 0.3 12.62C0.3 12.54 0.306667 12.4667 0.32 12.4C0.333333 12.32 0.346667 12.2533 0.36 12.2L1.64 6.1C1.68 5.9 1.64667 5.8 1.54 5.8C1.5 5.8 1.44 5.82 1.36 5.86C1.28 5.88667 1.18667 5.92 1.08 5.96C0.986667 6 0.886667 6.04 0.78 6.08C0.686667 6.10667 0.606667 6.12 0.54 6.12C0.42 6.12 0.326667 6.06 0.26 5.94C0.206667 5.82 0.166667 5.70667 0.14 5.6C0.393333 5.46667 0.693333 5.31333 1.04 5.14C1.4 4.96667 1.74667 4.81333 2.08 4.68C2.42667 4.53333 2.74 4.41333 3.02 4.32C3.3 4.21333 3.5 4.16 3.62 4.16C3.72667 4.16 3.82667 4.18667 3.92 4.24C4.01333 4.29333 4.06 4.38667 4.06 4.52C4.06 4.56 4.05333 4.61333 4.04 4.68C4.04 4.74667 4.03333 4.81333 4.02 4.88L2.74 11.18Z" fill="#208BD6"/>
</svg>
