<svg width="27" height="32" viewBox="0 0 27 32" fill="none" xmlns="http://www.w3.org/2000/svg">
<path fill-rule="evenodd" clip-rule="evenodd" d="M8.50812 2.44141C7.95819 2.44141 7.49979 2.78196 7.11179 3.21944C6.72378 3.65693 6.39453 4.22994 6.39453 4.93491C6.39453 5.63995 6.72378 6.21414 7.11179 6.65163C7.49979 7.08912 7.95819 7.42842 8.50812 7.42842H10.0933C11.3333 7.42842 12.2144 6.57371 12.9995 5.73726C13.7846 6.57371 14.6657 7.42842 15.9057 7.42842H17.4909C18.0408 7.42842 18.4992 7.08912 18.8872 6.65163C19.2752 6.21414 19.6044 5.63995 19.6044 4.93491C19.6044 4.22994 19.2752 3.65693 18.8872 3.21944C18.4992 2.78196 18.0408 2.44141 17.4909 2.44141H15.9057C14.6658 2.44141 13.7845 3.29618 12.9995 4.13256C12.2145 3.29618 11.3332 2.44141 10.0933 2.44141H8.50812ZM8.50654 3.68811H10.0917C10.8566 3.68811 11.4962 4.2469 12.1661 4.93486C11.4961 5.62294 10.8566 6.18161 10.0917 6.18161H8.50654C8.42142 6.18161 8.08671 6.02783 7.84089 5.75061C7.59506 5.47346 7.44975 5.11146 7.44975 4.93486C7.44975 4.75832 7.59506 4.39751 7.84089 4.12036C8.08671 3.84314 8.42142 3.68811 8.50654 3.68811ZM15.9051 3.68811H17.4903C17.5754 3.68811 17.9101 3.84314 18.156 4.12036C18.4018 4.39751 18.5471 4.75832 18.5471 4.93486C18.5471 5.11146 18.4018 5.47346 18.156 5.75061C17.9101 6.02783 17.5754 6.18161 17.4903 6.18161H15.9051C15.1402 6.18161 14.5007 5.62294 13.8308 4.93486C14.5007 4.2469 15.1403 3.68811 15.9051 3.68811Z" fill="#DC493A"/>
<path fill-rule="evenodd" clip-rule="evenodd" d="M12.4727 4.93555V9.29918H13.5295V4.93555H12.4727Z" fill="#DC493A"/>
<path d="M10.6249 8.67507C10.3331 8.67511 10.0966 8.95418 10.0965 9.29845V12.4153H2.17264C1.98208 12.4122 1.80483 12.5303 1.70877 12.7245C1.6127 12.9186 1.6127 13.1588 1.70877 13.353C1.80483 13.5472 1.98208 13.6653 2.17264 13.6621H10.6249C10.9167 13.6621 11.1533 13.383 11.1533 13.0387V9.92183H14.85V13.0387C14.8501 13.383 15.0866 13.6621 15.3784 13.6621H21.9834C22.6568 13.6621 23.397 14.1343 23.9607 14.8687C24.5244 15.6031 24.8865 16.5753 24.8865 17.4023V23.6361H22.2465V19.2725C22.2465 18.7457 22.0298 18.3168 21.7512 17.988C21.4725 17.6592 21.1088 17.4023 20.6624 17.4023H17.4941C17.3538 17.4024 17.2192 17.4682 17.1201 17.5854C17.021 17.7026 16.9654 17.8614 16.9657 18.027C16.9669 19.5173 16.0285 21.0087 14.8562 21.8074C13.7106 22.5874 12.3025 22.5859 11.1585 21.8011C11.1581 21.8011 11.1578 21.8011 11.1574 21.8011C10.0132 21.0183 9.31161 19.5744 9.31526 18.0122C9.31552 17.8464 9.25983 17.6874 9.16049 17.5702C9.06114 17.453 8.92633 17.3873 8.78583 17.3876L2.17158 17.4013C1.98104 17.3986 1.80401 17.5171 1.70828 17.7115C1.61256 17.9059 1.61295 18.146 1.70933 18.34C1.8057 18.5339 1.98311 18.6516 2.17365 18.648L8.32761 18.6356C8.49333 20.3917 9.31508 21.9804 10.628 22.8786C12.0976 23.885 13.9128 23.888 15.3846 22.8861C16.6789 22.0042 17.7233 20.4522 17.9358 18.6479H20.6624C20.7139 18.6479 20.878 18.7208 21.0029 18.8682C21.1279 19.0157 21.1897 19.2097 21.1897 19.2712V24.2582C21.1898 24.6025 21.4263 24.8816 21.7181 24.8816H25.4148C25.7067 24.8816 25.9432 24.6025 25.9432 24.2582V17.4011C25.9432 16.1715 25.4603 14.963 24.744 14.0298C24.0277 13.0966 23.0521 12.4141 21.9834 12.4141H15.9068V9.2972C15.9068 8.95294 15.6702 8.67386 15.3784 8.67383H10.6249L10.6249 8.67507Z" fill="#0353A4"/>
<path fill-rule="evenodd" clip-rule="evenodd" d="M20.6648 23.6368C20.4743 23.6336 20.297 23.7517 20.201 23.9459C20.1049 24.1401 20.1049 24.3802 20.201 24.5744C20.297 24.7686 20.4743 24.8867 20.6648 24.8835H26.4627C26.6533 24.8867 26.8305 24.7686 26.9266 24.5744C27.0227 24.3802 27.0227 24.1401 26.9266 23.9459C26.8305 23.7517 26.6533 23.6336 26.4627 23.6368H20.6648Z" fill="#0353A4"/>
<path fill-rule="evenodd" clip-rule="evenodd" d="M23.1312 26.3991C23.2264 26.237 23.381 26.1377 23.5481 26.1312C23.7276 26.1241 23.8978 26.225 24.0001 26.3991C24.0001 26.3991 24.2748 26.8668 24.5512 27.4291C24.6895 27.7102 24.8296 28.0166 24.9414 28.3166C25.0531 28.6167 25.1509 28.8866 25.1509 29.2468C25.1509 30.2724 24.4349 31.117 23.5657 31.117C22.6965 31.117 21.9805 30.2724 21.9805 29.2468C21.9805 28.8866 22.0782 28.6167 22.19 28.3166C22.3017 28.0166 22.4418 27.7102 22.5801 27.4291C22.8566 26.8668 23.1312 26.3991 23.1312 26.3991ZM23.597 27.9822C23.5888 27.9676 23.58 27.9521 23.5641 27.921C23.5482 27.952 23.5394 27.9675 23.5312 27.982C23.5213 27.9995 23.5123 28.0154 23.4929 28.0549C23.3669 28.311 23.2428 28.5863 23.1564 28.8183C23.0904 28.9957 23.0547 29.1618 23.0416 29.223C23.0376 29.2418 23.0357 29.2507 23.0357 29.2469C23.0357 29.5986 23.266 29.8702 23.5641 29.8702C23.8622 29.8702 24.0925 29.5986 24.0925 29.2469C24.0925 29.2506 24.0906 29.2418 24.0866 29.2232C24.0736 29.1623 24.0379 28.9961 23.9717 28.8183C23.8853 28.5863 23.7612 28.311 23.6353 28.0549C23.6159 28.0156 23.6069 27.9996 23.597 27.9822Z" fill="#0353A4"/>
</svg>
