<svg width="27" height="32" viewBox="0 0 27 32" fill="none" xmlns="http://www.w3.org/2000/svg">
<path d="M26.1788 14.7111H0.81808C0.528795 14.7111 0.335938 14.52 0.335938 14.2335C0.335938 13.9469 0.528795 13.7559 0.81808 13.7559H26.1788C26.4681 13.7559 26.6609 13.9469 26.6609 14.2335C26.6609 14.4723 26.4199 14.7111 26.1788 14.7111Z" fill="#DC493A"/>
<path d="M25.9897 11.3185H0.966518C0.677232 11.3185 0.484375 11.1275 0.484375 10.8409C0.484375 10.5543 0.677232 10.3633 0.966518 10.3633H25.9897C26.279 10.3633 26.4719 10.5543 26.4719 10.8409C26.4719 11.0797 26.2308 11.3185 25.9897 11.3185Z" fill="#DC493A"/>
<path d="M25.5012 28.8949H25.453C25.212 28.8471 25.0191 28.6083 25.0191 28.3695C25.9834 21.1575 25.9834 13.659 25.0191 6.11277C24.9709 5.87396 25.1637 5.63515 25.453 5.58739C25.6941 5.53963 25.9352 5.73068 25.9834 6.01724C26.9959 13.659 26.9959 21.2053 25.9834 28.5128C25.9352 28.7516 25.7423 28.8949 25.5012 28.8949Z" fill="#0353A4"/>
<path d="M25.0286 32H1.98214C1.74107 32 1.54821 31.8567 1.5 31.6179C1.5 31.5701 1.5 31.5224 1.5 31.4268C1.5 31.1403 1.69286 30.9492 1.98214 30.9492C2.07857 30.9492 2.175 30.997 2.27143 31.0447H24.8357C24.9321 30.997 25.0286 30.9492 25.125 30.9492C25.4143 30.9492 25.6071 31.188 25.6071 31.4268C25.6071 31.4746 25.6071 31.5224 25.6071 31.5701C25.4625 31.8567 25.2696 32 25.0286 32Z" fill="#292D78"/>
<path d="M1.93099 3.48629C1.88277 3.48629 1.88277 3.48629 1.83456 3.48629C1.59349 3.43853 1.40063 3.19973 1.44884 2.91316L1.93099 3.00868L1.44884 2.8654V2.81764C1.49706 2.57883 1.68992 2.43555 1.93099 2.43555H25.0256C25.2667 2.43555 25.4596 2.57883 25.5078 2.81764C25.5078 2.8654 25.5078 2.91316 25.5078 2.96092C25.5078 3.24749 25.3149 3.43853 25.0256 3.43853C24.9292 3.43853 24.8328 3.39077 24.7846 3.34301H2.22027C2.12384 3.48629 2.02742 3.48629 1.93099 3.48629Z" fill="#292D78"/>
<path d="M1.4978 28.8962C1.25673 28.8962 1.06388 28.7052 1.01566 28.4664C0.871018 27.2724 0.726375 26.0306 0.629947 24.8365C0.0513753 18.5321 0.147804 11.9888 0.967447 5.97087C1.01566 5.73206 1.20852 5.54102 1.44959 5.54102C1.73888 5.54102 1.93173 5.73206 1.93173 6.01863V6.06639C1.11209 12.0365 1.01566 18.5321 1.59423 24.741C1.69066 25.935 1.8353 27.1291 1.97995 28.3231C2.02816 28.5619 1.8353 28.8007 1.54602 28.8485C1.54602 28.8962 1.54602 28.8962 1.4978 28.8962Z" fill="#0353A4"/>
<path fill-rule="evenodd" clip-rule="evenodd" d="M5.49386 3.43971H9.68851C9.97779 3.43971 10.1706 3.2009 10.1706 2.9621V0.956128C10.1706 0.66956 9.97779 0.478516 9.68851 0.478516H5.49386C5.20458 0.478516 5.01172 0.66956 5.01172 0.956128V2.9621C5.01172 3.24866 5.20458 3.43971 5.49386 3.43971ZM9.25781 2.48449H6.02746V1.43374H9.25781V2.48449Z" fill="#DC493A"/>
<path fill-rule="evenodd" clip-rule="evenodd" d="M18.029 3.43971H22.2237C22.5129 3.43971 22.7058 3.2009 22.7058 2.9621V0.956128C22.7058 0.66956 22.5129 0.478516 22.2237 0.478516H18.029C17.7397 0.478516 17.5469 0.66956 17.5469 0.956128V2.9621C17.5469 3.24866 17.7397 3.43971 18.029 3.43971ZM21.793 2.48449H18.5626V1.43374H21.793V2.48449Z" fill="#DC493A"/>
<path fill-rule="evenodd" clip-rule="evenodd" d="M11.7634 2.96119H15.958C16.2473 2.96119 16.4402 2.72239 16.4402 2.48358V0.477612C16.4402 0.191045 16.2473 0 15.958 0H11.7634C11.4741 0 11.2812 0.191045 11.2812 0.477612V2.48358C11.2812 2.77015 11.4741 2.96119 11.7634 2.96119ZM15.5273 2.48358H12.297V0.955224H15.5273V2.48358Z" fill="#DC493A"/>
<path fill-rule="evenodd" clip-rule="evenodd" d="M2.4144 6.83064H24.593C25.7501 6.83064 26.7144 5.87542 26.7144 4.72915V4.58587C26.7144 3.4396 25.7501 2.48438 24.593 2.48438H2.4144C1.25725 2.48438 0.292969 3.4396 0.292969 4.58587V4.72915C0.292969 5.87542 1.25725 6.83064 2.4144 6.83064ZM1.25725 4.58587C1.25725 3.96497 1.78761 3.4396 2.4144 3.4396H24.593C25.2198 3.4396 25.7501 3.96497 25.7501 4.58587V4.72915C25.7501 5.35005 25.2198 5.87542 24.593 5.87542H2.4144C1.78761 5.87542 1.25725 5.35005 1.25725 4.72915V4.58587Z" fill="#0353A4"/>
<path fill-rule="evenodd" clip-rule="evenodd" d="M2.4144 32.0006H24.593C25.7501 32.0006 26.7144 31.0453 26.7144 29.8991V29.7558C26.7144 28.6095 25.7501 27.6543 24.593 27.6543H2.4144C1.25725 27.6543 0.292969 28.6095 0.292969 29.7558V29.8991C0.292969 31.0453 1.25725 32.0006 2.4144 32.0006ZM1.25725 29.7558C1.25725 29.1349 1.78761 28.6095 2.4144 28.6095H24.593C25.2198 28.6095 25.7501 29.1349 25.7501 29.7558V29.8991C25.7501 30.52 25.2198 31.0453 24.593 31.0453H2.4144C1.78761 31.0453 1.25725 30.52 1.25725 29.8991V29.7558Z" fill="#0353A4"/>
<path fill-rule="evenodd" clip-rule="evenodd" d="M13.5512 26.6505H13.6477H13.6959C15.6245 26.3162 16.8298 25.552 17.312 24.358C18.3245 21.9222 16.1066 18.3879 14.0334 15.57C13.937 15.4744 13.7923 15.3789 13.6477 15.3789C13.503 15.3789 13.3584 15.4267 13.262 15.57C11.1887 18.3879 8.97089 21.9222 9.98339 24.358C10.4655 25.552 11.6709 26.3162 13.5512 26.6505ZM10.9022 24.0236C10.0343 21.9698 12.3968 18.3878 13.6504 16.6684C14.9039 18.3878 17.2664 21.9698 16.4468 24.0236C16.0611 24.8833 15.145 25.4564 13.6504 25.6952C12.2039 25.4564 11.2397 24.8833 10.9022 24.0236Z" fill="#0353A4"/>
</svg>
