<svg width="24" height="20" viewBox="0 0 24 20" fill="none" xmlns="http://www.w3.org/2000/svg">
<path fill-rule="evenodd" clip-rule="evenodd" d="M7.43036 4.75098H0.75C0.335938 4.75098 0 4.41504 0 4.00098C0 3.58691 0.335938 3.25098 0.75 3.25098H7.43036C7.76593 1.95575 8.93427 0.992188 10.333 0.992188C11.7318 0.992188 12.9001 1.95575 13.2357 3.25098H23.25C23.6641 3.25098 24 3.58691 24 4.00098C24 4.41504 23.6641 4.75098 23.25 4.75098H13.2357C12.9001 6.0462 11.7318 7.00977 10.333 7.00977C8.93427 7.00977 7.76593 6.0462 7.43036 4.75098ZM11.8418 4.00098C11.8418 3.16895 11.165 2.49219 10.333 2.49219C9.50098 2.49219 8.82422 3.16895 8.82422 4.00098C8.82422 4.83301 9.50098 5.50977 10.333 5.50977C11.165 5.50977 11.8418 4.83301 11.8418 4.00098ZM23.25 9.25098H21.6439C21.3083 7.95575 20.14 6.99219 18.7412 6.99219C17.3425 6.99219 16.1741 7.95575 15.8386 9.25098H0.75C0.335938 9.25098 0 9.58691 0 10.001C0 10.415 0.335938 10.751 0.75 10.751H15.8386C16.1741 12.0462 17.3425 13.0098 18.7412 13.0098C20.14 13.0098 21.3083 12.0462 21.6439 10.751H23.25C23.6641 10.751 24 10.415 24 10.001C24 9.58691 23.6641 9.25098 23.25 9.25098ZM17.2324 10.001C17.2324 10.833 17.9092 11.5098 18.7412 11.5098C19.5732 11.5098 20.25 10.833 20.25 10.001C20.25 9.16895 19.5732 8.49219 18.7412 8.49219C17.9092 8.49219 17.2324 9.16895 17.2324 10.001ZM23.25 15.251H8.71814C8.38263 13.9557 7.21436 12.9922 5.81641 12.9922C4.41766 12.9922 3.24933 13.9557 2.91376 15.251H0.75C0.335938 15.251 0 15.5869 0 16.001C0 16.415 0.335938 16.751 0.75 16.751H2.91376C3.24933 18.0462 4.41766 19.0098 5.81641 19.0098C7.21436 19.0098 8.38263 18.0462 8.71814 16.751H23.25C23.6641 16.751 24 16.415 24 16.001C24 15.5869 23.6641 15.251 23.25 15.251ZM4.30762 16.001C4.30762 16.833 4.98438 17.5098 5.81641 17.5098C6.64746 17.5098 7.32422 16.833 7.32422 16.001C7.32422 15.1689 6.64746 14.4922 5.81641 14.4922C4.98438 14.4922 4.30762 15.1689 4.30762 16.001Z" fill="#8B8C9E"/>
</svg>
