<svg width="18" height="25" viewBox="0 0 18 25" fill="none" xmlns="http://www.w3.org/2000/svg">
<path d="M9 23L8.2686 23.682L9 24.4664L9.7314 23.682L9 23ZM0 8.7C0 10.3414 0.567358 12.1049 1.34365 13.77C2.12673 15.4497 3.1613 17.1106 4.1805 18.5681C5.2018 20.0285 6.22098 21.3036 6.98398 22.2128C7.36594 22.668 7.68486 23.0329 7.90926 23.285C8.02149 23.4111 8.11015 23.5091 8.17134 23.5761C8.20193 23.6097 8.22566 23.6355 8.24203 23.6533C8.25022 23.6621 8.25656 23.669 8.26101 23.6738C8.26324 23.6762 8.26499 23.6781 8.26626 23.6794C8.26689 23.6801 8.2674 23.6807 8.2678 23.6811C8.26799 23.6813 8.26819 23.6815 8.26829 23.6816C8.26846 23.6818 8.2686 23.682 9 23C9.7314 22.318 9.73148 22.3181 9.73153 22.3182C9.7315 22.3182 9.73152 22.3182 9.73147 22.3181C9.73138 22.318 9.73116 22.3178 9.73083 22.3174C9.73016 22.3167 9.72901 22.3155 9.72739 22.3137C9.72415 22.3102 9.71902 22.3047 9.71207 22.2972C9.69817 22.2821 9.67698 22.259 9.64898 22.2283C9.59297 22.1669 9.50976 22.075 9.40324 21.9553C9.19014 21.7159 8.88406 21.3658 8.51602 20.9272C7.77902 20.0489 6.7982 18.8215 5.8195 17.4219C4.8387 16.0194 3.87327 14.4628 3.15634 12.925C2.43264 11.3726 2 9.91863 2 8.7H0ZM9 23C9.7314 23.682 9.73154 23.6818 9.73171 23.6816C9.73181 23.6815 9.73201 23.6813 9.7322 23.6811C9.7326 23.6807 9.73311 23.6801 9.73374 23.6794C9.73501 23.6781 9.73676 23.6762 9.73899 23.6738C9.74343 23.669 9.74978 23.6621 9.75797 23.6533C9.77434 23.6355 9.79807 23.6097 9.82866 23.5761C9.88985 23.5091 9.97851 23.4111 10.0907 23.285C10.3151 23.0329 10.6341 22.668 11.016 22.2128C11.779 21.3036 12.7982 20.0285 13.8195 18.5681C14.8387 17.1106 15.8733 15.4497 16.6563 13.77C17.4326 12.1049 18 10.3414 18 8.7H16C16 9.91863 15.5674 11.3726 14.8437 12.925C14.1267 14.4628 13.1613 16.0194 12.1805 17.4219C11.2018 18.8215 10.221 20.0489 9.48398 20.9272C9.11594 21.3658 8.80986 21.7159 8.59676 21.9553C8.49024 22.075 8.40703 22.1669 8.35102 22.2283C8.32302 22.259 8.30183 22.2821 8.28793 22.2972C8.28098 22.3047 8.27585 22.3102 8.27261 22.3137C8.27099 22.3155 8.26984 22.3167 8.26917 22.3174C8.26884 22.3178 8.26862 22.318 8.26853 22.3181C8.26848 22.3182 8.2685 22.3182 8.26847 22.3182C8.26852 22.3181 8.2686 22.318 9 23ZM18 8.7C18 3.82203 13.9731 0 9 0V2C12.9412 2 16 4.99796 16 8.7H18ZM9 0C4.02694 0 0 3.82203 0 8.7H2C2 4.99796 5.05877 2 9 2V0ZM7.14286 8.7C7.14286 7.74796 7.91592 6.95 9 6.95V4.95C6.88408 4.95 5.14286 6.57203 5.14286 8.7H7.14286ZM9 6.95C10.0841 6.95 10.8571 7.74796 10.8571 8.7H12.8571C12.8571 6.57203 11.1159 4.95 9 4.95V6.95ZM10.8571 8.7C10.8571 9.65203 10.0841 10.45 9 10.45V12.45C11.1159 12.45 12.8571 10.828 12.8571 8.7H10.8571ZM9 10.45C7.91592 10.45 7.14286 9.65203 7.14286 8.7H5.14286C5.14286 10.828 6.88408 12.45 9 12.45V10.45Z" fill="#208BD6"/>
</svg>
