<svg width="20" height="21" viewBox="0 0 20 21" fill="none" xmlns="http://www.w3.org/2000/svg">
<path d="M12.7067 2.41344C12.7076 2.41344 12.7076 2.41344 12.7086 2.41344C14.0134 2.41344 15.2382 2.92047 16.1593 3.84067C17.0795 4.7618 17.5866 5.98751 17.5866 7.29328C17.5866 7.68345 17.9031 8 18.2933 8C18.6834 8 19 7.68345 19 7.29328C19.0009 5.61023 18.3467 4.02931 17.1587 2.84133C15.9707 1.65427 14.3907 1 12.7086 1C12.7076 1 12.7067 1 12.7067 1C12.3166 1 12 1.31655 12 1.70672C12 2.09688 12.3166 2.41344 12.7067 2.41344Z" fill="#208BD6"/>
<path d="M11.6878 5.3756C11.6887 5.3756 11.6887 5.3756 11.6896 5.3756C12.4741 5.3756 13.2121 5.681 13.7655 6.23446C14.3199 6.78882 14.6244 7.52678 14.6244 8.3122C14.6244 8.69192 14.9325 9 15.3122 9C15.6919 9 16 8.69192 16 8.3122C16.0009 7.15959 15.5522 6.07594 14.7381 5.26187C13.9249 4.44779 12.8422 4 11.6896 4C11.6887 4 11.6878 4 11.6878 4C11.3081 4 11 4.30808 11 4.6878C11 5.06753 11.3081 5.3756 11.6878 5.3756Z" fill="#208BD6"/>
<path fill-rule="evenodd" clip-rule="evenodd" d="M18.1383 14.7185V17.3037C18.1402 17.789 17.9375 18.2526 17.5799 18.5807C17.2223 18.9087 16.743 19.0708 16.2597 19.0271C13.608 18.739 11.0608 17.8329 8.82293 16.3816C6.74083 15.0586 4.97557 13.2933 3.65252 11.2112C2.19617 8.96314 1.28986 6.40361 1.007 3.73999C0.96346 3.25817 1.12443 2.78024 1.45059 2.42294C1.77675 2.06563 2.23807 1.86187 2.72185 1.86141H5.30705C6.17212 1.8529 6.90945 2.487 7.03052 3.34359C7.13963 4.17092 7.34199 4.98324 7.63373 5.76507C7.87048 6.39489 7.71906 7.1049 7.24595 7.58332L6.15155 8.67773C7.37828 10.8351 9.16456 12.6214 11.322 13.8481L12.4164 12.7537C12.8948 12.2806 13.6048 12.1292 14.2346 12.3659C15.0164 12.6577 15.8288 12.86 16.6561 12.9692C17.5226 13.0914 18.16 13.8436 18.1383 14.7185V14.7185Z" stroke="#208BD6" stroke-width="2" stroke-linecap="round" stroke-linejoin="round"/>
</svg>
