<svg width="64" height="64" viewBox="0 0 64 64" fill="none" xmlns="http://www.w3.org/2000/svg">
<path d="M55 32C55 44.7025 44.7025 55 32 55C19.2975 55 9 44.7025 9 32C9 19.2975 19.2975 9 32 9C44.7025 9 55 19.2975 55 32Z" stroke="#DC493A" stroke-width="2"/>
<path fill-rule="evenodd" clip-rule="evenodd" d="M24.1111 36.8889C25.4444 36.8889 26.7778 36.6667 28.1111 36.2222C28.4444 36.1111 28.8889 36.2222 29.2222 36.4444L31.6667 38.8889C34.7778 37.3333 37.3333 34.6667 39 31.5556L36.5556 29.1111C36.2222 28.7778 36.1111 28.3333 36.3333 28C36.6667 26.7778 36.8889 25.4444 36.8889 24.1111C36.8889 23.4444 37.3333 23 38 23H41.8889C42.5556 23 43 23.4444 43 24.1111C43 34.5556 34.5556 43 24.1111 43C23.4444 43 23 42.5556 23 41.8889V38C23 37.3333 23.4444 36.8889 24.1111 36.8889Z" fill="#DC493A"/>
</svg>
