<svg width="87" height="56" viewBox="0 0 87 56" fill="none" xmlns="http://www.w3.org/2000/svg">
<path fill-rule="evenodd" clip-rule="evenodd" d="M0.855469 54.2114L3.79202 47.4914H4.87892L7.81547 54.2114H6.57602L5.89908 52.6005H2.74325L2.05678 54.2114H0.855469ZM3.17123 51.5615H5.46898L4.31534 48.8926L3.17123 51.5615ZM9.55768 54.2114V49.1786H13.1235V50.1699H10.7113V54.2114H9.55768ZM14.7717 55.7364V49.1785H15.9254V50.0173C16.2972 49.493 16.8216 49.0736 17.632 49.0736C18.8238 49.0736 19.9774 50.0173 19.9774 51.7044C19.9774 53.3725 18.8333 54.3162 17.632 54.3162C16.8025 54.3162 16.2781 53.8968 15.9254 53.4297V55.7364H14.7717ZM17.364 53.3153C18.1553 53.3153 18.8036 52.6957 18.8036 51.6853C18.8036 50.713 18.1458 50.0744 17.364 50.0744C16.5822 50.0744 15.8957 50.7226 15.8957 51.7044C15.8957 52.6766 16.5822 53.3153 17.364 53.3153ZM24.2864 54.3257C22.7513 54.3257 21.6168 53.1533 21.6168 51.7044C21.6168 50.2651 22.7609 49.0736 24.3054 49.0736C25.85 49.0736 26.9846 50.2461 26.9846 51.7044C26.9846 53.1342 25.8404 54.3257 24.2864 54.3257ZM24.3048 53.3249C25.2392 53.3249 25.8303 52.591 25.8303 51.7045C25.8303 50.8181 25.1915 50.0841 24.2858 50.0841C23.3609 50.0841 22.7698 50.8085 22.7698 51.7045C22.7698 52.5815 23.4086 53.3249 24.3048 53.3249ZM32.1209 54.3257C30.1759 54.3257 28.7267 52.8102 28.7267 50.8752C28.7267 48.9783 30.1473 47.4246 32.1686 47.4246C33.3985 47.4246 34.1422 47.8536 34.781 48.4636L34.0278 49.331C33.4938 48.8354 32.9218 48.5017 32.159 48.5017C30.8815 48.5017 29.9566 49.5503 29.9566 50.8752C29.9566 52.1811 30.8815 53.2486 32.159 53.2486C32.979 53.2486 33.5034 52.915 34.0754 52.3812L34.8286 53.1438C34.1326 53.8682 33.3699 54.3257 32.1209 54.3257ZM37.7384 54.2114V50.1699H36.1175V49.1786H40.5224V50.1699H38.9015V54.2114H37.7384ZM42.1713 55.7364V49.1785H43.325V50.0173C43.6968 49.493 44.2212 49.0736 45.0316 49.0736C46.2234 49.0736 47.377 50.0173 47.377 51.7044C47.377 53.3725 46.2329 54.3162 45.0316 54.3162C44.2021 54.3162 43.6777 53.8968 43.325 53.4297V55.7364H42.1713ZM44.7636 53.3153C45.5549 53.3153 46.2032 52.6957 46.2032 51.6853C46.2032 50.713 45.5454 50.0744 44.7636 50.0744C43.9818 50.0744 43.2953 50.7226 43.2953 51.7044C43.2953 52.6766 43.9818 53.3153 44.7636 53.3153ZM51.6859 54.3257C50.1509 54.3257 49.0164 53.1533 49.0164 51.7044C49.0164 50.2651 50.1605 49.0736 51.705 49.0736C53.2496 49.0736 54.3841 50.2461 54.3841 51.7044C54.3841 53.1342 53.24 54.3257 51.6859 54.3257ZM51.7044 53.3249C52.6388 53.3249 53.2299 52.591 53.2299 51.7045C53.2299 50.8181 52.5911 50.0841 51.6853 50.0841C50.7605 50.0841 50.1694 50.8085 50.1694 51.7045C50.1694 52.5815 50.8082 53.3249 51.7044 53.3249ZM58.5922 48.5971C57.7818 48.5971 57.2193 48.0823 57.0953 47.2721L57.8008 47.1387C57.9248 47.539 58.1632 47.7868 58.5922 47.7868C59.0212 47.7868 59.2596 47.539 59.3835 47.1387L60.0795 47.2721C59.9556 48.0823 59.4026 48.5971 58.5922 48.5971ZM56.2846 54.2114V49.1786H57.4097V52.5529C58.201 51.4281 58.9924 50.3033 59.7932 49.1786H60.8801V54.2114H59.7646V50.8562L57.3716 54.2114H56.2846ZM64.8361 54.2114V48.6257H62.7195V47.5391H68.135V48.6257H66.0184V54.2114H64.8361ZM71.4138 54.3257C69.8788 54.3257 68.7442 53.1533 68.7442 51.7044C68.7442 50.2651 69.8883 49.0736 71.4329 49.0736C72.9774 49.0736 74.112 50.2461 74.112 51.7044C74.112 53.1342 72.9679 54.3257 71.4138 54.3257ZM71.4323 53.3249C72.3666 53.3249 72.9578 52.591 72.9578 51.7045C72.9578 50.8181 72.319 50.0841 71.4132 50.0841C70.4884 50.0841 69.8973 50.8085 69.8973 51.7045C69.8973 52.5815 70.5361 53.3249 71.4323 53.3249ZM76.0188 55.7364V49.1785H77.1725V50.0173C77.5443 49.493 78.0687 49.0736 78.8791 49.0736C80.0709 49.0736 81.2245 50.0173 81.2245 51.7044C81.2245 53.3725 80.0804 54.3162 78.8791 54.3162C78.0496 54.3162 77.5252 53.8968 77.1725 53.4297V55.7364H76.0188ZM78.6111 53.3153C79.4024 53.3153 80.0508 52.6957 80.0508 51.6853C80.0508 50.713 79.3929 50.0744 78.6111 50.0744C77.8293 50.0744 77.1428 50.7226 77.1428 51.7044C77.1428 52.6766 77.8293 53.3153 78.6111 53.3153ZM83.1385 54.2114V49.1786H86.7043V50.1699H84.2921V54.2114H83.1385Z" fill="#003559"/>
<path fill-rule="evenodd" clip-rule="evenodd" d="M61.6416 39.9493L61.7254 36.9744V36.6451C62.0068 36.3745 63.5808 34.8351 64.4555 33.189C65.1797 31.8262 65.419 30.2834 64.1027 30.2834C64.0508 30.2834 63.9861 30.2965 63.9085 30.3221C63.8304 30.3478 63.7526 30.3995 63.6749 30.477C63.1519 30.9338 62.3114 32.4654 61.7254 33.2154V23.4426L61.6416 20.0907C60.7672 20.1659 59.9068 20.2267 59.0605 20.2737C58.2142 20.3207 57.549 20.3443 57.0653 20.3443C56.7862 20.3443 56.5586 20.3299 56.3816 20.302C56.2049 20.2737 56.07 20.2408 55.9772 20.2031C55.9215 20.1469 55.8798 20.0813 55.8517 20.0061C55.8236 19.9309 55.7913 19.8556 55.7539 19.7808C55.7539 19.6117 55.8517 19.4617 56.047 19.3302C56.2423 19.1988 56.4516 19.1328 56.6747 19.1328H75.9286C76.1515 19.1328 76.3749 19.236 76.5979 19.4427C76.7464 19.5928 76.8214 19.7243 76.8214 19.8371C76.8026 19.9123 76.7839 19.9778 76.7656 20.0344C76.7464 20.0907 76.7095 20.1469 76.6537 20.2031C76.5792 20.2222 76.5141 20.2314 76.4583 20.2314C76.0677 20.3066 75.7512 20.3443 75.5099 20.3443C74.8031 20.3443 74.0168 20.316 73.1517 20.2597C72.2866 20.2031 71.5476 20.1469 70.9335 20.0907L70.8497 22.4848L70.8777 23.4426V36.5973L70.8497 37.6114L70.9335 39.9493H61.6416Z" fill="#003559"/>
<path fill-rule="evenodd" clip-rule="evenodd" d="M33.0298 41.0286L30.9087 35.8006H16.0982C15.4172 37.4571 14.8675 38.7597 14.4484 39.7346C14.0294 40.701 13.728 41.2182 13.5448 41.2873H13.1125C12.7195 41.2873 12.5234 40.9425 12.5234 40.2523C12.5234 40.0797 12.5495 39.8897 12.6018 39.6826C12.6544 39.4756 12.7195 39.2859 12.7982 39.1134C14.0294 36.4909 15.0765 34.265 15.9411 32.4358C17.0412 30.0548 18.0755 27.7599 19.0443 25.5515L30.3193 0.0839844L36.9501 15.3738C34.804 17.9032 33.7308 20.9031 33.7308 24.3742L33.6493 25.5853C33.6493 29.4863 35.0086 32.9167 37.7267 35.8759C40.445 38.8353 43.7653 40.5439 47.6871 41.0011L48.0733 41.0221L48.0762 41.0286H33.0298ZM16.9155 33.8853H30.1611C28.9565 30.9176 27.909 28.3986 27.0182 26.3279C26.5469 25.2239 25.4467 22.7218 23.7182 18.8223L16.9155 33.8853Z" fill="#003559"/>
<path fill-rule="evenodd" clip-rule="evenodd" d="M48.8217 39.1716L49.5218 39.2491C52.2436 39.2491 54.7186 38.7324 56.9479 37.6982C59.4103 36.5612 61.2638 35.2402 62.5598 33.0689C62.7671 32.6815 62.9225 32.3842 63.0264 32.1775C63.4261 31.4276 63.7414 31.0923 64.0265 31.0501C64.4726 30.9846 64.6365 31.695 64.4005 32.2084C63.5864 33.7127 63.5091 33.6878 62.1988 35.2972C61.1102 36.4342 60.2008 37.4658 59.1641 38.086C57.9719 38.8617 56.624 39.4559 55.1206 39.8694C53.6173 40.2829 52.0877 40.4897 50.5324 40.4897L48.3943 40.3735C44.636 39.9342 41.454 38.2928 38.8488 35.4495C36.2442 32.6066 34.9414 29.3111 34.9414 25.5633L35.0195 24.3998C35.0195 20.3161 36.5617 16.9109 39.6462 14.184C42.7305 11.4569 46.3855 10.0938 50.6105 10.0938H51.6212C53.5134 10.0938 55.3668 10.52 57.181 11.3731C58.7624 12.0969 60.3562 13.1822 61.9635 14.6298C62.4301 14.9916 62.8059 15.3857 63.091 15.8123C63.3761 16.2389 63.5188 16.5812 63.5188 16.8398C63.5188 17.2533 63.4022 17.4601 63.1687 17.4601C63.0133 17.4601 62.7928 17.3632 62.5078 17.1691C62.2228 16.9754 62.0154 16.8137 61.8858 16.6844C60.2527 14.8754 58.4901 13.5636 56.5978 12.7492C54.7059 11.9353 52.5543 11.528 50.1439 11.528H48.8217V39.1716Z" fill="#003559"/>
</svg>
