<svg width="108" height="70" viewBox="0 0 108 70" fill="none" xmlns="http://www.w3.org/2000/svg">
<path fill-rule="evenodd" clip-rule="evenodd" d="M82.5173 67.0611L82.6579 62.0675V61.5147C83.1301 61.0606 85.7715 58.4766 87.2394 55.7135C88.4547 53.426 88.8562 50.8362 86.6473 50.8362C86.5603 50.8362 86.4516 50.8581 86.3214 50.9011C86.1904 50.9442 86.0598 51.0311 85.9295 51.1612C85.0518 51.9279 83.6412 54.4989 82.6579 55.7577V39.3535L82.5173 33.727C81.0498 33.8533 79.606 33.9554 78.1858 34.0341C76.7655 34.113 75.6492 34.1527 74.8375 34.1527C74.3691 34.1527 73.9871 34.1286 73.69 34.0817C73.3936 34.0341 73.1672 33.9789 73.0115 33.9157C72.918 33.8214 72.848 33.7113 72.8008 33.585C72.7537 33.4587 72.6995 33.3325 72.6367 33.2068C72.6367 32.9231 72.8008 32.6711 73.1286 32.4504C73.4564 32.2299 73.8076 32.1191 74.1819 32.1191H106.493C106.867 32.1191 107.242 32.2923 107.616 32.6393C107.865 32.8912 107.991 33.1119 107.991 33.3013C107.96 33.4275 107.928 33.5375 107.898 33.6326C107.865 33.727 107.804 33.8214 107.71 33.9157C107.585 33.9477 107.476 33.9632 107.382 33.9632C106.727 34.0895 106.195 34.1527 105.79 34.1527C104.604 34.1527 103.285 34.1052 101.833 34.0107C100.381 33.9157 99.141 33.8214 98.1106 33.727L97.9699 37.7457L98.0169 39.3535V61.4346L97.9699 63.1367L98.1106 67.0611H82.5173Z" fill="white"/>
<path fill-rule="evenodd" clip-rule="evenodd" d="M34.5029 68.871L30.9433 60.0955H6.08888C4.94601 62.8761 4.02356 65.0626 3.32025 66.699C2.6171 68.3211 2.11133 69.1893 1.8039 69.3052H1.07836C0.418875 69.3052 0.0898438 68.7266 0.0898438 67.568C0.0898438 67.2783 0.133515 66.9594 0.22133 66.6118C0.309619 66.2641 0.418875 65.9459 0.550992 65.6563C2.6171 61.2541 4.37435 57.5178 5.82527 54.4474C7.67144 50.4508 9.4071 46.5986 11.0329 42.8916L29.9541 0.142578L41.0818 25.8077C37.4802 30.0533 35.6792 35.0889 35.6792 40.9154L35.5425 42.9484C35.5425 49.4965 37.8236 55.2546 42.385 60.2218C46.9468 65.1895 52.5187 68.0574 59.1002 68.8249L59.7483 68.8601L59.753 68.871H34.5029ZM7.46223 56.8805H29.6904C27.6689 51.899 25.911 47.6707 24.4161 44.1948C23.6253 42.3416 21.779 38.1418 18.8782 31.5962L7.46223 56.8805Z" fill="white"/>
<path fill-rule="evenodd" clip-rule="evenodd" d="M61.0044 65.7546L62.1792 65.8846C66.7467 65.8846 70.9002 65.0173 74.6413 63.2813C78.7737 61.3728 81.8841 59.1554 84.059 55.5108C84.4069 54.8605 84.6677 54.3615 84.8421 54.0145C85.5129 52.7557 86.042 52.1928 86.5203 52.1221C87.269 52.0121 87.5442 53.2046 87.148 54.0663C85.7819 56.5914 85.6521 56.5495 83.4533 59.251C81.6263 61.1596 80.1004 62.8912 78.3604 63.9323C76.3598 65.2344 74.0979 66.2317 71.5749 66.9259C69.052 67.62 66.4852 67.9671 63.8752 67.9671L60.287 67.772C53.9799 67.0347 48.6401 64.2794 44.2682 59.5067C39.8972 54.7348 37.7109 49.203 37.7109 42.9121L37.842 40.9591C37.842 34.1042 40.4301 28.3884 45.6063 23.811C50.7823 19.2335 56.916 16.9453 64.0062 16.9453H65.7023C68.8778 16.9453 71.9881 17.6608 75.0326 19.0928C77.6865 20.3078 80.3611 22.1295 83.0583 24.5594C83.8414 25.1666 84.472 25.8283 84.9505 26.5444C85.4289 27.2605 85.6683 27.835 85.6683 28.2691C85.6683 28.9632 85.4727 29.3102 85.0809 29.3102C84.8201 29.3102 84.4501 29.1477 83.9718 28.8219C83.4935 28.4967 83.1455 28.2253 82.9279 28.0082C80.1874 24.9717 77.2294 22.7698 74.0539 21.4027C70.879 20.0364 67.2683 19.3528 63.2231 19.3528H61.0044V65.7546Z" fill="white"/>
</svg>
