<svg width="108" height="70" viewBox="0 0 108 70" fill="none" xmlns="http://www.w3.org/2000/svg">
<path fill-rule="evenodd" clip-rule="evenodd" d="M82.447 67.0611L82.5876 62.0675V61.5147C83.0598 61.0606 85.7012 58.4766 87.1691 55.7135C88.3844 53.426 88.7859 50.8362 86.577 50.8362C86.49 50.8362 86.3813 50.8581 86.2511 50.9011C86.1201 50.9442 85.9896 51.0311 85.8592 51.1612C84.9815 51.9279 83.5709 54.4989 82.5876 55.7577V39.3535L82.447 33.727C80.9795 33.8533 79.5357 33.9554 78.1155 34.0341C76.6951 34.113 75.5789 34.1527 74.7672 34.1527C74.2988 34.1527 73.9167 34.1286 73.6197 34.0817C73.3233 34.0341 73.0969 33.9789 72.9412 33.9157C72.8477 33.8214 72.7777 33.7113 72.7305 33.585C72.6834 33.4587 72.6292 33.3325 72.5664 33.2068C72.5664 32.9231 72.7305 32.6711 73.0583 32.4504C73.3861 32.2299 73.7373 32.1191 74.1116 32.1191H106.423C106.797 32.1191 107.172 32.2923 107.546 32.6393C107.795 32.8912 107.921 33.1119 107.921 33.3013C107.889 33.4275 107.858 33.5375 107.827 33.6326C107.795 33.727 107.733 33.8214 107.64 33.9157C107.515 33.9477 107.405 33.9632 107.312 33.9632C106.656 34.0895 106.125 34.1527 105.72 34.1527C104.534 34.1527 103.214 34.1052 101.763 34.0107C100.311 33.9157 99.0707 33.8214 98.0403 33.727L97.8997 37.7456L97.9466 39.3535V61.4346L97.8997 63.1367L98.0403 67.0611H82.447" fill="#003559"/>
<path fill-rule="evenodd" clip-rule="evenodd" d="M34.4248 68.8711L30.8652 60.0955H6.01075C4.86789 62.8761 3.94544 65.0626 3.24213 66.699C2.53897 68.3211 2.03321 69.1893 1.72577 69.3052H1.00023C0.34075 69.3052 0.0117188 68.7266 0.0117188 67.568C0.0117188 67.2783 0.0553899 66.9594 0.143205 66.6118C0.231494 66.2641 0.34075 65.9459 0.472868 65.6563C2.53897 61.2541 4.29623 57.5178 5.74715 54.4474C7.59332 50.4508 9.32898 46.5986 10.9547 42.8916L29.876 0.142578L41.0037 25.8077C37.4021 30.0533 35.6011 35.0889 35.6011 40.9154L35.4644 42.9484C35.4644 49.4965 37.7455 55.2546 42.3069 60.2218C46.8687 65.1895 52.4406 68.0574 59.0221 68.8249L59.6702 68.8601L59.6749 68.8711H34.4248ZM7.38105 56.8804H29.6092C27.5877 51.8989 25.8298 47.6707 24.3349 44.1947C23.5441 42.3416 21.6978 38.1417 18.7971 31.5961L7.38105 56.8804V56.8804Z" fill="#003559"/>
<path fill-rule="evenodd" clip-rule="evenodd" d="M60.9302 65.7546L62.105 65.8846C66.6725 65.8846 70.826 65.0173 74.5671 63.2813C78.6994 61.3728 81.8099 59.1553 83.9848 55.5108C84.3327 54.8604 84.5935 54.3615 84.7678 54.0145C85.4387 52.7557 85.9678 52.1928 86.4461 52.1221C87.1948 52.0121 87.4699 53.2046 87.0737 54.0662C85.7076 56.5914 85.5779 56.5495 83.379 59.251C81.5521 61.1596 80.0261 62.8912 78.2862 63.9323C76.2855 65.2344 74.0236 66.2317 71.5006 66.9259C68.9778 67.62 66.411 67.9671 63.801 67.9671L60.2128 67.772C53.9057 67.0347 48.5659 64.2794 44.194 59.5067C39.823 54.7348 37.6367 49.203 37.6367 42.9121L37.7677 40.9591C37.7677 34.1042 40.3558 28.3884 45.5321 23.811C50.7081 19.2335 56.8418 16.9453 63.932 16.9453H65.628C68.8036 16.9453 71.9139 17.6608 74.9584 19.0928C77.6122 20.3078 80.2869 22.1295 82.9841 24.5594C83.7672 25.1666 84.3978 25.8283 84.8763 26.5444C85.3546 27.2604 85.5941 27.835 85.5941 28.2691C85.5941 28.9632 85.3985 29.3102 85.0067 29.3102C84.7459 29.3102 84.3759 29.1477 83.8976 28.8219C83.4192 28.4967 83.0713 28.2253 82.8537 28.0082C80.1132 24.9717 77.1552 22.7698 73.9796 21.4027C70.8047 20.0364 67.1941 19.3528 63.1489 19.3528H60.9302V65.7546" fill="#003559"/>
</svg>
