<svg width="72" height="72" viewBox="0 0 72 72" fill="none" xmlns="http://www.w3.org/2000/svg">
<path fill-rule="evenodd" clip-rule="evenodd" d="M57.9114 59.4355C57.2583 59.4355 56.8229 59.8725 56.8229 60.5281V68.176C56.8229 69.1593 55.952 69.9241 54.7546 69.9241H4.24539C3.15683 69.9241 2.17712 69.1593 2.17712 68.176V14.0941C2.17712 13.1108 3.15683 12.346 4.24539 12.346H13.7159V15.5144C13.7159 16.17 14.1513 16.607 14.8044 16.607H44.0867C44.7399 16.607 45.1753 16.17 45.1753 15.5144V12.346H54.7546C55.8432 12.346 56.8229 13.1108 56.8229 14.0941V18.9014C56.8229 19.5569 57.2583 19.9939 57.9114 19.9939C58.5646 19.9939 59 19.5569 59 18.9014V14.0941C59 11.909 57.1494 10.1608 54.7546 10.1608H45.1753V7.53869C45.1753 6.88316 44.7399 6.44613 44.0867 6.44613H39.9502V5.57208C39.9502 2.5129 37.2288 0 33.8542 0H25.1458C21.7712 0 19.0498 2.5129 19.0498 5.57208V6.33687H14.9133C14.2601 6.33687 13.8247 6.7739 13.8247 7.42944V10.0516H4.24539C1.95941 10.0516 0 11.7997 0 13.9848V68.0668C0 70.2519 1.85055 72 4.24539 72H54.7546C57.0406 72 59 70.2519 59 68.0668V60.4188C59 59.8725 58.4557 59.4355 57.9114 59.4355ZM21.2269 5.57208C21.2269 3.71472 22.9686 2.18513 25.1458 2.18513H33.8542C36.0314 2.18513 37.7731 3.71472 37.7731 5.57208V6.33687H21.2269V5.57208ZM42.9982 14.5311V8.63126H15.893V14.5311H42.9982Z" fill="white"/>
<path d="M25.9326 20H9.06742C8.42697 20 8 20.4444 8 21.1111V38.8889C8 39.5556 8.42697 40 9.06742 40H25.9326C26.573 40 27 39.5556 27 38.8889V32.8889C27 32.2222 26.573 31.7778 25.9326 31.7778C25.2921 31.7778 24.8652 32.2222 24.8652 32.8889V37.7778H10.1348V22.2222H25.9326C26.573 22.2222 27 21.7778 27 21.1111C27 20.5556 26.573 20 25.9326 20Z" fill="white"/>
<path d="M18.1403 32.2648L15.9844 27.5921C15.7689 27.0223 15.1221 26.7943 14.5831 27.1362C14.0441 27.3642 13.8286 28.048 14.1519 28.6178L16.9546 34.4302C17.0624 34.7721 17.3858 35 17.7092 35C17.8169 35 17.9247 35 17.9247 35C18.1403 35 18.3559 34.886 18.5715 34.7721L28.5964 27.0223C29.0276 26.6804 29.1354 25.9966 28.812 25.4267C28.4886 24.9709 27.8418 24.8569 27.3028 25.1988L18.1403 32.2648Z" fill="white"/>
<path d="M39.9318 47.0687C39.3933 46.8495 38.7471 47.1782 38.5317 47.7262L33.0388 64.1644C32.9311 64.6028 33.0388 65.1507 33.4697 65.4795C33.9005 65.6986 34.439 65.6986 34.7621 65.3699L38.7471 61.6439L39.7164 67.1233C39.8241 67.5616 40.1472 68 40.6858 68C41.1166 68 41.6551 67.7808 41.7628 67.2329L46.9325 52.3289C47.1479 51.7809 46.8248 51.1234 46.2863 50.9042C45.7478 50.6851 45.1016 51.0138 44.8862 51.5618L41.0089 62.5206L40.4704 59.2329C40.3626 58.7946 40.1472 58.4658 39.7164 58.3562C39.3933 58.2466 38.9625 58.3562 38.6394 58.5754L36.2699 60.7672L40.5781 48.3837C40.7935 47.8358 40.4704 47.1782 39.9318 47.0687Z" fill="white"/>
<path d="M71.885 63.8093L65.2511 47.6799C65.0299 47.1313 64.3665 46.8022 63.8137 47.1313C63.2609 47.3508 62.9292 48.0091 63.2609 48.5577L68.2363 60.737L65.6933 58.6523C65.3616 58.4328 64.9194 58.3231 64.5877 58.5425C64.256 58.6523 63.9243 58.9814 63.9243 59.4203L63.5926 62.6023L59.17 51.63C58.9489 51.0814 58.2855 50.7522 57.7327 50.9716C57.1798 51.1911 56.8481 51.8494 57.0693 52.398L63.1503 67.3204C63.3715 67.7593 63.8137 68.0885 64.3665 67.9787C64.9194 67.869 65.2511 67.5398 65.3616 66.9912L66.025 61.5051L70.337 65.0162C70.7793 65.3454 71.3321 65.3454 71.6638 65.0162C71.9955 64.7968 72.1061 64.2481 71.885 63.8093Z" fill="white"/>
<path fill-rule="evenodd" clip-rule="evenodd" d="M52 45C46.5055 45 42 40.4945 42 35C42 29.5055 46.5055 25 52 25C57.4945 25 62 29.5055 62 35C62 40.4945 57.4945 45 52 45ZM52.1099 42.8022C56.3956 42.8022 59.9121 39.2857 59.9121 35C59.9121 30.7143 56.3956 27.1978 52.1099 27.1978C47.8242 27.1978 44.3077 30.7143 44.3077 35C44.3077 39.2857 47.8242 42.8022 52.1099 42.8022Z" fill="white"/>
<path fill-rule="evenodd" clip-rule="evenodd" d="M51.7302 18C51.946 18 52.2698 18.1086 52.4857 18.3259L55.7238 21.5847L60.2571 20.607C60.581 20.4984 60.9048 20.607 61.1206 20.7157C61.3365 20.8243 61.4444 21.0415 61.5524 21.3674L62.3079 24.9521L65.9778 25.8211C66.5175 25.9297 66.8413 26.5815 66.7333 27.1246L65.7619 31.0351L68.6762 33.8594C69.1079 34.2939 69.1079 34.9457 68.6762 35.3802L65.4381 38.7476L66.4095 43.3099C66.5175 43.853 66.0857 44.5048 65.546 44.6134L61.9841 45.3738L61.1206 48.9585C61.0127 49.1757 60.7968 49.5016 60.581 49.6102C60.5391 49.6243 60.4991 49.6383 60.4604 49.6518C60.1996 49.7433 59.9994 49.8134 59.7175 49.7188L55.8317 48.7412L53.0254 51.6741C52.8095 51.8914 52.5937 52 52.2698 52C51.946 52 51.7302 51.8914 51.5143 51.6741L48.1683 48.4153L43.6349 49.393C43.3111 49.5016 42.9873 49.393 42.7714 49.2843C42.5556 49.1757 42.4476 48.9585 42.3397 48.6326L41.5841 45.0479L38.0222 44.1789C37.4825 44.0703 37.1587 43.4185 37.2667 42.8754L38.2381 38.9649L35.3238 36.1406C34.8921 35.7061 34.8921 35.0543 35.3238 34.6198L38.5619 31.2524L37.5905 26.6901C37.4825 26.147 37.9143 25.4952 38.454 25.3866L42.0159 24.6262L42.8794 21.0415C42.9873 20.8243 43.2032 20.4984 43.419 20.3898C43.4609 20.3757 43.5009 20.3617 43.5396 20.3482C43.8004 20.2567 44.0006 20.1866 44.2825 20.2812L48.1683 21.2588L50.9746 18.3259C51.1905 18.1086 51.4063 18 51.7302 18ZM61.1206 26.9073C60.7968 26.7987 60.473 26.4728 60.3651 26.0383L59.7175 22.8882L55.7238 23.7572C55.4 23.7572 54.9683 23.6486 54.7524 23.4313L51.8381 20.4984L49.3556 23.1054C49.0317 23.4313 48.6 23.5399 48.2762 23.4313L44.8222 22.5623L44.0667 25.7125C43.9587 26.0383 43.6349 26.3642 43.2032 26.4728L40.073 27.1246L40.9365 31.1438C40.9365 31.4696 40.8286 31.9042 40.6127 32.1214L37.6984 35.0543L40.2889 37.5527C40.6127 37.8786 40.7206 38.3131 40.6127 38.639L39.7492 42.115L42.8794 42.8754C43.2032 42.984 43.527 43.3099 43.6349 43.7444L44.2825 46.8946L48.2762 46.0256H48.4921C48.8159 46.0256 49.0317 46.1342 49.2476 46.3514L52.1619 49.2843L54.6444 46.6773C54.9683 46.3514 55.2921 46.2428 55.7238 46.3514L59.1778 47.2204L59.9333 44.0703C60.0413 43.7444 60.3651 43.4185 60.7968 43.3099L63.927 42.6581L63.0635 38.639C63.0635 38.3131 63.1714 37.8786 63.3873 37.6613L66.3016 34.7284L63.7111 32.23C63.3873 31.9042 63.2794 31.4696 63.3873 31.1438L64.2508 27.6677L61.1206 26.9073Z" fill="white"/>
<path d="M47.1868 35.1013L50.1845 39.5443C50.3986 39.7722 50.6127 40 50.9339 40C50.9339 40 50.9339 40 51.041 40C51.3622 40 51.5763 39.8861 51.7904 39.6582L57.6788 32.9367C58.1071 32.481 58.1071 31.7975 57.6788 31.3418C57.2506 30.8861 56.6082 30.8861 56.1799 31.3418L51.148 37.038L48.8997 33.7342C48.5786 33.2785 47.8291 33.1646 47.4009 33.5063C46.9726 33.962 46.8656 34.6456 47.1868 35.1013Z" fill="white"/>
<path d="M5 47C5 47.6 5.4329 48 6.08225 48H28.9177C29.5671 48 30 47.6 30 47C30 46.4 29.5671 46 28.9177 46H6.08225C5.54113 46 5 46.4 5 47Z" fill="white"/>
<path d="M7.08225 55H29.9177C30.5671 55 31 54.6 31 54C31 53.4 30.5671 53 29.9177 53H7.08225C6.4329 53 6 53.4 6 54C6 54.6 6.4329 55 7.08225 55Z" fill="white"/>
<path d="M7.08225 63H29.9177C30.5671 63 31 62.6 31 62C31 61.4 30.5671 61 29.9177 61H7.08225C6.4329 61 6 61.4 6 62C6 62.6 6.54113 63 7.08225 63Z" fill="white"/>
</svg>
