<svg width="72" height="72" viewBox="0 0 72 72" fill="none" xmlns="http://www.w3.org/2000/svg">
<path fill-rule="evenodd" clip-rule="evenodd" d="M49 38.3008V55.0008C53 55.7008 56 59.1008 56 63.3008C56 67.9008 52.2 71.7008 47.6 71.7008H8.4C3.8 71.7008 0 67.9008 0 63.3008C0 58.7008 3.8 54.9008 8.4 54.9008H34.2V38.3008C34.2 37.7008 34.6 37.3008 35.2 37.3008H48C48.6 37.3008 49 37.7008 49 38.3008ZM43 42.0008V39.3008H40.3V42.0008H43ZM36.2 39.3008H38.3V43.0008C38.3 43.6008 38.7 44.0008 39.3 44.0008H44C44.6 44.0008 45 43.6008 45 43.0008V39.3008H47V54.9008H36.2V39.3008ZM8.4 69.7008H47.6C51.1 69.7008 54 66.8008 54 63.3008C54 59.8008 51.1 56.9008 47.6 56.9008H8.4C4.9 56.9008 2 59.8008 2 63.3008C2 66.8008 4.9 69.7008 8.4 69.7008Z" fill="#0353A4"/>
<mask id="path-2-inside-1" fill="white">
<path d="M38 37H45V43C45 43.5523 44.5523 44 44 44H39C38.4477 44 38 43.5523 38 43V37Z"/>
</mask>
<path d="M38 37H45V43C45 43.5523 44.5523 44 44 44H39C38.4477 44 38 43.5523 38 43V37Z" fill="white" stroke="#DC493A" stroke-width="4" mask="url(#path-2-inside-1)"/>
<path fill-rule="evenodd" clip-rule="evenodd" d="M6.89844 63.2C6.89844 60.9 8.79844 59 11.0984 59C13.3984 59 15.2984 60.9 15.2984 63.2C15.2984 65.5 13.3984 67.4 11.0984 67.4C8.79844 67.4 6.89844 65.5 6.89844 63.2ZM8.89844 63.3C8.89844 64.5 9.89844 65.5 11.0984 65.5C12.2984 65.5 13.2984 64.5 13.2984 63.3C13.2984 62.1 12.2984 61.1 11.0984 61.1C9.89844 61.1 8.89844 62.1 8.89844 63.3Z" fill="#DC493A"/>
<path fill-rule="evenodd" clip-rule="evenodd" d="M18.3984 63.2C18.3984 60.9 20.2984 59 22.5984 59C24.8984 59 26.7984 60.9 26.7984 63.2C26.7984 65.5 24.8984 67.4 22.5984 67.4C20.2984 67.4 18.3984 65.5 18.3984 63.2ZM20.3984 63.3C20.3984 64.5 21.3984 65.5 22.5984 65.5C23.7984 65.5 24.7984 64.5 24.7984 63.3C24.7984 62.1 23.7984 61.1 22.5984 61.1C21.3984 61.1 20.3984 62.1 20.3984 63.3Z" fill="#DC493A"/>
<path fill-rule="evenodd" clip-rule="evenodd" d="M29.8008 63.2C29.8008 60.9 31.7008 59 34.0008 59C36.3008 59 38.2008 60.9 38.2008 63.2C38.2008 65.5 36.3008 67.4 34.0008 67.4C31.7008 67.4 29.8008 65.5 29.8008 63.2ZM31.8008 63.3C31.8008 64.5 32.8008 65.5 34.0008 65.5C35.2008 65.5 36.2008 64.5 36.2008 63.3C36.2008 62.1 35.2008 61.1 34.0008 61.1C32.8008 61.1 31.8008 62.1 31.8008 63.3Z" fill="#DC493A"/>
<path fill-rule="evenodd" clip-rule="evenodd" d="M41.6992 63.2C41.6992 60.9 43.5992 59 45.8992 59C48.1992 59 50.0992 60.9 50.0992 63.2C50.0992 65.5 48.1992 67.4 45.8992 67.4C43.5992 67.4 41.6992 65.5 41.6992 63.2ZM43.6992 63.3C43.6992 64.5 44.6992 65.5 45.8992 65.5C47.0992 65.5 48.0992 64.5 48.0992 63.3C48.0992 62.1 47.0992 61.1 45.8992 61.1C44.6992 61.1 43.6992 62.1 43.6992 63.3Z" fill="#DC493A"/>
<path fill-rule="evenodd" clip-rule="evenodd" d="M5.79844 41.5008C5.49844 41.5008 5.19844 41.3008 4.99844 41.1008L1.09844 36.4008C0.998438 36.3008 0.898438 36.0008 0.898438 35.8008V23.9008C0.898438 23.5008 1.09844 23.2008 1.39844 23.0008L11.1984 17.4008C11.0984 17.1008 11.0984 16.9008 11.0984 16.6008C11.0984 15.3008 11.5984 14.1008 12.3984 13.2008V6.30078C12.3984 5.70078 12.7984 5.30078 13.3984 5.30078H19.2984C19.8984 5.30078 20.2984 5.70078 20.2984 6.30078V13.2008C21.0984 14.1008 21.5984 15.3008 21.5984 16.6008C21.5984 17.0008 21.5984 17.3008 21.4984 17.6008L31.2984 23.1008C31.5984 23.3008 31.7984 23.6008 31.7984 24.0008V36.0008C31.7984 36.2008 31.6984 36.4008 31.5984 36.6008L27.6984 41.3008C27.4984 41.6008 27.1984 41.7008 26.8984 41.7008H26.6984V47.7008C26.6984 48.3008 26.2984 48.7008 25.6984 48.7008H6.79844C6.19844 48.7008 5.79844 48.3008 5.79844 47.7008V41.5008ZM7.79844 37.6116V46.6008H24.6984V37.6087V28.8008H19.8984V33.1008C19.8984 33.7008 19.4984 34.1008 18.8984 34.1008H13.5984C12.9984 34.1008 12.5984 33.7008 12.5984 33.1008V28.8008H7.79844V37.6116ZM14.5984 28.8008H17.8984V32.1008H14.5984V28.8008ZM19.5984 16.7008C19.5984 14.9008 18.0984 13.4008 16.2984 13.4008C14.5984 13.4008 12.9984 14.9008 12.9984 16.7008C12.9984 18.5008 14.4984 20.0008 16.2984 20.0008C18.0984 20.0008 19.5984 18.5008 19.5984 16.7008ZM18.2984 7.30078V11.8008C17.6984 11.6008 16.9984 11.4008 16.2984 11.4008C15.5984 11.4008 14.9984 11.5008 14.2984 11.8008V7.30078H18.2984ZM11.8984 19.4008L2.89844 24.5008V35.4008L5.79844 38.9008V37.6038V27.8008C5.79844 27.2008 6.19844 26.8008 6.79844 26.8008H13.5984H18.8984H25.6984C26.2984 26.8008 26.6984 27.2008 26.6984 27.8008V37.5638V39.2008L29.7984 35.5008V24.6008L20.7984 19.5008C19.8984 20.9008 18.2984 21.9008 16.3984 21.9008C14.4984 21.9008 12.7984 20.9008 11.8984 19.4008Z" fill="#0353A4"/>
<mask id="path-8-inside-2" fill="white">
<path d="M13 27H20V33C20 33.5523 19.5523 34 19 34H14C13.4477 34 13 33.5523 13 33V27Z"/>
</mask>
<path d="M13 27H20V33C20 33.5523 19.5523 34 19 34H14C13.4477 34 13 33.5523 13 33V27Z" fill="white" stroke="#DC493A" stroke-width="4" mask="url(#path-8-inside-2)"/>
</svg>
