<svg width="72" height="72" viewBox="0 0 72 72" fill="none" xmlns="http://www.w3.org/2000/svg">
<path d="M10.8811 72.0002H37.4795V69.5892H10.8811C6.21433 69.5892 2.41803 65.804 2.41803 61.1509C2.41803 56.4977 6.21433 52.7125 10.8811 52.7125H18.1352V50.3016H10.8811C7.46446 50.3016 4.41411 51.8831 2.41803 54.3471V17.7536C2.41803 13.1005 6.21433 9.31526 10.8811 9.31526H15.7172V6.9043H10.8811C4.882 6.9043 0 11.772 0 17.7536V61.1509C0 67.1325 4.882 72.0002 10.8811 72.0002Z" fill="white"/>
<path fill-rule="evenodd" clip-rule="evenodd" d="M13.8084 67.068C10.5454 67.068 7.89062 64.4133 7.89062 61.1502C7.89062 57.8872 10.5454 55.2324 13.8084 55.2324C17.0715 55.2324 19.7262 57.8872 19.7262 61.1502C19.7262 64.4133 17.0715 67.068 13.8084 67.068ZM13.8084 64.7009C15.766 64.7009 17.3591 63.1078 17.3591 61.1502C17.3591 59.1926 15.766 57.5995 13.8084 57.5995C11.8508 57.5995 10.2577 59.1926 10.2577 61.1502C10.2577 63.1078 11.8508 64.7009 13.8084 64.7009Z" fill="white"/>
<path fill-rule="evenodd" clip-rule="evenodd" d="M34.5192 61.1502C34.5192 64.4133 31.8645 67.068 28.6014 67.068C25.3383 67.068 22.6836 64.4133 22.6836 61.1502C22.6836 57.8872 25.3383 55.2324 28.6014 55.2324C31.8645 55.2324 34.5192 57.8872 34.5192 61.1502ZM32.1521 61.1502C32.1521 59.1926 30.559 57.5995 28.6014 57.5995C26.6438 57.5995 25.0507 59.1926 25.0507 61.1502C25.0507 63.1078 26.6438 64.7009 28.6014 64.7009C30.559 64.7009 32.1521 63.1078 32.1521 61.1502Z" fill="white"/>
<path fill-rule="evenodd" clip-rule="evenodd" d="M37.4805 61.1502C37.4805 57.8872 40.1352 55.2324 43.3983 55.2324C46.6614 55.2324 49.3161 57.8872 49.3161 61.1502C49.3161 64.4133 46.6614 67.068 43.3983 67.068C40.1352 67.068 37.4805 64.4133 37.4805 61.1502ZM39.8476 61.1502C39.8476 63.1078 41.4407 64.7009 43.3983 64.7009C45.3559 64.7009 46.949 63.1078 46.949 61.1502C46.949 59.1926 45.3559 57.5995 43.3983 57.5995C41.4407 57.5995 39.8476 59.1926 39.8476 61.1502Z" fill="white"/>
<path fill-rule="evenodd" clip-rule="evenodd" d="M57.2069 55.2324C60.4699 55.2324 63.1247 57.8872 63.1247 61.1502C63.1247 64.4133 60.4699 67.068 57.2069 67.068C53.9438 67.068 51.2891 64.4133 51.2891 61.1502C51.2891 57.8872 53.9438 55.2324 57.2069 55.2324ZM57.2069 57.5995C55.2493 57.5995 53.6562 59.1926 53.6562 61.1502C53.6562 63.1078 55.2493 64.7009 57.2069 64.7009C59.1645 64.7009 60.7576 63.1078 60.7576 61.1502C60.7576 59.1926 59.1645 57.5995 57.2069 57.5995Z" fill="white"/>
<rect x="20.7109" y="50.3008" width="1.9726" height="1.9726" fill="white"/>
<rect x="25.6445" y="50.3008" width="1.9726" height="1.9726" fill="white"/>
<rect x="30.5742" y="50.3008" width="1.9726" height="1.9726" fill="white"/>
<rect x="34.5195" y="50.3008" width="1.9726" height="1.9726" fill="white"/>
<rect x="49.3164" y="70.0273" width="1.9726" height="1.9726" fill="white"/>
<rect x="44.3828" y="70.0273" width="1.9726" height="1.9726" fill="white"/>
<rect x="39.4531" y="70.0273" width="1.9726" height="1.9726" fill="white"/>
<path d="M61.1734 6.9043H22.6836V9.31526H61.1734C65.8162 9.31526 69.593 13.1005 69.593 17.7536V54.3471C67.6072 51.8831 64.5725 50.3016 61.1734 50.3016H39.5229V52.7125H61.1734C65.8162 52.7125 69.593 56.4977 69.593 61.1509C69.593 65.804 65.8162 69.5892 61.1734 69.5892H53.9566V72.0002H61.1734C67.1417 72.0002 71.9987 67.1325 71.9987 61.1509V17.7536C71.9987 11.772 67.1417 6.9043 61.1734 6.9043Z" fill="white"/>
<path fill-rule="evenodd" clip-rule="evenodd" d="M47.1771 46.3569C47.8122 46.3569 48.3278 45.811 48.3278 45.1385V32.9548V26.8629C48.3278 26.1904 47.8122 25.6445 47.1771 25.6445H35.6702C35.035 25.6445 34.5195 26.1904 34.5195 26.8629V32.9548V45.1385C34.5195 45.811 35.035 46.3569 35.6702 46.3569H47.1771ZM46.0264 43.9201H36.8209V34.1731H46.0264V43.9201ZM46.0264 28.0813H36.8209V31.7364H46.0264V28.0813Z" fill="white"/>
<path fill-rule="evenodd" clip-rule="evenodd" d="M63.9466 46.3569C64.5818 46.3569 65.0973 45.811 65.0973 45.1385V32.9548V26.8629C65.0973 26.1904 64.5818 25.6445 63.9466 25.6445H52.4397C51.8046 25.6445 51.2891 26.1904 51.2891 26.8629V32.9548V45.1385C51.2891 45.811 51.8046 46.3569 52.4397 46.3569H63.9466ZM62.7959 43.9201H53.5904V34.1731H62.7959V43.9201ZM62.7959 28.0813H53.5904V31.7364H62.7959V28.0813Z" fill="white"/>
<path fill-rule="evenodd" clip-rule="evenodd" d="M17.9982 15.3863V0H20.464V15.3863H25.3955C25.7222 15.3863 26.0366 15.5106 26.2671 15.7331L31.1986 20.4673C31.4304 20.6887 31.5599 20.9905 31.5599 21.3041V30.7726C31.5599 31.1454 31.3774 31.4969 31.0667 31.7195L26.6284 34.9151V40.2411C26.6284 40.8944 26.076 41.4247 25.3955 41.4247H13.0667C12.3862 41.4247 11.8339 40.8944 11.8339 40.2411V34.9151L7.39549 31.7195C7.08481 31.4958 6.90234 31.1454 6.90234 30.7726V21.3041C6.90234 20.9905 7.0318 20.6887 7.26358 20.4673L12.1951 15.7331C12.4256 15.5106 12.74 15.3863 13.0667 15.3863H17.9982ZM14.2996 27.2219H24.1626V23.6712H14.2996V27.2219ZM24.1626 39.0575H14.2996V34.3233V29.589H24.1626V34.3233V39.0575ZM29.0941 30.1808V21.7941L24.8851 17.7534H13.5784L9.3681 21.7941V30.1808L11.8339 31.9562V28.4055V22.4877C11.8339 21.8343 12.3862 21.3041 13.0667 21.3041H25.3955C26.076 21.3041 26.6284 21.8343 26.6284 22.4877V28.4055V31.9562L29.0941 30.1808Z" fill="white"/>
</svg>
