<svg width="72" height="72" viewBox="0 0 72 72" fill="none" xmlns="http://www.w3.org/2000/svg">
<path d="M54.2992 35.8008H1.69922C1.09922 35.8008 0.699219 35.4008 0.699219 34.8008C0.699219 34.2008 1.09922 33.8008 1.69922 33.8008H54.2992C54.8992 33.8008 55.2992 34.2008 55.2992 34.8008C55.2992 35.3008 54.7992 35.8008 54.2992 35.8008Z" fill="#DC493A"/>
<path d="M53.9 28.6992H2C1.4 28.6992 1 28.2992 1 27.6992C1 27.0992 1.4 26.6992 2 26.6992H53.9C54.5 26.6992 54.9 27.0992 54.9 27.6992C54.9 28.1992 54.4 28.6992 53.9 28.6992Z" fill="#DC493A"/>
<path d="M52.8981 65.5009H52.7981C52.2981 65.4009 51.8981 64.9009 51.8981 64.4009C53.8981 49.3009 53.8981 33.6009 51.8981 17.8009C51.7981 17.3009 52.1981 16.8009 52.7981 16.7009C53.2981 16.6009 53.7981 17.0009 53.8981 17.6009C55.9981 33.6009 55.9981 49.4009 53.8981 64.7009C53.7981 65.2009 53.3981 65.5009 52.8981 65.5009Z" fill="#0353A4"/>
<path d="M51.8977 72.0008H4.09766C3.59766 72.0008 3.19766 71.7008 3.09766 71.2008C3.09766 71.1008 3.09766 71.0008 3.09766 70.8008C3.09766 70.2008 3.49766 69.8008 4.09766 69.8008C4.29766 69.8008 4.49766 69.9008 4.69766 70.0008H51.4977C51.6977 69.9008 51.8977 69.8008 52.0977 69.8008C52.6977 69.8008 53.0977 70.3008 53.0977 70.8008C53.0977 70.9008 53.0977 71.0008 53.0977 71.1008C52.7977 71.7008 52.3977 72.0008 51.8977 72.0008Z" fill="#292D78"/>
<path d="M3.9998 12.2996C3.8998 12.2996 3.8998 12.2996 3.7998 12.2996C3.2998 12.1996 2.8998 11.6996 2.9998 11.0996L3.9998 11.2996L2.9998 10.9996V10.8996C3.0998 10.3996 3.4998 10.0996 3.9998 10.0996H51.8998C52.3998 10.0996 52.7998 10.3996 52.8998 10.8996C52.8998 10.9996 52.8998 11.0996 52.8998 11.1996C52.8998 11.7996 52.4998 12.1996 51.8998 12.1996C51.6998 12.1996 51.4998 12.0996 51.3998 11.9996H4.5998C4.3998 12.2996 4.1998 12.2996 3.9998 12.2996Z" fill="#292D78"/>
<path d="M3.09889 65.4996C2.59889 65.4996 2.19889 65.0996 2.09889 64.5996C1.79889 62.0996 1.49889 59.4996 1.29889 56.9996C0.0988885 43.7996 0.298888 30.0996 1.99889 17.4996C2.09889 16.9996 2.49889 16.5996 2.99889 16.5996C3.59889 16.5996 3.99889 16.9996 3.99889 17.5996V17.6996C2.29889 30.1996 2.09889 43.7996 3.29889 56.7996C3.49889 59.2996 3.79889 61.7996 4.09889 64.2996C4.19889 64.7996 3.79889 65.2996 3.19889 65.3996C3.19889 65.4996 3.19889 65.4996 3.09889 65.4996Z" fill="#0353A4"/>
<path fill-rule="evenodd" clip-rule="evenodd" d="M11.3984 12.2H20.0984C20.6984 12.2 21.0984 11.7 21.0984 11.2V7C21.0984 6.4 20.6984 6 20.0984 6H11.3984C10.7984 6 10.3984 6.4 10.3984 7V11.2C10.3984 11.8 10.7984 12.2 11.3984 12.2ZM19.1984 10.2H12.4984V8H19.1984V10.2Z" fill="#DC493A"/>
<path fill-rule="evenodd" clip-rule="evenodd" d="M37.3984 12.2H46.0984C46.6984 12.2 47.0984 11.7 47.0984 11.2V7C47.0984 6.4 46.6984 6 46.0984 6H37.3984C36.7984 6 36.3984 6.4 36.3984 7V11.2C36.3984 11.8 36.7984 12.2 37.3984 12.2ZM45.1984 10.2H38.4984V8H45.1984V10.2Z" fill="#DC493A"/>
<path fill-rule="evenodd" clip-rule="evenodd" d="M24.3984 11.2H33.0984C33.6984 11.2 34.0984 10.7 34.0984 10.2V6C34.0984 5.4 33.6984 5 33.0984 5H24.3984C23.7984 5 23.3984 5.4 23.3984 6V10.2C23.3984 10.8 23.7984 11.2 24.3984 11.2ZM32.1984 10.2H25.4984V7H32.1984V10.2Z" fill="#DC493A"/>
<path fill-rule="evenodd" clip-rule="evenodd" d="M4.99766 19.2992H50.9977C53.3977 19.2992 55.3977 17.2992 55.3977 14.8992V14.5992C55.3977 12.1992 53.3977 10.1992 50.9977 10.1992H4.99766C2.59766 10.1992 0.597656 12.1992 0.597656 14.5992V14.8992C0.597656 17.2992 2.59766 19.2992 4.99766 19.2992ZM2.59766 14.5992C2.59766 13.2992 3.69766 12.1992 4.99766 12.1992H50.9977C52.2977 12.1992 53.3977 13.2992 53.3977 14.5992V14.8992C53.3977 16.1992 52.2977 17.2992 50.9977 17.2992H4.99766C3.69766 17.2992 2.59766 16.1992 2.59766 14.8992V14.5992Z" fill="#0353A4"/>
<path fill-rule="evenodd" clip-rule="evenodd" d="M4.99766 72.0004H50.9977C53.3977 72.0004 55.3977 70.0004 55.3977 67.6004V67.3004C55.3977 64.9004 53.3977 62.9004 50.9977 62.9004H4.99766C2.59766 62.9004 0.597656 64.9004 0.597656 67.3004V67.6004C0.597656 70.0004 2.59766 72.0004 4.99766 72.0004ZM2.59766 67.3004C2.59766 66.0004 3.69766 64.9004 4.99766 64.9004H50.9977C52.2977 64.9004 53.3977 66.0004 53.3977 67.3004V67.6004C53.3977 68.9004 52.2977 70.0004 50.9977 70.0004H4.99766C3.69766 70.0004 2.59766 68.9004 2.59766 67.6004V67.3004Z" fill="#0353A4"/>
<path fill-rule="evenodd" clip-rule="evenodd" d="M28.1004 60.7992H28.3004H28.4004C32.4004 60.0992 34.9004 58.4992 35.9004 55.9992C38.0004 50.8992 33.4004 43.4992 29.1004 37.5992C28.9004 37.3992 28.6004 37.1992 28.3004 37.1992C28.0004 37.1992 27.7004 37.2992 27.5004 37.5992C23.2004 43.4992 18.6004 50.8992 20.7004 55.9992C21.7004 58.4992 24.2004 60.0992 28.1004 60.7992ZM22.6004 55.2992C20.8004 50.9992 25.7004 43.4992 28.3004 39.8992C30.9004 43.4992 35.8004 50.9992 34.1004 55.2992C33.3004 57.0992 31.4004 58.2992 28.3004 58.7992C25.3004 58.2992 23.3004 57.0992 22.6004 55.2992Z" fill="#0353A4"/>
</svg>
