<svg width="73" height="73" viewBox="0 0 73 73" fill="none" xmlns="http://www.w3.org/2000/svg">
<path d="M68 65.9H62.9C62.3 65.9 61.9 65.5 61.9 64.9C61.9 64.3 62.3 63.9 62.9 63.9H67V59.3C67 57.2 65.3 55.5 63.2 55.5H8.8C6.7 55.5 5 57.2 5 59.3V63.9H9.1C9.7 63.9 10.1 64.3 10.1 64.9C10.1 65.5 9.7 65.9 9.1 65.9H4C3.4 65.9 3 65.5 3 64.9V59.3C3 56.1 5.6 53.5 8.8 53.5H63.1C66.3 53.5 68.9 56.1 68.9 59.3V64.9C69 65.5 68.6 65.9 68 65.9Z" fill="white"/>
<path d="M52 65.9004H20C19.4 65.9004 19 65.5004 19 64.9004C19 64.3004 19.4 63.9004 20 63.9004H52C52.6 63.9004 53 64.3004 53 64.9004C53 65.5004 52.5 65.9004 52 65.9004Z" fill="white"/>
<path fill-rule="evenodd" clip-rule="evenodd" d="M8 65.5C8 69.1 11 72 14.5 72C18.1 72 21 69.1 21 65.5C21 61.9 18 59 14.5 59C11 59 8 61.9 8 65.5ZM10 65.5C10 63 12.1 61 14.5 61C17 61 19 63 19 65.5C19 68 17 70 14.5 70C12 70 10 68 10 65.5Z" fill="white"/>
<path fill-rule="evenodd" clip-rule="evenodd" d="M51 65.5C51 69.1 53.9 72 57.5 72C61 72 64 69.1 64 65.5C64 61.9 61.1 59 57.5 59C53.9 59 51 61.9 51 65.5ZM53 65.5C53 63 55 61 57.5 61C59.9 61 62 63 62 65.5C62 68 60 70 57.5 70C55 70 53 68 53 65.5Z" fill="white"/>
<path fill-rule="evenodd" clip-rule="evenodd" d="M8.19922 51.5008H30.7992C31.0992 51.5008 31.4992 51.3008 31.5992 51.0008C37.3992 40.3008 37.3992 29.0008 31.5992 17.4008C31.3992 17.0008 31.0992 16.8008 30.6992 16.8008H8.19922C7.79922 16.8008 7.49922 17.0008 7.29922 17.3008C1.49922 27.8008 1.49922 39.1008 7.29922 50.9008C7.49922 51.3008 7.79922 51.5008 8.19922 51.5008ZM30.1992 49.5008H8.89922C3.79922 38.7008 3.69922 28.4008 8.79922 18.8008H30.1992C35.2992 29.4008 35.2992 39.7008 30.1992 49.5008Z" fill="white"/>
<path fill-rule="evenodd" clip-rule="evenodd" d="M42.1992 51.5008H64.7992C65.0992 51.5008 65.4992 51.3008 65.5992 51.0008C71.3992 40.3008 71.3992 29.0008 65.5992 17.4008C65.3992 17.0008 65.0992 16.8008 64.6992 16.8008H42.1992C41.7992 16.8008 41.4992 17.0008 41.2992 17.3008C35.4992 27.8008 35.4992 39.1008 41.2992 50.9008C41.4992 51.3008 41.7992 51.5008 42.1992 51.5008ZM64.1992 49.5008H42.8992C37.7992 38.7008 37.6992 28.4008 42.7992 18.8008H64.1992C69.2992 29.4008 69.2992 39.7008 64.1992 49.5008Z" fill="white"/>
<path fill-rule="evenodd" clip-rule="evenodd" d="M49 19.2H58.3C58.9 19.2 59.3 18.7 59.3 18.2V14C59.3 13.4 58.9 13 58.3 13H49C48.4 13 48 13.4 48 14V18.2C48 18.8 48.4 19.2 49 19.2ZM57.3 17.2H50V15H57.3V17.2Z" fill="white"/>
<path d="M71.2 32H2C1.4 32 1 31.6 1 31C1 30.4 1.4 30 2 30H71.2C71.8 30 72.2 30.4 72.2 31C72.2 31.6 71.7 32 71.2 32Z" fill="white"/>
<path d="M71.2 38H2C1.4 38 1 37.6 1 37C1 36.4 1.4 36 2 36H71.2C71.8 36 72.2 36.4 72.2 37C72.2 37.6 71.7 38 71.2 38Z" fill="white"/>
<path fill-rule="evenodd" clip-rule="evenodd" d="M14.1992 18.7992H24.9992C25.5992 18.7992 25.9992 18.2992 25.9992 17.7992V14.6992C25.9992 14.0992 25.5992 13.6992 24.9992 13.6992H14.1992C13.5992 13.6992 13.1992 14.0992 13.1992 14.6992V17.7992C13.1992 18.3992 13.5992 18.7992 14.1992 18.7992ZM23.9992 16.7992H15.1992V15.6992H23.9992V16.7992Z" fill="white"/>
<path fill-rule="evenodd" clip-rule="evenodd" d="M15.8984 15.6992H23.2984C23.7984 15.6992 24.2984 15.1992 24.2984 14.6992V11.6992C24.2984 11.0992 23.8984 10.6992 23.2984 10.6992H15.8984C15.2984 10.6992 14.8984 11.0992 14.8984 11.6992V14.6992C14.8984 15.2992 15.2984 15.6992 15.8984 15.6992ZM22.2984 13.6992H16.8984V12.6992H22.2984V13.6992Z" fill="white"/>
<path d="M19.6016 12.6C19.0016 12.6 18.6016 12.2 18.6016 11.6V7C18.6016 6.4 19.0016 6 19.6016 6C20.2016 6 20.6016 6.4 20.6016 7V11.6C20.6016 12.2 20.1016 12.6 19.6016 12.6Z" fill="white"/>
<path d="M22.1984 8H16.8984C16.2984 8 15.8984 7.6 15.8984 7C15.8984 6.4 16.2984 6 16.8984 6H22.1984C22.7984 6 23.1984 6.4 23.1984 7C23.1984 7.6 22.7984 8 22.1984 8Z" fill="white"/>
<path d="M59.4984 51.4992H47.8984C47.2984 51.4992 46.8984 51.0992 46.8984 50.4992V15.1992C46.8984 14.5992 47.2984 14.1992 47.8984 14.1992C48.4984 14.1992 48.8984 14.5992 48.8984 15.1992V49.4992H58.4984V15.1992C58.4984 14.5992 58.8984 14.1992 59.4984 14.1992C60.0984 14.1992 60.4984 14.5992 60.4984 15.1992V50.4992C60.4984 50.9992 60.0984 51.4992 59.4984 51.4992Z" fill="white"/>
<path d="M59.4984 24.8008H47.8984C47.2984 24.8008 46.8984 24.4008 46.8984 23.8008C46.8984 23.2008 47.2984 22.8008 47.8984 22.8008H59.4984C60.0984 22.8008 60.4984 23.2008 60.4984 23.8008C60.4984 24.3008 60.0984 24.8008 59.4984 24.8008Z" fill="white"/>
<path d="M59.4984 31.5996H47.8984C47.2984 31.5996 46.8984 31.1996 46.8984 30.5996C46.8984 29.9996 47.2984 29.5996 47.8984 29.5996H59.4984C60.0984 29.5996 60.4984 29.9996 60.4984 30.5996C60.4984 31.0996 60.0984 31.5996 59.4984 31.5996Z" fill="white"/>
<path d="M59.4984 38.3008H47.8984C47.2984 38.3008 46.8984 37.9008 46.8984 37.3008C46.8984 36.7008 47.2984 36.3008 47.8984 36.3008H59.4984C60.0984 36.3008 60.4984 36.7008 60.4984 37.3008C60.4984 37.9008 60.0984 38.3008 59.4984 38.3008Z" fill="white"/>
<path d="M59.4984 45.0996H47.8984C47.2984 45.0996 46.8984 44.6996 46.8984 44.0996C46.8984 43.4996 47.2984 43.0996 47.8984 43.0996H59.4984C60.0984 43.0996 60.4984 43.4996 60.4984 44.0996C60.4984 44.5996 60.0984 45.0996 59.4984 45.0996Z" fill="white"/>
<path fill-rule="evenodd" clip-rule="evenodd" d="M30.2824 32H59.2385C59.9467 32 60.5209 32.5741 60.5209 33.2824C60.5209 33.9906 59.9467 34.5648 59.2385 34.5648H30.2824C29.5741 34.5648 29 33.9906 29 33.2824C29 32.5741 29.5741 32 30.2824 32ZM30.2824 38.4119H59.2385C59.9467 38.4119 60.5209 38.986 60.5209 39.6943C60.5209 40.4025 59.9467 40.9767 59.2385 40.9767H30.2824C29.5741 40.9767 29 40.4025 29 39.6943C29 38.986 29.5741 38.4119 30.2824 38.4119ZM59.2385 44.8238H30.2824C29.5741 44.8238 29 45.3979 29 46.1062C29 46.8144 29.5741 47.3886 30.2824 47.3886H59.2385C59.9467 47.3886 60.5209 46.8144 60.5209 46.1062C60.5209 45.3979 59.9467 44.8238 59.2385 44.8238ZM30.2824 51.2357H59.2385C59.9467 51.2357 60.5209 51.8098 60.5209 52.5181C60.5209 53.2263 59.9467 53.8005 59.2385 53.8005H30.2824C29.5741 53.8005 29 53.2263 29 52.5181C29 51.8098 29.5741 51.2357 30.2824 51.2357Z" fill="#DC493A"/>
<path fill-rule="evenodd" clip-rule="evenodd" d="M54.6131 17.8546C56.7204 17.7694 58.3849 16.0363 58.3849 13.9273C58.3849 11.8183 56.7204 10.0852 54.6131 10H29.9273C27.7583 10 26 11.7583 26 13.9273C26 16.0963 27.7583 17.8546 29.9273 17.8546H35.1658V20.3103H33.9347C33.2265 20.3103 32.6523 20.8845 32.6523 21.5927C32.6523 22.301 33.2265 22.8751 33.9347 22.8751H50.6057C51.3139 22.8751 51.888 22.301 51.888 21.5927C51.888 20.8845 51.3139 20.3103 50.6057 20.3103H49.272V17.8546H54.6131ZM46.7072 20.3167H37.7306V17.8546H46.7072V20.3167ZM28.6551 13.9273C28.6551 14.6453 29.211 15.2406 29.9273 15.2898H54.6131C55.3656 15.2898 55.9756 14.6798 55.9756 13.9273C55.9756 13.1748 55.3656 12.5648 54.6131 12.5648H29.9273C29.211 12.6139 28.6551 13.2093 28.6551 13.9273Z" fill="#0353A4"/>
<path fill-rule="evenodd" clip-rule="evenodd" d="M9.5 39C10.8807 39 12 37.8807 12 36.5C12 35.1193 10.8807 34 9.5 34C8.11929 34 7 35.1193 7 36.5C7 37.8807 8.11929 39 9.5 39Z" stroke="#D0021B" stroke-width="2"/>
<path fill-rule="evenodd" clip-rule="evenodd" d="M3.59259 61.7905H17.0935C17.8094 61.7905 18.3898 61.2191 18.3898 60.5143V56.0476H20.4444V60.5143C20.4444 61.2191 21.0248 61.7905 21.7407 61.7905H26.1676V64.3429H23.575C21.6757 64.3464 20.1369 65.8613 20.1333 67.7311V70.7238C20.1333 71.4286 20.7137 72 21.4296 72H64.8556C65.5715 72 66.1519 71.4286 66.1519 70.7238V67.7311C66.1501 66.8308 65.7852 65.968 65.1373 65.3326C64.4895 64.6972 63.6117 64.3412 62.6972 64.3429H60.1046V61.7905H63.0213C67.4269 61.7764 70.9929 58.2601 71 53.9228V33.2868C70.9929 28.9445 67.4191 25.4261 63.0083 25.419H21.7407C21.0248 25.419 20.4444 25.9904 20.4444 26.6952V31.1619H18.3898V26.6952C18.3898 25.9904 17.8094 25.419 17.0935 25.419H15.9074V21.5905C15.9036 20.4297 15.1046 19.4176 13.963 19.1274V11.381C13.963 10.6761 13.3826 10.1048 12.6667 10.1048C11.9507 10.1048 11.3704 10.6761 11.3704 11.381V19.0381H8.77778V8.27619C8.77778 7.57137 8.19741 7 7.48148 7C6.76556 7 6.18518 7.57137 6.18518 8.27619V19.1274C5.04353 19.4176 4.24457 20.4297 4.24074 21.5905V25.419H3.59259C2.16074 25.419 1 26.5618 1 27.9714V59.2381C1 60.6477 2.16074 61.7905 3.59259 61.7905ZM62.6972 66.8952C63.1662 66.8952 63.5463 67.2695 63.5463 67.7311V69.4476H22.713V67.7311C22.713 67.2695 23.0931 66.8952 23.562 66.8952H62.6972ZM28.7667 61.7905V64.3429H57.4991V61.7905H28.7667ZM23.037 27.9714H63.0083C65.9887 27.9749 68.4038 30.3526 68.4074 33.2868V53.9228C68.4038 56.8569 65.9887 59.2346 63.0083 59.2381H23.037V27.9714ZM20.4444 33.7143H18.3898V53.4952H20.4444V33.7143ZM6.83333 21.5905H13.3148V25.419H6.83333V21.5905ZM15.7972 27.9714H3.59259V59.2381H15.7972V27.9714Z" fill="#0353A4"/>
<path d="M18.3898 56.0476V55.7976H18.1398V56.0476H18.3898ZM20.4444 56.0476H20.6944V55.7976H20.4444V56.0476ZM26.1676 61.7905H26.4176V61.5405H26.1676V61.7905ZM26.1676 64.3429V64.5929H26.4176V64.3429H26.1676ZM23.575 64.3429V64.0929H23.5745L23.575 64.3429ZM20.1333 67.7311L19.8833 67.7307V67.7311H20.1333ZM66.1519 67.7311H66.4019V67.7307L66.1519 67.7311ZM65.1373 65.3326L64.9623 65.5111L65.1373 65.3326ZM62.6972 64.3429V64.5929H62.6977L62.6972 64.3429ZM60.1046 64.3429H59.8546V64.5929H60.1046V64.3429ZM60.1046 61.7905V61.5405H59.8546V61.7905H60.1046ZM63.0213 61.7905V62.0405H63.0221L63.0213 61.7905ZM71 53.9228L71.25 53.9232V53.9228H71ZM71 33.2868H71.25V33.2864L71 33.2868ZM63.0083 25.419L63.0087 25.169H63.0083V25.419ZM20.4444 31.1619V31.4119H20.6944V31.1619H20.4444ZM18.3898 31.1619H18.1398V31.4119H18.3898V31.1619ZM15.9074 25.419H15.6574V25.669H15.9074V25.419ZM15.9074 21.5905H16.1574L16.1574 21.5897L15.9074 21.5905ZM13.963 19.1274H13.713V19.3218L13.9014 19.3697L13.963 19.1274ZM11.3704 19.0381V19.2881H11.6204V19.0381H11.3704ZM8.77778 19.0381H8.52778V19.2881H8.77778V19.0381ZM6.18518 19.1274L6.24677 19.3697L6.43518 19.3218V19.1274H6.18518ZM4.24074 21.5905L3.99074 21.5897V21.5905H4.24074ZM4.24074 25.419V25.669H4.49074V25.419H4.24074ZM63.5463 69.4476V69.6976H63.7963V69.4476H63.5463ZM22.713 69.4476H22.463V69.6976H22.713V69.4476ZM28.7667 64.3429H28.5167V64.5929H28.7667V64.3429ZM28.7667 61.7905V61.5405H28.5167V61.7905H28.7667ZM57.4991 64.3429V64.5929H57.7491V64.3429H57.4991ZM57.4991 61.7905H57.7491V61.5405H57.4991V61.7905ZM63.0083 27.9714L63.0086 27.7214H63.0083V27.9714ZM23.037 27.9714V27.7214H22.787V27.9714H23.037ZM68.4074 33.2868H68.6574V33.2865L68.4074 33.2868ZM68.4074 53.9228L68.6574 53.9231V53.9228H68.4074ZM63.0083 59.2381V59.4881H63.0086L63.0083 59.2381ZM23.037 59.2381H22.787V59.4881H23.037V59.2381ZM18.3898 33.7143V33.4643H18.1398V33.7143H18.3898ZM20.4444 33.7143H20.6944V33.4643H20.4444V33.7143ZM18.3898 53.4952H18.1398V53.7452H18.3898V53.4952ZM20.4444 53.4952V53.7452H20.6944V53.4952H20.4444ZM13.3148 21.5905H13.5648V21.3405H13.3148V21.5905ZM6.83333 21.5905V21.3405H6.58333V21.5905H6.83333ZM13.3148 25.419V25.669H13.5648V25.419H13.3148ZM6.83333 25.419H6.58333V25.669H6.83333V25.419ZM3.59259 27.9714V27.7214H3.34259V27.9714H3.59259ZM15.7972 27.9714H16.0472V27.7214H15.7972V27.9714ZM3.59259 59.2381H3.34259V59.4881H3.59259V59.2381ZM15.7972 59.2381V59.4881H16.0472V59.2381H15.7972ZM17.0935 61.5405H3.59259V62.0405H17.0935V61.5405ZM18.1398 60.5143C18.1398 61.0774 17.6751 61.5405 17.0935 61.5405V62.0405C17.9438 62.0405 18.6398 61.3608 18.6398 60.5143H18.1398ZM18.1398 56.0476V60.5143H18.6398V56.0476H18.1398ZM20.4444 55.7976H18.3898V56.2976H20.4444V55.7976ZM20.6944 60.5143V56.0476H20.1944V60.5143H20.6944ZM21.7407 61.5405C21.1592 61.5405 20.6944 61.0774 20.6944 60.5143H20.1944C20.1944 61.3608 20.8904 62.0405 21.7407 62.0405V61.5405ZM26.1676 61.5405H21.7407V62.0405H26.1676V61.5405ZM26.4176 64.3429V61.7905H25.9176V64.3429H26.4176ZM23.575 64.5929H26.1676V64.0929H23.575V64.5929ZM20.3833 67.7316C20.3866 66.0031 21.8102 64.5961 23.5755 64.5929L23.5745 64.0929C21.5412 64.0966 19.8872 65.7195 19.8833 67.7307L20.3833 67.7316ZM20.3833 70.7238V67.7311H19.8833V70.7238H20.3833ZM21.4296 71.75C20.8481 71.75 20.3833 71.2869 20.3833 70.7238H19.8833C19.8833 71.5704 20.5793 72.25 21.4296 72.25V71.75ZM64.8556 71.75H21.4296V72.25H64.8556V71.75ZM65.9019 70.7238C65.9019 71.2869 65.4371 71.75 64.8556 71.75V72.25C65.7058 72.25 66.4019 71.5704 66.4019 70.7238H65.9019ZM65.9019 67.7311V70.7238H66.4019V67.7311H65.9019ZM64.9623 65.5111C65.5628 66.1 65.9003 66.8989 65.9019 67.7316L66.4019 67.7307C66.4 66.7628 66.0076 65.836 65.3124 65.1541L64.9623 65.5111ZM62.6977 64.5929C63.5471 64.5913 64.3617 64.922 64.9623 65.5111L65.3124 65.1541C64.6173 64.4724 63.6763 64.091 62.6968 64.0929L62.6977 64.5929ZM60.1046 64.5929H62.6972V64.0929H60.1046V64.5929ZM59.8546 61.7905V64.3429H60.3546V61.7905H59.8546ZM63.0213 61.5405H60.1046V62.0405H63.0213V61.5405ZM70.75 53.9224C70.7431 58.1184 67.2922 61.5269 63.0205 61.5405L63.0221 62.0405C67.5617 62.026 71.2427 58.4018 71.25 53.9232L70.75 53.9224ZM70.75 33.2868V53.9228H71.25V33.2868H70.75ZM63.0079 25.669C67.2846 25.6759 70.7431 29.0863 70.75 33.2872L71.25 33.2864C71.2426 28.8026 67.5535 25.1763 63.0087 25.169L63.0079 25.669ZM21.7407 25.669H63.0083V25.169H21.7407V25.669ZM20.6944 26.6952C20.6944 26.1322 21.1592 25.669 21.7407 25.669V25.169C20.8904 25.169 20.1944 25.8487 20.1944 26.6952H20.6944ZM20.6944 31.1619V26.6952H20.1944V31.1619H20.6944ZM18.3898 31.4119H20.4444V30.9119H18.3898V31.4119ZM18.1398 26.6952V31.1619H18.6398V26.6952H18.1398ZM17.0935 25.669C17.6751 25.669 18.1398 26.1322 18.1398 26.6952H18.6398C18.6398 25.8487 17.9438 25.169 17.0935 25.169V25.669ZM15.9074 25.669H17.0935V25.169H15.9074V25.669ZM15.6574 21.5905V25.419H16.1574V21.5905H15.6574ZM13.9014 19.3697C14.9348 19.6324 15.654 20.5469 15.6574 21.5913L16.1574 21.5897C16.1532 20.3124 15.2744 19.2028 14.0246 18.8851L13.9014 19.3697ZM13.713 11.381V19.1274H14.213V11.381H13.713ZM12.6667 10.3548C13.2482 10.3548 13.713 10.8179 13.713 11.381H14.213C14.213 10.5344 13.517 9.85476 12.6667 9.85476V10.3548ZM11.6204 11.381C11.6204 10.8179 12.0851 10.3548 12.6667 10.3548V9.85476C11.8164 9.85476 11.1204 10.5344 11.1204 11.381H11.6204ZM11.6204 19.0381V11.381H11.1204V19.0381H11.6204ZM8.77778 19.2881H11.3704V18.7881H8.77778V19.2881ZM8.52778 8.27619V19.0381H9.02778V8.27619H8.52778ZM7.48148 7.25C8.06303 7.25 8.52778 7.71311 8.52778 8.27619H9.02778C9.02778 7.42963 8.33178 6.75 7.48148 6.75V7.25ZM6.43518 8.27619C6.43518 7.71311 6.89993 7.25 7.48148 7.25V6.75C6.63118 6.75 5.93518 7.42963 5.93518 8.27619H6.43518ZM6.43518 19.1274V8.27619H5.93518V19.1274H6.43518ZM4.49074 21.5913C4.49418 20.5469 5.21332 19.6324 6.24677 19.3697L6.1236 18.8851C4.87375 19.2028 3.99495 20.3124 3.99074 21.5897L4.49074 21.5913ZM4.49074 25.419V21.5905H3.99074V25.419H4.49074ZM3.59259 25.669H4.24074V25.169H3.59259V25.669ZM1.25 27.9714C1.25 26.7035 2.29512 25.669 3.59259 25.669V25.169C2.02637 25.169 0.75 26.42 0.75 27.9714H1.25ZM1.25 59.2381V27.9714H0.75V59.2381H1.25ZM3.59259 61.5405C2.29512 61.5405 1.25 60.506 1.25 59.2381H0.75C0.75 60.7895 2.02637 62.0405 3.59259 62.0405V61.5405ZM63.7963 67.7311C63.7963 67.1277 63.3005 66.6452 62.6972 66.6452V67.1452C63.0318 67.1452 63.2963 67.4112 63.2963 67.7311H63.7963ZM63.7963 69.4476V67.7311H63.2963V69.4476H63.7963ZM22.713 69.6976H63.5463V69.1976H22.713V69.6976ZM22.463 67.7311V69.4476H22.963V67.7311H22.463ZM23.562 66.6452C22.9587 66.6452 22.463 67.1277 22.463 67.7311H22.963C22.963 67.4112 23.2275 67.1452 23.562 67.1452V66.6452ZM62.6972 66.6452H23.562V67.1452H62.6972V66.6452ZM29.0167 64.3429V61.7905H28.5167V64.3429H29.0167ZM57.4991 64.0929H28.7667V64.5929H57.4991V64.0929ZM57.2491 61.7905V64.3429H57.7491V61.7905H57.2491ZM28.7667 62.0405H57.4991V61.5405H28.7667V62.0405ZM63.0083 27.7214H23.037V28.2214H63.0083V27.7214ZM68.6574 33.2865C68.6537 30.2108 66.1231 27.7251 63.0086 27.7214L63.008 28.2214C65.8542 28.2248 68.154 30.4944 68.1574 33.2871L68.6574 33.2865ZM68.6574 53.9228V33.2868H68.1574V53.9228H68.6574ZM63.0086 59.4881C66.1231 59.4844 68.6537 56.9987 68.6574 53.9231L68.1574 53.9225C68.154 56.7151 65.8542 58.9847 63.008 58.9881L63.0086 59.4881ZM23.037 59.4881H63.0083V58.9881H23.037V59.4881ZM22.787 27.9714V59.2381H23.287V27.9714H22.787ZM18.3898 33.9643H20.4444V33.4643H18.3898V33.9643ZM18.6398 53.4952V33.7143H18.1398V53.4952H18.6398ZM20.4444 53.2452H18.3898V53.7452H20.4444V53.2452ZM20.1944 33.7143V53.4952H20.6944V33.7143H20.1944ZM13.3148 21.3405H6.83333V21.8405H13.3148V21.3405ZM13.5648 25.419V21.5905H13.0648V25.419H13.5648ZM6.83333 25.669H13.3148V25.169H6.83333V25.669ZM6.58333 21.5905V25.419H7.08333V21.5905H6.58333ZM3.59259 28.2214H15.7972V27.7214H3.59259V28.2214ZM3.84259 59.2381V27.9714H3.34259V59.2381H3.84259ZM15.7972 58.9881H3.59259V59.4881H15.7972V58.9881ZM15.5472 27.9714V59.2381H16.0472V27.9714H15.5472Z" fill="white"/>
</svg>
