<svg width="73" height="72" viewBox="0 0 73 72" fill="none" xmlns="http://www.w3.org/2000/svg">
<path fill-rule="evenodd" clip-rule="evenodd" d="M73 69.5686V72H0V69.5686H14.2228C12.4187 68.3765 11.2364 66.4464 10.995 64.2986L0.742167 59.7459L0.7227 59.7374C0.59062 59.6777 0.469983 59.5954 0.366217 59.4943C0.353851 59.4819 0.344271 59.4671 0.334682 59.4523L0.334667 59.4523C0.326335 59.4394 0.317996 59.4265 0.307817 59.4152C0.232092 59.3309 0.16861 59.2364 0.119233 59.1344C0.100541 59.0877 0.085093 59.0398 0.073 58.991C0.0413324 58.897 0.0217095 58.7993 0.0146 58.7004C0.0140185 58.6882 0.0106579 58.6768 0.0073074 58.6655L0.00730521 58.6655L0.0073034 58.6655C0.00364496 58.6531 0 58.6408 0 58.6275V11.2157C0 10.5443 0.54472 10 1.21667 10H41.5747C42.5437 9.99694 43.4735 10.3818 44.1565 11.0686L52.4639 19.3693C53.1512 20.0517 53.5364 20.9808 53.5333 21.949V28.2353H68.1333C68.69 28.237 69.1746 28.616 69.3099 29.1556L70.5265 34.0183C70.5265 34.0232 70.5261 34.0276 70.5257 34.0319C70.5249 34.0404 70.5241 34.0488 70.5265 34.0609C70.5281 34.0688 70.5318 34.0763 70.5354 34.0837C70.5401 34.0933 70.5448 34.1028 70.5448 34.1132L72.9781 48.7014C72.9799 48.733 72.9799 48.7646 72.9781 48.7962C72.9873 48.8311 72.9946 48.8664 73 48.902V58.6275C72.9993 59.1308 72.6861 59.5809 72.214 59.7568V59.7654L64.2181 62.7851C64.8845 65.1722 64.2771 67.734 62.6097 69.5686H73ZM57.1833 59.8432C54.4955 59.8432 52.3167 62.0203 52.3167 64.7059C52.3167 67.3915 54.4955 69.5686 57.1833 69.5686C59.8711 69.5686 62.05 67.3915 62.05 64.7059C62.05 62.0203 59.8711 59.8432 57.1833 59.8432ZM50.3092 62.2745H25.4405C25.2958 61.418 24.9982 60.5945 24.5621 59.8432H51.757C51.1204 60.5516 50.6286 61.3775 50.3092 62.2745ZM65.1257 59.8432H62.6097C62.8192 60.0737 63.0139 60.3173 63.1924 60.5726L65.1257 59.8432ZM70.3465 47.6863H58.4V35.5294H68.3195L70.3465 47.6863ZM67.7915 33.0981L67.1831 30.6667H53.5333V48.902C53.5333 49.5734 52.9886 50.1177 52.3167 50.1177H2.43333V51.3334H7.3V53.7647H2.43333V57.4118H14.2228C16.6626 55.7909 19.8374 55.7909 22.2772 57.4118H70.5667V54.9804H66.9167V52.549H70.5667V50.1177H57.1833C56.5114 50.1177 55.9667 49.5734 55.9667 48.902V34.3137C55.9667 33.6423 56.5114 33.0981 57.1833 33.0981H67.7915ZM42.4361 12.7876L50.7435 21.0883C50.972 21.3165 51.1003 21.6262 51.1 21.949V47.6863H36.5V12.4314H41.5747C41.8978 12.4311 42.2077 12.5593 42.4361 12.7876ZM34.0667 47.6863V12.4314H15.8167V47.6863H34.0667ZM2.43333 12.4314H13.3833V47.6863H2.43333V12.4314ZM11.1763 61.7202C11.3413 61.0621 11.5976 60.4303 11.9379 59.8432H6.9496L11.1763 61.7202ZM18.25 58.6275C20.9378 58.6275 23.1167 60.8046 23.1167 63.4902C23.1167 66.1758 20.9378 68.353 18.25 68.353C15.5622 68.353 13.3833 66.1758 13.3833 63.4902C13.3833 60.8046 15.5622 58.6275 18.25 58.6275ZM49.8833 64.7059H25.4405C25.1029 66.6936 23.9581 68.4534 22.2772 69.5686H51.757C50.5515 68.2354 49.8838 66.5027 49.8833 64.7059Z" fill="white"/>
</svg>
