<svg width="72" height="72" viewBox="0 0 72 72" fill="none" xmlns="http://www.w3.org/2000/svg">
<path d="M54.2992 32.8008H1.69922C1.09922 32.8008 0.699219 32.4008 0.699219 31.8008C0.699219 31.2008 1.09922 30.8008 1.69922 30.8008H54.2992C54.8992 30.8008 55.2992 31.2008 55.2992 31.8008C55.2992 32.3008 54.7992 32.8008 54.2992 32.8008Z" fill="#DC493A"/>
<path d="M53.9 27.6992H2C1.4 27.6992 1 27.2992 1 26.6992C1 26.0992 1.4 25.6992 2 25.6992H53.9C54.5 25.6992 54.9 26.0992 54.9 26.6992C54.9 27.1992 54.4 27.6992 53.9 27.6992Z" fill="#DC493A"/>
<path d="M52.8981 65.5009H52.7981C52.2981 65.4009 51.8981 64.9009 51.8981 64.4009C53.8981 49.3009 53.8981 33.6009 51.8981 17.8009C51.7981 17.3009 52.1981 16.8009 52.7981 16.7009C53.2981 16.6009 53.7981 17.0009 53.8981 17.6009C55.9981 33.6009 55.9981 49.4009 53.8981 64.7009C53.7981 65.2009 53.3981 65.5009 52.8981 65.5009Z" fill="#0353A4"/>
<path d="M51.8977 72.0008H4.09766C3.59766 72.0008 3.19766 71.7008 3.09766 71.2008C3.09766 71.1008 3.09766 71.0008 3.09766 70.8008C3.09766 70.2008 3.49766 69.8008 4.09766 69.8008C4.29766 69.8008 4.49766 69.9008 4.69766 70.0008H51.4977C51.6977 69.9008 51.8977 69.8008 52.0977 69.8008C52.6977 69.8008 53.0977 70.3008 53.0977 70.8008C53.0977 70.9008 53.0977 71.0008 53.0977 71.1008C52.7977 71.7008 52.3977 72.0008 51.8977 72.0008Z" fill="#292D78"/>
<path d="M3.9998 12.2996C3.8998 12.2996 3.8998 12.2996 3.7998 12.2996C3.2998 12.1996 2.8998 11.6996 2.9998 11.0996L3.9998 11.2996L2.9998 10.9996V10.8996C3.0998 10.3996 3.4998 10.0996 3.9998 10.0996H51.8998C52.3998 10.0996 52.7998 10.3996 52.8998 10.8996C52.8998 10.9996 52.8998 11.0996 52.8998 11.1996C52.8998 11.7996 52.4998 12.1996 51.8998 12.1996C51.6998 12.1996 51.4998 12.0996 51.3998 11.9996H4.5998C4.3998 12.2996 4.1998 12.2996 3.9998 12.2996Z" fill="#292D78"/>
<path d="M3.09889 65.4996C2.59889 65.4996 2.19889 65.0996 2.09889 64.5996C1.79889 62.0996 1.49889 59.4996 1.29889 56.9996C0.0988885 43.7996 0.298888 30.0996 1.99889 17.4996C2.09889 16.9996 2.49889 16.5996 2.99889 16.5996C3.59889 16.5996 3.99889 16.9996 3.99889 17.5996V17.6996C2.29889 30.1996 2.09889 43.7996 3.29889 56.7996C3.49889 59.2996 3.79889 61.7996 4.09889 64.2996C4.19889 64.7996 3.79889 65.2996 3.19889 65.3996C3.19889 65.4996 3.19889 65.4996 3.09889 65.4996Z" fill="#0353A4"/>
<path fill-rule="evenodd" clip-rule="evenodd" d="M11.3984 12.2H20.0984C20.6984 12.2 21.0984 11.7 21.0984 11.2V7C21.0984 6.4 20.6984 6 20.0984 6H11.3984C10.7984 6 10.3984 6.4 10.3984 7V11.2C10.3984 11.8 10.7984 12.2 11.3984 12.2ZM19.1984 10.2H12.4984V8H19.1984V10.2Z" fill="#DC493A"/>
<path fill-rule="evenodd" clip-rule="evenodd" d="M37.3984 12.2H46.0984C46.6984 12.2 47.0984 11.7 47.0984 11.2V7C47.0984 6.4 46.6984 6 46.0984 6H37.3984C36.7984 6 36.3984 6.4 36.3984 7V11.2C36.3984 11.8 36.7984 12.2 37.3984 12.2ZM45.1984 10.2H38.4984V8H45.1984V10.2Z" fill="#DC493A"/>
<path fill-rule="evenodd" clip-rule="evenodd" d="M24.3984 11.2H33.0984C33.6984 11.2 34.0984 10.7 34.0984 10.2V6C34.0984 5.4 33.6984 5 33.0984 5H24.3984C23.7984 5 23.3984 5.4 23.3984 6V10.2C23.3984 10.8 23.7984 11.2 24.3984 11.2ZM32.1984 10.2H25.4984V7H32.1984V10.2Z" fill="#DC493A"/>
<path fill-rule="evenodd" clip-rule="evenodd" d="M4.99766 19.2992H50.9977C53.3977 19.2992 55.3977 17.2992 55.3977 14.8992V14.5992C55.3977 12.1992 53.3977 10.1992 50.9977 10.1992H4.99766C2.59766 10.1992 0.597656 12.1992 0.597656 14.5992V14.8992C0.597656 17.2992 2.59766 19.2992 4.99766 19.2992ZM2.59766 14.5992C2.59766 13.2992 3.69766 12.1992 4.99766 12.1992H50.9977C52.2977 12.1992 53.3977 13.2992 53.3977 14.5992V14.8992C53.3977 16.1992 52.2977 17.2992 50.9977 17.2992H4.99766C3.69766 17.2992 2.59766 16.1992 2.59766 14.8992V14.5992Z" fill="#0353A4"/>
<path fill-rule="evenodd" clip-rule="evenodd" d="M4.99766 72.0004H50.9977C53.3977 72.0004 55.3977 70.0004 55.3977 67.6004V67.3004C55.3977 64.9004 53.3977 62.9004 50.9977 62.9004H4.99766C2.59766 62.9004 0.597656 64.9004 0.597656 67.3004V67.6004C0.597656 70.0004 2.59766 72.0004 4.99766 72.0004ZM2.59766 67.3004C2.59766 66.0004 3.69766 64.9004 4.99766 64.9004H50.9977C52.2977 64.9004 53.3977 66.0004 53.3977 67.3004V67.6004C53.3977 68.9004 52.2977 70.0004 50.9977 70.0004H4.99766C3.69766 70.0004 2.59766 68.9004 2.59766 67.6004V67.3004Z" fill="#0353A4"/>
<path fill-rule="evenodd" clip-rule="evenodd" d="M16 41.7143C17.1662 41.3182 18.2157 40.6393 19.0904 39.8472C19.4985 39.7341 19.7901 39.4512 19.9067 39.0552C20.6647 38.1499 21.3061 37.1315 21.7143 36C20.5481 36.4526 19.4985 37.075 18.6239 37.867C18.2157 37.9236 17.8659 38.2631 17.8076 38.6591C17.0496 39.5644 16.4082 40.5827 16 41.7143ZM34.2857 41.7143C35.4519 41.2617 36.5015 40.6393 37.3761 39.8472C37.7843 39.7341 38.0758 39.4512 38.1924 39.0552C38.9504 38.1499 39.5918 37.1315 40 36C38.8338 36.4526 37.7843 37.075 36.9096 37.867C36.5015 37.9236 36.1516 38.2631 36.0933 38.6591C35.3353 39.5644 34.6939 40.5827 34.2857 41.7143ZM29.7143 40.5714C30.8805 41.024 31.8717 41.6464 32.8047 42.4385C33.2128 42.5516 33.5044 42.8345 33.621 43.2306C34.379 44.1358 35.0204 45.1542 35.4286 46.2857C34.2624 45.8331 33.2711 45.2107 32.3382 44.4187C31.93 44.3055 31.6385 44.0226 31.5219 43.6266C30.7638 42.7779 30.1224 41.703 29.7143 40.5714ZM36.9096 47.0099C37.7843 46.2178 38.8338 45.5955 40 45.1429C39.5918 46.2744 38.9504 47.2928 38.1924 48.198C38.1341 48.5941 37.7843 48.9335 37.3761 48.9901C36.5015 49.7822 35.4519 50.4045 34.2857 50.8571C34.6939 49.7256 35.3353 48.7072 36.0933 47.802C36.2099 47.4059 36.5015 47.1231 36.9096 47.0099ZM33.621 52.3734C34.379 53.2786 35.0204 54.297 35.4286 55.4286C34.2624 54.976 33.2711 54.3536 32.3382 53.5615C31.93 53.4484 31.6385 53.1655 31.5219 52.7694C30.7638 51.8642 30.1224 50.8458 29.7143 49.7143C30.8805 50.1669 31.8717 50.7893 32.8047 51.5813C33.2711 51.6945 33.5627 51.9774 33.621 52.3734ZM40 54.2857C38.8338 54.7383 37.7843 55.3607 36.9096 56.1528C36.5015 56.2093 36.2099 56.5488 36.0933 56.9448C35.3353 57.8501 34.6939 58.8685 34.2857 60C35.4519 59.5474 36.5015 58.925 37.3761 58.133C37.7843 58.0764 38.1341 57.7369 38.1924 57.3409C38.9504 56.4356 39.5918 55.4173 40 54.2857ZM27.7668 56.1528C28.6414 55.3607 29.691 54.7383 30.8571 54.2857C30.449 55.4173 29.8076 56.4356 29.0496 57.3409C28.9913 57.7369 28.6414 58.0764 28.2332 58.133C27.3586 58.925 26.309 59.5474 25.1429 60C25.551 58.8685 26.1924 57.8501 26.9504 56.9448C27.0671 56.5488 27.3586 56.2093 27.7668 56.1528ZM25.1429 41.7143C26.309 41.2617 27.3586 40.6393 28.2332 39.8472C28.6414 39.7341 28.9913 39.4512 29.0496 39.0552C29.8076 38.1499 30.449 37.1315 30.8571 36C29.691 36.4526 28.6414 37.075 27.7668 37.867C27.3586 37.9236 27.0087 38.2631 26.9504 38.6591C26.1924 39.5644 25.551 40.5827 25.1429 41.7143ZM24.4781 52.3734C25.2362 53.2786 25.8776 54.297 26.2857 55.4286C25.1195 54.976 24.1283 54.3536 23.1953 53.5615C22.7872 53.4484 22.4956 53.1655 22.379 52.7694C21.621 51.8642 20.9796 50.8458 20.5714 49.7143C21.7376 50.1669 22.7289 50.7893 23.6618 51.5813C24.07 51.6945 24.3615 51.9774 24.4781 52.3734ZM19.0904 48.9901C18.2157 49.7822 17.1662 50.4045 16 50.8571C16.4082 49.7256 17.0496 48.7072 17.8076 47.802C17.8659 47.4059 18.2157 47.0665 18.6239 47.0099C19.4985 46.2178 20.5481 45.5955 21.7143 45.1429C21.3061 46.2744 20.6647 47.2928 19.9067 48.198C19.7901 48.5941 19.4985 48.8769 19.0904 48.9901ZM30.8571 45.1429C29.691 45.5955 28.6414 46.2178 27.7668 47.0099C27.3586 47.1231 27.0671 47.4059 26.9504 47.802C26.1924 48.7072 25.551 49.7256 25.1429 50.8571C26.309 50.4045 27.3586 49.7822 28.2332 48.9901C28.6414 48.9335 28.9913 48.5941 29.0496 48.198C29.8076 47.2928 30.449 46.2744 30.8571 45.1429ZM19.0904 58.133C18.2157 58.925 17.1662 59.5474 16 60C16.4082 58.8685 17.0496 57.8501 17.8076 56.9448C17.8659 56.5488 18.2157 56.2093 18.6239 56.1528C19.4985 55.3607 20.5481 54.7383 21.7143 54.2857C21.3061 55.4173 20.6647 56.4356 19.9067 57.3409C19.7901 57.7369 19.4985 58.0764 19.0904 58.133ZM23.6618 42.4385C22.7289 41.6464 21.7376 41.024 20.5714 40.5714C20.9213 41.703 21.5627 42.7779 22.379 43.6266C22.4956 44.0226 22.7872 44.3055 23.1953 44.4187C24.1283 45.2107 25.1195 45.8331 26.2857 46.2857C25.8776 45.1542 25.2362 44.1358 24.4781 43.2306C24.3615 42.8345 24.07 42.5516 23.6618 42.4385Z" fill="#0353A4"/>
</svg>
