<svg width="72" height="72" viewBox="0 0 72 72" fill="none" xmlns="http://www.w3.org/2000/svg">
<path d="M18.5996 12.6C17.9996 12.6 17.5996 12.2 17.5996 11.6V7C17.5996 6.4 17.9996 6 18.5996 6C19.1996 6 19.5996 6.4 19.5996 7V11.6C19.5996 12.2 19.0996 12.6 18.5996 12.6Z" fill="#0353A4"/>
<path d="M21.2004 8H15.9004C15.3004 8 14.9004 7.6 14.9004 7C14.9004 6.4 15.3004 6 15.9004 6H21.2004C21.8004 6 22.2004 6.4 22.2004 7C22.2004 7.6 21.8004 8 21.2004 8Z" fill="#0353A4"/>
<path d="M67 65.9H61.9C61.3 65.9 60.9 65.5 60.9 64.9C60.9 64.3 61.3 63.9 61.9 63.9H66V59.3C66 57.2 64.3 55.5 62.2 55.5H7.8C5.7 55.5 4 57.2 4 59.3V63.9H8.1C8.7 63.9 9.1 64.3 9.1 64.9C9.1 65.5 8.7 65.9 8.1 65.9H3C2.4 65.9 2 65.5 2 64.9V59.3C2 56.1 4.6 53.5 7.8 53.5H62.1C65.3 53.5 67.9 56.1 67.9 59.3V64.9C68 65.5 67.6 65.9 67 65.9Z" fill="#DC493A"/>
<path d="M51 65.9004H19C18.4 65.9004 18 65.5004 18 64.9004C18 64.3004 18.4 63.9004 19 63.9004H51C51.6 63.9004 52 64.3004 52 64.9004C52 65.5004 51.5 65.9004 51 65.9004Z" fill="#DC493A"/>
<path fill-rule="evenodd" clip-rule="evenodd" d="M7 65.5C7 69.1 10 72 13.5 72C17.1 72 20 69.1 20 65.5C20 61.9 17 59 13.5 59C10 59 7 61.9 7 65.5ZM9 65.5C9 63 11.1 61 13.5 61C16 61 18 63 18 65.5C18 68 16 70 13.5 70C11 70 9 68 9 65.5Z" fill="#0353A4"/>
<path fill-rule="evenodd" clip-rule="evenodd" d="M50 65.5C50 69.1 52.9 72 56.5 72C60 72 63 69.1 63 65.5C63 61.9 60.1 59 56.5 59C52.9 59 50 61.9 50 65.5ZM52 65.5C52 63 54 61 56.5 61C58.9 61 61 63 61 65.5C61 68 59 70 56.5 70C54 70 52 68 52 65.5Z" fill="#0353A4"/>
<path fill-rule="evenodd" clip-rule="evenodd" d="M14.9004 15.6992H22.3004C22.8004 15.6992 23.3004 15.1992 23.3004 14.6992V11.6992C23.3004 11.0992 22.9004 10.6992 22.3004 10.6992H14.9004C14.3004 10.6992 13.9004 11.0992 13.9004 11.6992V14.6992C13.9004 15.2992 14.3004 15.6992 14.9004 15.6992ZM21.3004 13.6992H15.9004V12.6992H21.3004V13.6992Z" fill="#DC493A"/>
<path fill-rule="evenodd" clip-rule="evenodd" d="M13.1992 18.7992H23.9992C24.5992 18.7992 24.9992 18.2992 24.9992 17.7992V14.6992C24.9992 14.0992 24.5992 13.6992 23.9992 13.6992H13.1992C12.5992 13.6992 12.1992 14.0992 12.1992 14.6992V17.7992C12.1992 18.3992 12.5992 18.7992 13.1992 18.7992ZM22.9992 16.7992H14.1992V15.6992H22.9992V16.7992Z" fill="#DC493A"/>
<path fill-rule="evenodd" clip-rule="evenodd" d="M7.19922 51.5008H29.7992C30.0992 51.5008 30.4992 51.3008 30.5992 51.0008C36.3992 40.3008 36.3992 29.0008 30.5992 17.4008C30.3992 17.0008 30.0992 16.8008 29.6992 16.8008H7.19922C6.79922 16.8008 6.49922 17.0008 6.29922 17.3008C0.499219 27.8008 0.499219 39.1008 6.29922 50.9008C6.49922 51.3008 6.79922 51.5008 7.19922 51.5008ZM29.1992 49.5008H7.89922C2.79922 38.7008 2.69922 28.4008 7.79922 18.8008H29.1992C34.2992 29.4008 34.2992 39.7008 29.1992 49.5008Z" fill="#0353A4"/>
<path fill-rule="evenodd" clip-rule="evenodd" d="M41.1992 51.5008H63.7992C64.0992 51.5008 64.4992 51.3008 64.5992 51.0008C70.3992 40.3008 70.3992 29.0008 64.5992 17.4008C64.3992 17.0008 64.0992 16.8008 63.6992 16.8008H58.5096C58.5024 17.9795 47.3868 17.8003 47.4696 16.8008H41.1992C40.7992 16.8008 40.4992 17.0008 40.2992 17.3008C34.4992 27.8008 34.4992 39.1008 40.2992 50.9008C40.4992 51.3008 40.7992 51.5008 41.1992 51.5008ZM63.1992 49.5008H41.8992C36.7992 38.7008 36.6992 28.4008 41.7992 18.8008H63.1992C68.2992 29.4008 68.2992 39.7008 63.1992 49.5008Z" fill="#0353A4"/>
<path fill-rule="evenodd" clip-rule="evenodd" d="M46.9991 19H58.2991C58.7109 19 58.5574 18.3876 58.4206 17.8418C58.3581 17.5924 58.2991 17.3568 58.2991 17.2V13C58.2991 12.4 57.8991 12 57.2991 12H47.9991C47.3991 12 46.9991 12.4 46.9991 13V17.2C46.9991 17.4 46.9324 17.6667 46.8658 17.9333C46.7324 18.4667 46.5991 19 46.9991 19ZM56.2991 17H48.9991V14H56.2991V17Z" fill="#DC493A"/>
<path d="M70.2 32H1C0.4 32 0 31.6 0 31C0 30.4 0.4 30 1 30H70.2C70.8 30 71.2 30.4 71.2 31C71.2 31.6 70.7 32 70.2 32Z" fill="#DC493A"/>
<path d="M70.2 38H1C0.4 38 0 37.6 0 37C0 36.4 0.4 36 1 36H70.2C70.8 36 71.2 36.4 71.2 37C71.2 37.6 70.7 38 70.2 38Z" fill="#DC493A"/>
<path d="M58.5004 51.4992H46.9004C46.3004 51.4992 45.9004 51.0992 45.9004 50.4992V15.1992C45.9004 14.5992 46.3004 14.1992 46.9004 14.1992C47.5004 14.1992 47.9004 14.5992 47.9004 15.1992V49.4992H57.5004V15.1992C57.5004 14.5992 57.9004 14.1992 58.5004 14.1992C59.1004 14.1992 59.5004 14.5992 59.5004 15.1992V50.4992C59.5004 50.9992 59.1004 51.4992 58.5004 51.4992Z" fill="#0353A4"/>
<path d="M58.5004 24.8008H46.9004C46.3004 24.8008 45.9004 24.4008 45.9004 23.8008C45.9004 23.2008 46.3004 22.8008 46.9004 22.8008H58.5004C59.1004 22.8008 59.5004 23.2008 59.5004 23.8008C59.5004 24.3008 59.1004 24.8008 58.5004 24.8008Z" fill="#0353A4"/>
<path d="M58.5004 32H46.9004C46.3004 32 45.9004 31.6 45.9004 31C45.9004 30.4 46.3004 30 46.9004 30H58.5004C59.1004 30 59.5004 30.4 59.5004 31C59.5004 31.5 59.1004 32 58.5004 32Z" fill="#0353A4"/>
<path d="M58.5004 38H46.9004C46.3004 38 45.9004 37.6 45.9004 37C45.9004 36.4 46.3004 36 46.9004 36H58.5004C59.1004 36 59.5004 36.4 59.5004 37C59.5004 37.6 59.1004 38 58.5004 38Z" fill="#0353A4"/>
<path d="M58.5004 45.0996H46.9004C46.3004 45.0996 45.9004 44.6996 45.9004 44.0996C45.9004 43.4996 46.3004 43.0996 46.9004 43.0996H58.5004C59.1004 43.0996 59.5004 43.4996 59.5004 44.0996C59.5004 44.5996 59.1004 45.0996 58.5004 45.0996Z" fill="#0353A4"/>
</svg>
