<svg width="72" height="72" viewBox="0 0 72 72" fill="none" xmlns="http://www.w3.org/2000/svg">
<path d="M29.1984 22.8008H24.8984C24.2984 22.8008 23.8984 22.4008 23.8984 21.8008C23.8984 21.2008 24.2984 20.8008 24.8984 20.8008H29.1984C29.7984 20.8008 30.1984 21.2008 30.1984 21.8008C30.1984 22.4008 29.7984 22.8008 29.1984 22.8008Z" fill="#0353A4"/>
<path d="M41.1008 22.8008H36.8008C36.2008 22.8008 35.8008 22.4008 35.8008 21.8008C35.8008 21.2008 36.2008 20.8008 36.8008 20.8008H41.1008C41.7008 20.8008 42.1008 21.2008 42.1008 21.8008C42.1008 22.4008 41.6008 22.8008 41.1008 22.8008Z" fill="#0353A4"/>
<path d="M3.30078 47.8998C2.70078 47.8998 2.30078 47.4998 2.30078 46.8998V41.8998C2.30078 31.3998 9.00078 22.5998 18.1008 20.9998C18.6008 20.8998 19.2008 21.2998 19.3008 21.7998C19.4008 22.2998 19.0008 22.8998 18.5008 22.9998C10.4008 24.3998 4.30078 32.4998 4.30078 41.8998V46.8998C4.30078 47.3998 3.80078 47.8998 3.30078 47.8998Z" fill="#0353A4"/>
<path d="M62.699 47.8998C62.099 47.8998 61.699 47.4998 61.699 46.8998V41.8998C61.699 32.5998 55.599 24.3998 47.499 22.9998C46.999 22.8998 46.599 22.3998 46.699 21.7998C46.799 21.2998 47.299 20.8998 47.899 20.9998C57.099 22.5998 63.799 31.3998 63.799 41.7998V46.7998C63.699 47.3998 63.299 47.8998 62.699 47.8998Z" fill="#0353A4"/>
<path d="M29.1984 29.0996H24.8984C24.2984 29.0996 23.8984 28.6996 23.8984 28.0996C23.8984 27.4996 24.2984 27.0996 24.8984 27.0996H29.1984C29.7984 27.0996 30.1984 27.4996 30.1984 28.0996C30.1984 28.5996 29.7984 29.0996 29.1984 29.0996Z" fill="#0353A4"/>
<path d="M41.1008 29.0996H36.8008C36.2008 29.0996 35.8008 28.6996 35.8008 28.0996C35.8008 27.4996 36.2008 27.0996 36.8008 27.0996H41.1008C41.7008 27.0996 42.1008 27.4996 42.1008 28.0996C42.1008 28.5996 41.6008 29.0996 41.1008 29.0996Z" fill="#0353A4"/>
<path d="M8.89844 47.9004C8.29844 47.9004 7.89844 47.5004 7.89844 46.9004V42.6004C7.89844 35.6004 12.0984 29.5004 18.0984 27.7004C18.5984 27.5004 19.1984 27.8004 19.2984 28.4004C19.4984 28.9004 19.1984 29.5004 18.5984 29.6004C13.3984 31.2004 9.79844 36.5004 9.79844 42.6004V46.9004C9.89844 47.4004 9.39844 47.9004 8.89844 47.9004Z" fill="#0353A4"/>
<path d="M57.1988 47.9008C56.5988 47.9008 56.1988 47.5008 56.1988 46.9008V42.6008C56.1988 36.5008 52.5988 31.1008 47.3988 29.6008C46.8988 29.4008 46.5988 28.9008 46.6988 28.4008C46.8988 27.9008 47.3988 27.6008 47.8988 27.7008C53.8988 29.5008 58.0988 35.7008 58.0988 42.7008V47.0008C58.1988 47.4008 57.6988 47.9008 57.1988 47.9008Z" fill="#0353A4"/>
<path fill-rule="evenodd" clip-rule="evenodd" d="M29.1992 32.8004H36.7992C37.3992 32.8004 37.7992 32.4004 37.7992 31.8004V17.4004C37.7992 16.8004 37.3992 16.4004 36.7992 16.4004H29.1992C28.5992 16.4004 28.1992 16.8004 28.1992 17.4004V31.8004C28.1992 32.4004 28.5992 32.8004 29.1992 32.8004ZM35.7992 30.8004H30.1992V18.4004H35.7992V30.8004Z" fill="#0353A4"/>
<path fill-rule="evenodd" clip-rule="evenodd" d="M20.2984 32.7996H22.9984C24.5984 32.7996 25.8984 31.4996 25.8984 29.8996V19.9996C25.8984 18.3996 24.5984 17.0996 22.9984 17.0996H20.2984C18.6984 17.0996 17.3984 18.3996 17.3984 19.9996V29.8996C17.3984 31.4996 18.6984 32.7996 20.2984 32.7996ZM19.3984 19.8996C19.3984 19.3996 19.7984 18.9996 20.2984 18.9996V19.0996H22.9984C23.4984 19.0996 23.8984 19.4996 23.8984 19.9996V29.7996C23.8984 30.2996 23.4984 30.6996 22.9984 30.6996H20.2984C19.7984 30.6996 19.3984 30.2996 19.3984 29.7996V19.8996Z" fill="#DC493A"/>
<path fill-rule="evenodd" clip-rule="evenodd" d="M43.0016 32.7996H45.7016C47.4016 32.7996 48.7016 31.4996 48.6016 29.8996V19.9996C48.6016 18.3996 47.3016 17.0996 45.7016 17.0996H43.0016C41.4016 17.0996 40.1016 18.3996 40.1016 19.9996V29.8996C40.1016 31.4996 41.4016 32.7996 43.0016 32.7996ZM42.1016 19.8996C42.1016 19.3996 42.5016 18.9996 43.0016 18.9996V19.0996H45.7016C46.2016 19.0996 46.6016 19.4996 46.6016 19.9996V29.7996C46.6016 30.2996 46.2016 30.6996 45.7016 30.6996H43.0016C42.5016 30.6996 42.1016 30.2996 42.1016 29.7996V19.8996Z" fill="#DC493A"/>
<path fill-rule="evenodd" clip-rule="evenodd" d="M31.1016 18.3996H34.9016C35.5016 18.3996 35.9016 17.9996 35.9016 17.3996V12.5996C35.9016 11.9996 35.5016 11.5996 34.9016 11.5996H31.1016C30.5016 11.5996 30.1016 11.9996 30.1016 12.5996V17.3996C30.1016 17.9996 30.5016 18.3996 31.1016 18.3996ZM33.9016 16.3996H32.1016V13.5996H33.9016V16.3996Z" fill="#0353A4"/>
<path fill-rule="evenodd" clip-rule="evenodd" d="M27.3984 13.6H38.5984C40.4984 13.6 42.0984 12 42.0984 10.1V9.5C42.0984 7.6 40.4984 6 38.5984 6H27.3984C25.4984 6 23.8984 7.6 23.8984 9.5V10.1C23.8984 12 25.4984 13.6 27.3984 13.6ZM25.8984 9.5C25.8984 8.7 26.5984 8 27.3984 8H38.5984C39.3984 8 40.0984 8.7 40.0984 9.5V10.1C40.0984 10.9 39.3984 11.6 38.5984 11.6H27.3984C26.5984 11.6 25.8984 10.9 25.8984 10.1V9.5Z" fill="#DC493A"/>
<path d="M11.1 47.9004H1C0.4 47.9004 0 47.5004 0 46.9004C0 46.3004 0.4 45.9004 1 45.9004H11.1C11.7 45.9004 12.1 46.3004 12.1 46.9004C12.1 47.4004 11.6 47.9004 11.1 47.9004Z" fill="#0353A4"/>
<path d="M64.9984 47.9004H54.8984C54.2984 47.9004 53.8984 47.5004 53.8984 46.9004C53.8984 46.3004 54.2984 45.9004 54.8984 45.9004H64.9984C65.5984 45.9004 65.9984 46.3004 65.9984 46.9004C65.9984 47.4004 65.5984 47.9004 64.9984 47.9004Z" fill="#0353A4"/>
<path d="M61.8 59.8H39.5C38.9 59.8 38.5 59.4 38.5 58.8C38.5 58.2 38.9 57.8 39.5 57.8H60.8V54.5H39.5C38.9 54.5 38.5 54.1 38.5 53.5C38.5 52.9 38.9 52.5 39.5 52.5H61.8C62.4 52.5 62.8 52.9 62.8 53.5V58.8C62.8 59.3 62.3 59.8 61.8 59.8Z" fill="#0353A4"/>
<path d="M26.5008 59.8H4.30078C3.70078 59.8 3.30078 59.4 3.30078 58.8V53.5C3.30078 52.9 3.70078 52.5 4.30078 52.5H26.6008C27.2008 52.5 27.6008 52.9 27.6008 53.5C27.6008 54.1 27.2008 54.5 26.6008 54.5H5.30078V57.8H26.6008C27.2008 57.8 27.6008 58.2 27.6008 58.8C27.5008 59.3 27.1008 59.8 26.5008 59.8Z" fill="#0353A4"/>
<path d="M29.1992 57.1016C28.5992 57.1016 28.1992 56.7016 28.1992 56.1016C28.1992 55.5016 28.5992 55.1016 29.1992 55.1016H36.8992C37.4992 55.1016 37.8992 55.5016 37.8992 56.1016C37.8992 56.7016 37.4992 57.1016 36.8992 57.1016H29.1992Z" fill="#DC493A"/>
<path d="M33 61.0008C32.4 61.0008 32 60.6008 32 60.0008V52.3008C32 51.7008 32.4 51.3008 33 51.3008C33.6 51.3008 34 51.7008 34 52.3008V60.0008C34 60.5008 33.6 61.0008 33 61.0008Z" fill="#DC493A"/>
<path d="M4.30078 61.7C3.70078 61.7 3.30078 61.3 3.30078 60.7V51.5C3.30078 50.9 3.70078 50.5 4.30078 50.5C4.90078 50.5 5.30078 50.9 5.30078 51.5V60.7C5.30078 61.3 4.80078 61.7 4.30078 61.7Z" fill="#0353A4"/>
<path d="M61.8008 61.9004C61.2008 61.9004 60.8008 61.5004 60.8008 60.9004V51.4004C60.8008 50.8004 61.2008 50.4004 61.8008 50.4004C62.4008 50.4004 62.8008 50.8004 62.8008 51.4004V60.9004C62.8008 61.4004 62.3008 61.9004 61.8008 61.9004Z" fill="#0353A4"/>
<path d="M35.8984 50.7008C35.2984 50.7008 34.8984 50.3008 34.8984 49.7008V31.8008C34.8984 31.2008 35.2984 30.8008 35.8984 30.8008C36.4984 30.8008 36.8984 31.2008 36.8984 31.8008V49.7008C36.8984 50.3008 36.3984 50.7008 35.8984 50.7008Z" fill="#0353A4"/>
<path d="M35.8984 72C35.2984 72 34.8984 71.6 34.8984 71V62.5C34.8984 61.9 35.2984 61.5 35.8984 61.5C36.4984 61.5 36.8984 61.9 36.8984 62.5V71C36.8984 71.5 36.3984 72 35.8984 72Z" fill="#0353A4"/>
<path d="M30.1992 50.7008C29.5992 50.7008 29.1992 50.3008 29.1992 49.7008V31.8008C29.1992 31.2008 29.5992 30.8008 30.1992 30.8008C30.7992 30.8008 31.1992 31.2008 31.1992 31.8008V49.7008C31.1992 50.3008 30.6992 50.7008 30.1992 50.7008Z" fill="#0353A4"/>
<path d="M30.1992 72C29.5992 72 29.1992 71.6 29.1992 71V62.5C29.1992 61.9 29.5992 61.5 30.1992 61.5C30.7992 61.5 31.1992 61.9 31.1992 62.5V71C31.1992 71.5 30.6992 72 30.1992 72Z" fill="#0353A4"/>
<path d="M38.0984 72H27.8984C27.2984 72 26.8984 71.6 26.8984 71C26.8984 70.4 27.2984 70 27.8984 70H37.9984C38.5984 70 38.9984 70.4 38.9984 71C39.0984 71.5 38.5984 72 38.0984 72Z" fill="#0353A4"/>
<path fill-rule="evenodd" clip-rule="evenodd" d="M25 56.0996C25 60.4996 28.6 64.0996 33 64.0996C37.4 64.0996 41 60.4996 41 56.0996C41 51.6996 37.4 48.0996 33 48.0996C28.6 48.0996 25 51.6996 25 56.0996ZM27 56.0996C27 52.7996 29.7 50.0996 33 50.0996C36.3 50.0996 39 52.7996 39 56.0996C39 59.3996 36.3 62.0996 33 62.0996C29.7 62.0996 27 59.3996 27 56.0996Z" fill="#DC493A"/>
</svg>
