<svg width="95" height="438" viewBox="0 0 95 438" fill="none" xmlns="http://www.w3.org/2000/svg">
<g opacity="0.057688">
<path d="M351.889 201.35H8.10993C4.1885 201.35 1.57422 198.735 1.57422 194.813C1.57422 190.89 4.1885 188.275 8.10993 188.275H351.889C355.81 188.275 358.424 190.89 358.424 194.813C358.424 198.081 355.156 201.35 351.889 201.35Z" fill="#292D78"/>
<path d="M349.274 154.934H10.0709C6.14944 154.934 3.53516 152.319 3.53516 148.397C3.53516 144.474 6.14944 141.859 10.0709 141.859H349.274C353.196 141.859 355.81 144.474 355.81 148.397C355.81 151.665 352.542 154.934 349.274 154.934Z" fill="#292D78"/>
<path d="M336.203 437.999H23.7955C20.5276 437.999 17.9133 436.038 17.2598 432.769C17.2598 432.116 17.2598 431.462 17.2598 430.155C17.2598 426.232 19.8741 423.617 23.7955 423.617C25.1026 423.617 26.4098 424.271 27.7169 424.925H333.588C334.895 424.271 336.203 423.617 337.51 423.617C341.431 423.617 344.045 426.886 344.045 430.155C344.045 430.808 344.045 431.462 344.045 432.116C342.085 436.038 339.47 437.999 336.203 437.999Z" fill="#292D78"/>
<path d="M23.1424 47.7219C22.4888 47.7219 22.4888 47.7219 21.8353 47.7219C18.5674 47.0682 15.9531 43.7995 16.6067 39.8772L23.1424 41.1846L16.6067 39.2234V38.5697C17.2603 35.301 19.8745 33.3398 23.1424 33.3398H336.203C339.471 33.3398 342.085 35.301 342.739 38.5697C342.739 39.2234 342.739 39.8772 342.739 40.5309C342.739 44.4533 340.125 47.0682 336.203 47.0682C334.896 47.0682 333.589 46.4145 332.935 45.7607H27.0638C25.7567 47.7219 24.4495 47.7219 23.1424 47.7219Z" fill="#292D78"/>
<path d="M17.2617 395.507C13.9938 395.507 11.3795 392.892 10.726 389.623C8.76525 373.28 6.80454 356.283 5.4974 339.939C-2.34546 253.647 -1.03832 164.086 10.0724 81.7156C10.726 78.447 13.3403 75.832 16.6081 75.832C20.5295 75.832 23.1438 78.447 23.1438 82.3693V83.0231C12.0331 164.739 10.726 253.647 18.5688 338.632C19.876 354.975 21.8367 371.319 23.7974 387.662C24.451 390.931 21.8367 394.199 17.9153 394.853C17.9153 395.507 17.9153 395.507 17.2617 395.507Z" fill="#292D78"/>
<path fill-rule="evenodd" clip-rule="evenodd" d="M71.5064 47.0685H128.367C132.289 47.0685 134.903 43.7998 134.903 40.5311V13.0744C134.903 9.15203 132.289 6.53711 128.367 6.53711H71.5064C67.585 6.53711 64.9707 9.15203 64.9707 13.0744V40.5311C64.9707 44.4535 67.585 47.0685 71.5064 47.0685ZM122.485 33.9938H78.6957V19.6117H122.485V33.9938Z" fill="#292D78"/>
<path fill-rule="evenodd" clip-rule="evenodd" d="M29.679 93.4837H330.322C346.008 93.4837 359.079 80.4091 359.079 64.7195V62.7583C359.079 47.0688 346.008 33.9941 330.322 33.9941H29.679C13.9933 33.9941 0.921875 47.0688 0.921875 62.7583V64.7195C0.921875 80.4091 13.9933 93.4837 29.679 93.4837ZM13.9933 62.7583C13.9933 54.2598 21.1826 47.0688 29.679 47.0688H330.322C338.818 47.0688 346.008 54.2598 346.008 62.7583V64.7195C346.008 73.218 338.818 80.4091 330.322 80.4091H29.679C21.1826 80.4091 13.9933 73.218 13.9933 64.7195V62.7583Z" fill="#292D78"/>
<path fill-rule="evenodd" clip-rule="evenodd" d="M29.679 437.999H330.322C346.008 437.999 359.079 424.925 359.079 409.235V407.274C359.079 391.584 346.008 378.51 330.322 378.51H29.679C13.9933 378.51 0.921875 391.584 0.921875 407.274V409.235C0.921875 424.925 13.9933 437.999 29.679 437.999ZM13.9933 407.274C13.9933 398.775 21.1826 391.584 29.679 391.584H330.322C338.818 391.584 346.008 398.775 346.008 407.274V409.235C346.008 417.734 338.818 424.925 330.322 424.925H29.679C21.1826 424.925 13.9933 417.734 13.9933 409.235V407.274Z" fill="#292D78"/>
</g>
</svg>
