<svg width="72" height="72" viewBox="0 0 72 72" fill="none" xmlns="http://www.w3.org/2000/svg">
<path fill-rule="evenodd" clip-rule="evenodd" d="M68.6538 18.0957C68.6256 17.2817 68.2975 16.5156 67.7301 15.9392C67.1235 15.3238 66.2774 14.9802 65.4039 15.0009C62.3236 15.1037 59.8938 17.7354 59.988 20.8685L60.1551 26.1006L59.2848 29.677C58.2316 29.6706 57.176 30.0724 56.3731 30.888L50.6456 36.7101L48.6624 37.0585C47.38 37.2793 46.1667 37.9163 45.2469 38.8514L41.3017 42.8591C40.1394 44.039 39.4785 45.6063 39.4409 47.2725L39.2949 53.9142C37.4553 54.5336 36.1141 56.2843 36.0921 58.3595L36.0003 67.0564C35.9869 68.3184 36.4602 69.5119 37.3345 70.4183C38.2079 71.3248 39.3726 71.831 40.615 71.8453L54.8192 72H54.8702C56.093 72 57.249 71.5193 58.1288 70.6447C59.0211 69.7574 59.5194 68.5743 59.5336 67.3123L59.6254 58.6162C59.6387 57.3542 59.1655 56.16 58.292 55.2543C57.7984 54.7417 57.209 54.3622 56.5678 54.1223L56.5968 53.9206C56.8142 52.4425 57.4774 51.104 58.5149 50.05L65.1787 43.2808C66.8809 41.5516 67.9561 39.2676 68.2049 36.8496L68.912 30.0357C68.9599 29.7886 68.9874 29.5319 68.9921 29.2664L68.9944 29.2473C68.9948 29.2421 68.9946 29.2369 68.9944 29.2317C68.9942 29.2265 68.994 29.2214 68.9944 29.2162C68.9944 29.1953 68.9958 29.1749 68.9972 29.1545L68.9972 29.1543C68.9988 29.1312 69.0003 29.108 68.9999 29.0838L68.6538 18.0957ZM57.271 58.5907L57.1791 67.2868C57.1729 67.9094 56.9249 68.4954 56.4822 68.9355C56.0388 69.3755 55.4329 69.6083 54.8443 69.6083L40.6401 69.4545C40.0271 69.4481 39.4503 69.1962 39.0171 68.7465C38.5839 68.2969 38.3484 67.7062 38.3555 67.0835L38.4473 58.3866C38.4607 57.1015 39.4942 56.0651 40.757 56.0651H40.7821L54.9864 56.2198C55.5993 56.2261 56.1761 56.4781 56.6094 56.9277C57.0426 57.3765 57.2772 57.9673 57.271 58.5907ZM56.8495 48.3583L63.5133 41.5891C64.8349 40.2458 65.67 38.4735 65.863 36.5985L66.5553 29.9281C66.5558 29.9083 66.5583 29.8881 66.5609 29.8678C66.5619 29.8595 66.563 29.8512 66.5639 29.8428L66.6432 29.0759L66.3002 18.1754C66.2908 17.9139 66.1668 17.7338 66.0647 17.6301C65.9086 17.4715 65.7092 17.387 65.4683 17.3918C63.6954 17.4516 62.2867 18.9782 62.3408 20.7943L62.5135 26.1899C62.5139 26.1974 62.5131 26.2047 62.5124 26.212C62.5118 26.2179 62.5111 26.2237 62.5111 26.2298C62.5111 26.2705 62.5073 26.3104 62.5035 26.3511L62.5033 26.3534C62.4994 26.3948 62.4946 26.4355 62.486 26.4761C62.485 26.4817 62.4844 26.4872 62.4838 26.4928C62.4831 26.5001 62.4823 26.5075 62.4805 26.5152L61.5395 30.3833C61.7538 30.53 61.9594 30.6958 62.1493 30.8888C63.7409 32.5063 63.7409 35.138 62.1493 36.7547L55.2658 43.7472C55.0358 43.9808 54.7345 44.0972 54.4331 44.0972C54.1317 44.0972 53.8304 43.9808 53.5996 43.7472C53.1397 43.28 53.1397 42.5226 53.5996 42.0563L60.4832 35.0638C61.1573 34.379 61.1573 33.2645 60.4832 32.5797C59.809 31.8949 58.7127 31.8949 58.0385 32.5797L52.0473 38.6697C52.0463 38.6703 52.0454 38.6708 52.0445 38.6713C52.0432 38.672 52.0419 38.6727 52.041 38.6737C51.935 38.7797 51.8087 38.8658 51.6674 38.9256C51.6627 38.928 51.658 38.9312 51.6525 38.9335C51.5772 38.9646 51.4979 38.9886 51.4147 39.0029L49.0603 39.4167C48.2519 39.5562 47.4899 39.9564 46.9123 40.5431L42.967 44.5508C42.2356 45.2946 41.8189 46.2808 41.7953 47.3275L41.6556 53.6822L54.2314 53.8193L54.2667 53.5722C54.5594 51.5791 55.4526 49.7774 56.8495 48.3583Z" fill="white"/>
<path d="M54 61C55.1046 61 56 60.1046 56 59C56 57.8954 55.1046 57 54 57C52.8954 57 52 57.8954 52 59C52 60.1046 52.8954 61 54 61Z" fill="white"/>
<path fill-rule="evenodd" clip-rule="evenodd" d="M29.7028 53.9155L29.5569 47.2737C29.5192 45.609 28.8584 44.0417 27.6961 42.861L23.751 38.8533C22.8312 37.9189 21.6179 37.2819 20.3387 37.0611L18.3524 36.7119L12.6242 30.8889C11.8222 30.0749 10.7666 29.6731 9.71342 29.6786L8.84309 26.1014L9.01103 20.8668C9.10442 17.736 6.67471 15.1043 3.58264 15.0007C2.71701 14.9824 1.87572 15.3228 1.26907 15.9391C0.701671 16.5155 0.373628 17.2816 0.345376 18.0988L6.77296e-05 29.0951C-0.00037478 29.1216 0.00142832 29.1476 0.00322601 29.1735C0.00461651 29.1936 0.00600377 29.2136 0.00634605 29.2338V29.2457L0.00713084 29.2537C0.01027 29.5208 0.0393073 29.7823 0.0887491 30.0366L0.795845 36.8474C1.04462 39.2662 2.11979 41.5503 3.822 43.2795L10.4857 50.0489C11.5231 51.1036 12.1863 52.4414 12.4029 53.9155L12.4327 54.1219C11.7915 54.3619 11.2022 54.7414 10.7085 55.254C9.83506 56.1605 9.36183 57.3547 9.37518 58.616L9.467 67.3122C9.48034 68.5743 9.97946 69.7574 10.8718 70.6447C11.7523 71.5201 12.9067 72 14.1302 72H14.1812L28.3852 71.8461C29.6275 71.8326 30.7921 71.3255 31.6656 70.4191C32.5391 69.5126 33.0131 68.3184 32.9997 67.0571L32.9079 58.3601C32.8836 56.2856 31.5424 54.5349 29.7028 53.9155ZM12.1494 48.3595L5.48575 41.5902C4.16417 40.2468 3.32915 38.4754 3.13609 36.5995L2.44391 29.9298C2.44344 29.9126 2.44129 29.8958 2.43913 29.8788C2.43768 29.8674 2.43622 29.856 2.43527 29.8445L2.35601 29.0775L2.69818 18.1801C2.7076 17.9146 2.83081 17.7344 2.93361 17.6308C3.09057 17.4721 3.29697 17.3908 3.5175 17.3916C5.3029 17.4514 6.7116 18.9781 6.65745 20.7918L6.48479 26.1899C6.48436 26.1974 6.48513 26.2047 6.4859 26.212C6.48652 26.2179 6.48715 26.2238 6.48715 26.2298C6.48715 26.2704 6.49107 26.3119 6.49499 26.3534L6.49499 26.3534C6.49892 26.3948 6.50363 26.4363 6.51226 26.4761C6.51383 26.4829 6.51442 26.4895 6.51501 26.4961C6.5156 26.5027 6.51618 26.5092 6.51775 26.516L7.45872 30.3842C7.24368 30.5309 7.03807 30.6975 6.84815 30.8904C5.2566 32.508 5.2566 35.1397 6.84815 36.7565L13.7315 43.7491C13.9631 43.9819 14.2644 44.0983 14.5658 44.0983C14.8671 44.0983 15.1685 43.9819 15.3984 43.7483C15.8583 43.2811 15.8583 42.5237 15.3984 42.0574L8.51505 35.0648C7.84091 34.38 7.84169 33.2654 8.51505 32.5806C9.18918 31.8966 10.2855 31.8966 10.9597 32.5806L16.9515 38.6715C16.9531 38.6731 16.9555 38.6739 16.9578 38.6755C17.0638 38.7823 17.1901 38.8676 17.3314 38.9282C17.3361 38.9306 17.3408 38.9338 17.3455 38.9354C17.4208 38.9665 17.5001 38.9904 17.5833 39.0047L19.9416 39.4193C20.7468 39.558 21.5088 39.9574 22.0864 40.545L26.0316 44.5527C26.7638 45.2965 27.1797 46.2819 27.2033 47.3287L27.343 53.6843L14.7675 53.8214L14.7314 53.5695C14.4394 51.5796 13.5463 49.7786 12.1494 48.3595ZM28.3585 69.4552C28.9714 69.4488 29.5482 69.1969 29.9814 68.7473C30.4146 68.2976 30.6493 67.7069 30.6422 67.0842L30.5504 58.3872C30.5371 57.102 29.5035 56.0656 28.2408 56.0656H28.2164L14.0125 56.2203C13.3996 56.2275 12.8228 56.4786 12.3896 56.9282C11.9564 57.3787 11.7217 57.9694 11.728 58.5921L11.8206 67.2891C11.8269 67.9118 12.0749 68.4977 12.5175 68.9378C12.9601 69.3771 13.533 69.6099 14.1545 69.6099L28.3585 69.4552Z" fill="white"/>
<path d="M15 61C16.1046 61 17 60.1046 17 59C17 57.8954 16.1046 57 15 57C13.8954 57 13 57.8954 13 59C13 60.1046 13.8954 61 15 61Z" fill="white"/>
<path fill-rule="evenodd" clip-rule="evenodd" d="M20.7414 22.5714H18.507C17.1255 22.5714 16.0016 21.4475 16 20.0651V16.9341C16 15.5517 17.1247 14.4278 18.5062 14.4278H20.7406C21.0252 13.4584 21.4088 12.5294 21.8899 11.6495L20.3079 10.0674C19.3321 9.09088 19.3321 7.5032 20.3079 6.52745L22.528 4.30725C23.4712 3.36241 25.1238 3.36162 26.0686 4.30725L27.6506 5.88937C28.5312 5.40823 29.4594 5.0238 30.4287 4.74003V2.50635C30.4287 1.12397 31.5535 0 32.935 0H36.0658C37.4473 0 38.5721 1.12397 38.5721 2.50635V4.73924C39.5414 5.02301 40.4696 5.40744 41.3502 5.88858L42.9322 4.30645C43.8762 3.36162 45.5288 3.36162 46.4728 4.30645L48.6929 6.52666C49.6679 7.50241 49.6686 9.09088 48.6929 10.0666L47.1101 11.6495C47.5912 12.5294 47.9748 13.4584 48.2594 14.4278H50.4938C51.8761 14.4278 53 15.5525 53 16.9341V20.0651C53 21.4475 51.8753 22.5714 50.4938 22.5714H48.2594C47.9748 23.5408 47.5912 24.4698 47.1101 25.3497L48.6921 26.9318C49.6679 27.9075 49.6679 29.496 48.6921 30.4718L46.472 32.692C45.9838 33.1802 45.3434 33.4244 44.7021 33.4244C44.0609 33.4244 43.4205 33.1802 42.9322 32.692L41.3502 31.1098C40.4696 31.591 39.5414 31.9746 38.5721 32.2592V34.4936C38.5721 35.876 37.4473 37 36.0658 37H32.935C31.5527 37 30.4287 35.8752 30.4287 34.4936V32.2592C29.4594 31.9746 28.5304 31.591 27.6506 31.1098L26.0686 32.692C25.5811 33.1802 24.9399 33.4244 24.2987 33.4244C23.6574 33.4244 23.017 33.1802 22.5288 32.692L20.3086 30.4718C19.3329 29.496 19.3329 27.9075 20.3086 26.9318L21.8907 25.3497C21.4096 24.4698 21.0252 23.5408 20.7414 22.5714ZM18.5078 16.8057C18.4341 16.8057 18.3794 16.8612 18.3794 16.9341H18.3778V20.0659C18.3778 20.1396 18.4333 20.1943 18.5062 20.1943H21.6331H21.6371H21.6521C21.6665 20.1943 21.68 20.1962 21.6935 20.1981C21.7032 20.1994 21.7128 20.2008 21.7227 20.2014C21.7277 20.2017 21.7327 20.202 21.7377 20.2023C21.7859 20.2051 21.8345 20.2079 21.8812 20.2173C21.9017 20.2213 21.9213 20.2275 21.9409 20.2337C21.9524 20.2374 21.9638 20.241 21.9755 20.2442C21.9834 20.2464 21.9914 20.2486 21.9993 20.2507C22.0341 20.2601 22.0686 20.2695 22.1015 20.2831C22.1269 20.2934 22.1505 20.3063 22.1743 20.3192C22.1833 20.3241 22.1923 20.329 22.2014 20.3338C22.2119 20.3394 22.2225 20.3448 22.2332 20.3502C22.2571 20.3623 22.2812 20.3745 22.3037 20.3893C22.3267 20.4047 22.348 20.4222 22.3692 20.4397C22.3764 20.4457 22.3836 20.4516 22.3908 20.4574C22.3966 20.4619 22.4023 20.4663 22.408 20.4707C22.4339 20.4905 22.4594 20.51 22.4828 20.5327C22.5004 20.5504 22.5161 20.5695 22.5318 20.5886C22.5386 20.597 22.5455 20.6054 22.5525 20.6136C22.5598 20.6222 22.5673 20.6307 22.5748 20.6393C22.5942 20.6613 22.6136 20.6834 22.6302 20.7079C22.6455 20.7301 22.658 20.7537 22.6705 20.7773C22.6768 20.7891 22.6831 20.8009 22.6897 20.8125C22.6953 20.8227 22.7012 20.8327 22.7071 20.8428C22.7197 20.864 22.7323 20.8853 22.742 20.9085C22.7602 20.9496 22.7727 20.9936 22.7852 21.0381C22.7875 21.0459 22.7897 21.0536 22.7919 21.0614C22.7946 21.0707 22.7979 21.0796 22.8013 21.0885C22.8059 21.1008 22.8105 21.1131 22.8133 21.1264C23.1129 22.4811 23.6392 23.7525 24.3771 24.9042C24.4144 24.9613 24.4421 25.0223 24.4683 25.0833C24.4699 25.0873 24.4719 25.0909 24.4738 25.0944C24.4758 25.098 24.4778 25.1016 24.4794 25.1055C24.5341 25.2427 24.5594 25.3853 24.5618 25.528C24.5618 25.5324 24.5622 25.5367 24.5626 25.5411C24.563 25.5454 24.5634 25.5498 24.5634 25.5542C24.5626 25.6976 24.5333 25.8395 24.4818 25.9735C24.4805 25.9771 24.4794 25.9808 24.4784 25.9845C24.4769 25.9899 24.4754 25.9953 24.473 26.0004C24.416 26.1391 24.3312 26.2675 24.2218 26.3785C24.2202 26.3801 24.2194 26.3833 24.217 26.3857L24.2083 26.3944L24.2043 26.3983L21.989 28.6138C21.9414 28.6606 21.9414 28.7438 21.989 28.7913L24.2091 31.0115C24.2567 31.0591 24.3399 31.0591 24.3866 31.0115L26.5996 28.7985L26.6083 28.7898L26.6147 28.7834C26.6158 28.7823 26.6173 28.782 26.6187 28.7813C26.6192 28.781 26.6198 28.7807 26.6202 28.7802C26.732 28.6693 26.862 28.5837 27.0031 28.5258C27.006 28.5248 27.0088 28.524 27.0115 28.5232C27.0154 28.522 27.0191 28.5209 27.0229 28.5195C27.1592 28.4664 27.3035 28.437 27.4501 28.4362C27.4533 28.4362 27.4562 28.4366 27.4592 28.437C27.4622 28.4374 27.4652 28.4378 27.4683 28.4378C27.6126 28.4394 27.7576 28.4656 27.8963 28.521C27.9027 28.5234 27.909 28.5274 27.9154 28.5306C27.9764 28.5567 28.0374 28.5853 28.0961 28.6225C29.2485 29.3605 30.5199 29.8868 31.8737 30.1864C31.8861 30.1891 31.8974 30.1934 31.9087 30.1978C31.9176 30.2012 31.9264 30.2046 31.9355 30.207L31.9486 30.2106C31.9981 30.2244 32.0473 30.2381 32.0932 30.2585C32.1118 30.2668 32.1292 30.277 32.1465 30.2871C32.1572 30.2933 32.1679 30.2995 32.1788 30.3053C32.1889 30.3108 32.199 30.3162 32.2091 30.3216C32.238 30.337 32.2667 30.3523 32.2938 30.3711C32.3169 30.3869 32.3381 30.4055 32.3593 30.4241C32.3657 30.4297 32.3721 30.4353 32.3786 30.4408C32.3865 30.4476 32.3946 30.4542 32.4027 30.4608C32.4252 30.4791 32.4477 30.4975 32.4681 30.5185C32.4861 30.537 32.5016 30.5571 32.5173 30.5773C32.5238 30.5857 32.5304 30.5942 32.5371 30.6025C32.5445 30.6117 32.552 30.6208 32.5594 30.6297C32.5777 30.6517 32.5958 30.6735 32.6116 30.6977C32.6246 30.7177 32.6353 30.7388 32.6461 30.76C32.6512 30.7699 32.6562 30.7798 32.6615 30.7896C32.6654 30.7967 32.6692 30.8037 32.6731 30.8107C32.6892 30.8397 32.705 30.8685 32.7178 30.8998C32.7279 30.9249 32.7352 30.9513 32.7425 30.9777C32.7455 30.9887 32.7486 30.9998 32.7519 31.0108C32.755 31.021 32.7583 31.0312 32.7616 31.0413C32.7701 31.0671 32.7785 31.0928 32.7836 31.1201C32.7914 31.1618 32.7941 31.2047 32.7968 31.2477C32.7972 31.253 32.7975 31.2583 32.7979 31.2636C32.7988 31.2747 32.8003 31.2856 32.8018 31.2964C32.8042 31.3134 32.8066 31.3302 32.8066 31.3476V34.4936C32.8066 34.5674 32.8621 34.6221 32.935 34.6221H36.0658C36.1395 34.6221 36.1942 34.5666 36.1942 34.4936V31.3476C36.1942 31.3302 36.1966 31.3134 36.199 31.2964C36.2005 31.2856 36.202 31.2747 36.2029 31.2636C36.2035 31.2556 36.2039 31.2477 36.2044 31.2397C36.2068 31.1994 36.2093 31.1592 36.2172 31.1201C36.223 31.0922 36.2314 31.066 36.2398 31.0396C36.2429 31.0301 36.2459 31.0205 36.2489 31.0108C36.2522 30.9998 36.2552 30.9887 36.2583 30.9777C36.2656 30.9513 36.2729 30.9249 36.283 30.8998C36.2962 30.8681 36.3126 30.8381 36.3292 30.808C36.3326 30.8019 36.3359 30.7957 36.3393 30.7896C36.3446 30.7798 36.3496 30.7699 36.3546 30.76C36.3655 30.7388 36.3762 30.7177 36.3892 30.6977C36.4049 30.6735 36.4231 30.6517 36.4414 30.6297C36.4488 30.6208 36.4563 30.6117 36.4637 30.6025C36.4704 30.5942 36.477 30.5857 36.4835 30.5773C36.4992 30.5571 36.5147 30.537 36.5327 30.5185C36.5531 30.4975 36.5756 30.4791 36.5981 30.4608C36.6062 30.4542 36.6142 30.4476 36.6222 30.4408C36.6278 30.4361 36.6333 30.4313 36.6388 30.4265C36.6609 30.4074 36.6829 30.3882 36.707 30.3711C36.7332 30.3525 36.7619 30.3373 36.7907 30.3221C36.8011 30.3165 36.8116 30.311 36.822 30.3053C36.8306 30.3005 36.839 30.2956 36.8475 30.2907C36.867 30.2793 36.8865 30.2679 36.9076 30.2585C36.9583 30.2371 37.0114 30.2221 37.0653 30.207C37.0742 30.2044 37.0828 30.2011 37.0913 30.198C37.103 30.1935 37.1147 30.1892 37.1271 30.1864C38.4809 29.8868 39.7523 29.3605 40.9047 28.6225C40.9626 28.5853 41.0228 28.5575 41.0831 28.5321C41.0867 28.5307 41.0902 28.5287 41.0938 28.5267C41.0979 28.5243 41.1021 28.522 41.1068 28.5203C41.2424 28.4664 41.3842 28.441 41.5253 28.4386C41.5356 28.4386 41.5451 28.4362 41.5555 28.4362C41.6989 28.4378 41.84 28.4664 41.9732 28.5179C41.9827 28.521 41.9914 28.5226 42.0009 28.5266C42.1404 28.5845 42.2696 28.6693 42.3806 28.7787C42.3814 28.7794 42.3825 28.78 42.3837 28.7806C42.3849 28.7812 42.3861 28.7818 42.3869 28.7826L42.394 28.7898L42.4004 28.7961L44.6141 31.01C44.6601 31.0567 44.7433 31.0575 44.7917 31.01L47.0118 28.7898C47.0594 28.743 47.0594 28.6598 47.0118 28.6122L44.7964 26.3968L44.7925 26.3928L44.7838 26.3841C44.7828 26.3834 44.7822 26.3825 44.7817 26.3816C44.781 26.3801 44.7804 26.3784 44.779 26.3769C44.6696 26.2668 44.5856 26.1383 44.5278 25.9988C44.5254 25.9937 44.5239 25.9883 44.5224 25.9829C44.5214 25.9792 44.5203 25.9755 44.519 25.9719C44.4675 25.8379 44.4382 25.6968 44.4374 25.5526C44.4374 25.5439 44.439 25.5351 44.439 25.5264C44.4414 25.3837 44.4667 25.2411 44.5214 25.1039C44.523 25.1 44.525 25.0964 44.527 25.0928C44.5289 25.0893 44.5309 25.0857 44.5325 25.0817C44.5587 25.0207 44.5864 24.9605 44.6237 24.9026C45.3616 23.7509 45.8879 22.4795 46.1875 21.1249C46.1901 21.1131 46.1942 21.1023 46.1982 21.0915C46.2015 21.0827 46.2048 21.0739 46.2073 21.0646L46.2085 21.0604C46.2232 21.0079 46.238 20.9547 46.2596 20.9053C46.2668 20.8884 46.2758 20.873 46.2848 20.8577C46.2906 20.8478 46.2963 20.8379 46.3016 20.8276C46.3047 20.8219 46.3077 20.8161 46.3107 20.8104C46.3298 20.774 46.3489 20.7375 46.3722 20.704C46.3831 20.688 46.3959 20.6734 46.4089 20.6585C46.4165 20.6498 46.4242 20.641 46.4316 20.6318C46.436 20.6265 46.4403 20.6211 46.4447 20.6158C46.4688 20.5861 46.4929 20.5564 46.5204 20.5296C46.5348 20.5152 46.5509 20.5026 46.567 20.4901C46.5748 20.484 46.5826 20.4779 46.5901 20.4717L46.5995 20.4639C46.6313 20.4371 46.6633 20.41 46.6987 20.3869C46.7146 20.3768 46.7312 20.3684 46.7477 20.36C46.7584 20.3546 46.769 20.3492 46.7796 20.3433C46.7844 20.3407 46.7891 20.338 46.7939 20.3354C46.8292 20.3159 46.8638 20.2969 46.9008 20.2815C46.9236 20.272 46.9477 20.2653 46.9718 20.2586C46.9839 20.2552 46.996 20.2519 47.0078 20.2482C47.0183 20.2451 47.0287 20.2417 47.0391 20.2384C47.0654 20.23 47.0917 20.2216 47.1196 20.2165C47.1648 20.2079 47.2107 20.2051 47.2573 20.2023C47.2621 20.202 47.2669 20.2017 47.2718 20.2014C47.2826 20.2007 47.2932 20.1992 47.3037 20.1976C47.3179 20.1956 47.3321 20.1935 47.3471 20.1935H47.3629H47.3669H50.493C50.5667 20.1935 50.6214 20.138 50.6214 20.0651V16.9341C50.6214 16.8604 50.5659 16.8057 50.493 16.8057H47.3495H47.3463C47.3451 16.8057 47.3439 16.8053 47.3427 16.8049C47.3415 16.8045 47.3403 16.8041 47.3392 16.8041C47.2171 16.8033 47.1006 16.7796 46.9896 16.7439C46.9818 16.7413 46.9739 16.7389 46.9659 16.7366C46.9544 16.7332 46.943 16.7299 46.9318 16.7257C46.824 16.6852 46.7241 16.629 46.6337 16.5608C46.6228 16.5528 46.6128 16.5442 46.6027 16.5356C46.5968 16.5305 46.5908 16.5254 46.5846 16.5204C46.495 16.4451 46.4158 16.3595 46.3516 16.2612C46.3452 16.2501 46.3397 16.2382 46.3333 16.2271C46.2699 16.1217 46.2208 16.0075 46.1922 15.8839C46.1918 15.8814 46.1904 15.8793 46.1892 15.8771C46.1885 15.8757 46.1878 15.8743 46.1875 15.8728C45.8879 14.5181 45.3616 13.2467 44.6237 12.095C44.5864 12.0379 44.5587 11.9769 44.5325 11.9159C44.5309 11.9119 44.5289 11.9083 44.527 11.9048C44.525 11.9012 44.523 11.8976 44.5214 11.8937C44.4667 11.7565 44.4414 11.6139 44.439 11.4712C44.439 11.4668 44.4386 11.4625 44.4382 11.4581C44.4378 11.4538 44.4374 11.4494 44.4374 11.445C44.4382 11.3016 44.4675 11.1597 44.519 11.0257C44.5203 11.0222 44.5214 11.0184 44.5224 11.0147C44.5239 11.0093 44.5254 11.0039 44.5278 10.9988C44.5848 10.8601 44.6696 10.7317 44.779 10.6207C44.7806 10.6191 44.7814 10.6159 44.7838 10.6136L44.7925 10.6048L44.7964 10.6009L47.0118 8.38542C47.0586 8.33865 47.0594 8.25543 47.0118 8.20787L44.7917 5.98766C44.7489 5.94644 44.6562 5.94644 44.6141 5.98766L42.3861 8.21579C42.3837 8.21817 42.3812 8.21956 42.3786 8.22095C42.376 8.22233 42.3734 8.22372 42.3711 8.2261C42.2696 8.32439 42.1531 8.39889 42.0278 8.45438C41.9993 8.46706 41.9716 8.47737 41.9422 8.48767C41.8146 8.53285 41.6831 8.56456 41.5475 8.56456H41.5451H41.5444C41.4104 8.56456 41.2772 8.53364 41.1473 8.48688C41.12 8.47666 41.0948 8.46441 41.069 8.45187C41.0588 8.4469 41.0484 8.44189 41.0379 8.43694C41.0219 8.42954 41.0057 8.42317 40.9895 8.41679C40.9604 8.40539 40.9314 8.39398 40.9039 8.3767C39.7515 7.63795 38.4801 7.11163 37.1263 6.81281C37.11 6.80918 37.0948 6.80349 37.0795 6.7978C37.068 6.79352 37.0566 6.78925 37.0447 6.78586C37.0369 6.78359 37.0292 6.78136 37.0214 6.77913C36.9833 6.76817 36.9454 6.75728 36.9091 6.74147C36.8845 6.73 36.8611 6.71647 36.8377 6.70295C36.8288 6.69778 36.8199 6.69261 36.8109 6.68757C36.8015 6.68235 36.7921 6.67726 36.7826 6.67215C36.7575 6.65863 36.7322 6.64502 36.7086 6.62891C36.6824 6.61079 36.6591 6.59021 36.6357 6.5695C36.6294 6.56393 36.6231 6.55836 36.6167 6.55282C36.6081 6.54544 36.5992 6.53822 36.5904 6.53099C36.5707 6.51489 36.5509 6.49873 36.5335 6.48069C36.5148 6.46143 36.4981 6.44016 36.4814 6.41888C36.4748 6.41037 36.4681 6.40187 36.4613 6.3935C36.4558 6.38672 36.4502 6.38002 36.4447 6.37334C36.4255 6.35033 36.4066 6.32753 36.39 6.30234C36.3762 6.28138 36.3647 6.25887 36.3531 6.23617C36.3481 6.22626 36.343 6.21631 36.3377 6.20643C36.3335 6.19886 36.3293 6.19134 36.3251 6.1838C36.31 6.15662 36.2948 6.12939 36.283 6.10022C36.2721 6.07453 36.2645 6.04734 36.257 6.0202C36.2536 6.00797 36.2502 5.99576 36.2465 5.9837C36.2432 5.9717 36.2394 5.9598 36.2357 5.94787C36.2288 5.92588 36.2218 5.90377 36.2172 5.88065C36.2079 5.83471 36.205 5.78682 36.2022 5.73933C36.2019 5.73438 36.2016 5.72944 36.2013 5.7245C36.2007 5.71417 36.1993 5.70413 36.198 5.69412C36.1961 5.68033 36.1942 5.66662 36.1942 5.65237V5.6381V5.63335V2.50635C36.1942 2.43264 36.1387 2.37794 36.0658 2.37794H32.935C32.8621 2.37794 32.8066 2.43264 32.809 2.50635V5.63176V5.63652V5.65079C32.809 5.66503 32.8071 5.67874 32.8052 5.69254C32.8039 5.70254 32.8025 5.71259 32.8018 5.72292C32.8015 5.72785 32.8012 5.7328 32.8009 5.73774C32.7981 5.78523 32.7953 5.83312 32.786 5.87907C32.7813 5.9051 32.7733 5.92986 32.7653 5.95459C32.7624 5.96375 32.7594 5.9729 32.7566 5.98211C32.753 5.99387 32.7497 6.00569 32.7463 6.01752C32.7385 6.04479 32.7307 6.0721 32.7202 6.09863C32.7071 6.12928 32.6914 6.15779 32.6757 6.18635C32.6723 6.19251 32.6689 6.19866 32.6655 6.20485C32.6603 6.21457 32.6553 6.22429 32.6503 6.23398C32.6386 6.25665 32.6271 6.27909 32.6132 6.30076C32.5966 6.32594 32.5776 6.34874 32.5585 6.37175C32.5529 6.37843 32.5474 6.38513 32.5418 6.39191C32.5351 6.40029 32.5284 6.40879 32.5217 6.41729C32.5051 6.43857 32.4884 6.45985 32.4697 6.4791C32.4522 6.49715 32.4325 6.51331 32.4128 6.52941C32.4039 6.53664 32.3951 6.54386 32.3865 6.55123C32.3801 6.55677 32.3738 6.56234 32.3675 6.5679C32.3441 6.58862 32.3208 6.60921 32.2946 6.62733C32.27 6.6445 32.2431 6.65883 32.216 6.67324C32.2081 6.67746 32.2002 6.68168 32.1923 6.68598C32.1827 6.69138 32.1732 6.69698 32.1637 6.70258C32.1412 6.71592 32.1186 6.72928 32.094 6.73988C32.0578 6.7557 32.0199 6.76659 31.9817 6.77755C31.974 6.77977 31.9662 6.782 31.9585 6.78427C31.9466 6.78767 31.9351 6.79194 31.9237 6.79621C31.9084 6.8019 31.8931 6.8076 31.8768 6.81122C30.5231 7.11005 29.2517 7.63637 28.0992 8.37512C28.073 8.39166 28.0452 8.40253 28.0174 8.41341C27.9999 8.42025 27.9824 8.4271 27.9653 8.43536C27.9612 8.43739 27.9572 8.43942 27.9532 8.44144C27.921 8.45759 27.8897 8.47332 27.8559 8.48529C27.7259 8.53206 27.5928 8.56297 27.4588 8.56297H27.458H27.4556C27.3201 8.56218 27.1885 8.53127 27.0609 8.48609C27.0316 8.47578 27.0039 8.46548 26.9753 8.4528C26.8501 8.39652 26.7336 8.3228 26.6321 8.22451C26.6297 8.22213 26.6272 8.22075 26.6246 8.21936C26.622 8.21797 26.6194 8.21659 26.6171 8.21421L24.389 5.98608C24.3462 5.94486 24.2535 5.94486 24.2115 5.98608L21.9906 8.20707C21.943 8.25463 21.943 8.33786 21.9906 8.38542L24.2051 10.6001L24.2091 10.604L24.2178 10.6128C24.2191 10.6136 24.2197 10.6149 24.2203 10.6163C24.2209 10.6175 24.2215 10.6188 24.2226 10.6199C24.332 10.7301 24.416 10.8585 24.4738 10.998C24.4762 11.0031 24.4777 11.0086 24.4792 11.0139C24.4802 11.0177 24.4813 11.0214 24.4826 11.0249C24.5341 11.1589 24.5634 11.3 24.5642 11.4442C24.5642 11.4486 24.5638 11.453 24.5634 11.4573C24.563 11.4617 24.5626 11.466 24.5626 11.4704C24.5602 11.6131 24.5349 11.7558 24.4802 11.8929C24.4786 11.8968 24.4766 11.9004 24.4746 11.904C24.4726 11.9075 24.4707 11.9111 24.4691 11.9151C24.4429 11.9761 24.4152 12.0364 24.3779 12.0942C23.64 13.2459 23.1137 14.5173 22.8141 15.872C22.8137 15.874 22.8127 15.8757 22.8117 15.8775C22.8107 15.8793 22.8097 15.8811 22.8093 15.8831C22.7808 16.0067 22.7317 16.1217 22.6683 16.2271C22.6658 16.2313 22.6636 16.2357 22.6614 16.2401C22.6579 16.2471 22.6544 16.254 22.65 16.2604C22.5858 16.3595 22.5058 16.4451 22.4162 16.5204C22.4124 16.5236 22.4086 16.5268 22.4049 16.5301C22.393 16.5403 22.3813 16.5504 22.3687 16.56C22.2783 16.629 22.1784 16.6852 22.0698 16.7257C22.0581 16.7305 22.0461 16.7339 22.0341 16.7373C22.0267 16.7394 22.0193 16.7415 22.012 16.7439C21.901 16.7796 21.7845 16.8033 21.6616 16.8041C21.6605 16.8041 21.6593 16.8045 21.6581 16.8049C21.6569 16.8053 21.6557 16.8057 21.6545 16.8057H21.6513H18.5078Z" fill="white"/>
<path fill-rule="evenodd" clip-rule="evenodd" d="M41 17.4996C41 21.0839 38.0841 24 34.5 24C30.9159 24 28 21.0847 28 17.5004C28 13.9161 30.9159 11 34.5 11C38.0841 11 41 13.9153 41 17.4996ZM38.6529 17.5004C38.6529 15.2102 36.79 13.3473 34.5 13.3473C32.21 13.3473 30.3471 15.2094 30.3471 17.4996C30.3471 19.7898 32.21 21.6527 34.5 21.6527C36.79 21.6527 38.6529 19.7906 38.6529 17.5004Z" fill="white"/>
</svg>
