<svg width="72" height="72" viewBox="0 0 72 72" fill="none" xmlns="http://www.w3.org/2000/svg">
<path fill-rule="evenodd" clip-rule="evenodd" d="M61 66H58V50.315C60.4422 49.1605 61.9999 46.7014 61.9999 44C61.9999 41.2986 60.4422 38.8395 58 37.685V17C57.9956 13.1358 54.8642 10.0044 51 10H29C25.1358 10.0044 22.0044 13.1358 22 17V18H20C19.4477 18 19 18.4477 19 19V22H18C17.4477 22 17 22.4477 17 23V27.592C15.5903 28.1771 14.249 28.9148 13 29.792V28H11V31.392C4.04443 37.5718 2.02665 47.613 6.055 56H1C0.447715 56 0 56.4477 0 57V71C0 71.5523 0.447715 72 1 72H5C5.55228 72 6 71.5523 6 71V62H10.331C11.5124 63.1488 12.8239 64.1556 14.239 65H14V71C14 71.5523 14.4477 72 15 72H35C35.5523 72 36 71.5523 36 71V65H35.761C37.1761 64.1556 38.4876 63.1488 39.669 62H44V71C44 71.5523 44.4477 72 45 72H49C49.5523 72 50 71.5523 50 71V57C50 56.4477 49.5523 56 49 56H43.945C46.4353 50.8041 46.6727 44.8113 44.6012 39.4347C42.5297 34.0582 38.3328 29.7738 33 27.592V23C33 22.4477 32.5523 22 32 22H31V19C31 18.4477 30.5523 18 30 18H28V17C28 16.4477 28.4477 16 29 16H51C51.5523 16 52 16.4477 52 17V37.685C49.5578 38.8395 48.0001 41.2986 48.0001 44C48.0001 46.7014 49.5578 49.1605 52 50.315V71C52 71.5523 52.4477 72 53 72H61C61.5523 72 62 71.5523 62 71V67C62 66.4477 61.5523 66 61 66ZM55 43C55.5523 43 56 43.4477 56 44C56 44.5523 55.5523 45 55 45C54.4477 45 54 44.5523 54 44C54 43.4477 54.4477 43 55 43ZM57.816 45C57.5135 45.8469 56.8469 46.5135 56 46.816V48.9C57.9622 48.4955 59.4955 46.9622 59.9 45H57.816ZM57.816 43C57.5135 42.1531 56.8469 41.4865 56 41.184V39.1C57.9622 39.5045 59.4955 41.0378 59.9 43H57.816ZM13 54H17V52H13V54ZM17 50H13V48H17V50ZM13 46H17V44H13V46ZM17 42H13V40H17V42ZM13 38H17V36H13V38ZM17 34H13V32.285C14.2248 31.2908 15.5684 30.4527 17 29.79V34ZM2 68V70H4V68H2ZM5 60C4.44772 60 4 60.4477 4 61V66H2V58H7.146C7.57122 58.6931 8.03634 59.3609 8.539 60H5ZM34 70V65.945C28.3128 68.6849 21.6872 68.6849 16 65.945V70H34ZM7.60723 54.6754C4.57241 47.782 5.90396 39.7461 11 34.2V58H13V56H17V58H19V28.986C19.6606 28.7633 20.333 28.577 21.014 28.428L43.572 50.986C41.6836 59.7362 33.9516 65.9869 25 66C17.4682 66.0133 10.6421 61.5688 7.60723 54.6754ZM43.915 45.329L26.671 28.085C26.119 28.036 25.564 28 25 28C24.491 28 23.991 28.037 23.491 28.076L43.924 48.509C43.963 48.01 44 47.51 44 47C44 46.436 43.964 45.881 43.915 45.329ZM46 70V68H48V70H46ZM46 66H48V58H42.854C42.4288 58.6931 41.9637 59.3609 41.461 60H45C45.5523 60 46 60.4477 46 61V66ZM43.274 41.86L30.14 28.726C30.429 28.807 30.716 28.892 31 28.986L31.037 29C36.9853 31.0093 41.5623 35.8193 43.274 41.86ZM19 26.884C20.9465 26.2997 22.9677 26.0019 25 26C27.0323 26.0019 29.0535 26.2997 31 26.884V24H19V26.884ZM29 22H21V20H29V22ZM29 14H51C52.6569 14 54 15.3431 54 17V37.08C54.6624 36.9733 55.3376 36.9733 56 37.08V17C55.9967 14.2399 53.7601 12.0033 51 12H29C26.2399 12.0033 24.0033 14.2399 24 17V18H26V17C26 15.3431 27.3431 14 29 14ZM54 41.183C53.1529 41.4857 52.4863 42.1527 52.184 43H50.1C50.5045 41.0378 52.0378 39.5045 54 39.1V41.183ZM52.183 45H50.1C50.5045 46.9622 52.0378 48.4955 54 48.9V46.816C53.1527 46.5137 52.4857 45.8471 52.183 45ZM56 50.92V66H54V50.92C54.331 50.9705 54.6652 50.9972 55 51C55.3348 50.9972 55.669 50.9705 56 50.92ZM54 70H60V68H54V70Z" fill="#0353A4"/>
<path fill-rule="evenodd" clip-rule="evenodd" d="M19 23H17V34H13V28H11V58H13V56H17V58H19V23ZM17 54V52H13V54H17ZM17 50V48H13V50H17ZM17 44V46H13V44H17ZM17 42H13V40H17V42ZM17 38V36H13V38H17Z" fill="#DC493A"/>
<mask id="path-3-inside-1" fill="white">
<path d="M0 66H6V71C6 71.5523 5.55228 72 5 72H1C0.447715 72 0 71.5523 0 71V66Z"/>
</mask>
<path d="M0 66H6V71C6 71.5523 5.55228 72 5 72H1C0.447715 72 0 71.5523 0 71V66Z" stroke="#DC493A" stroke-width="4" mask="url(#path-3-inside-1)"/>
<mask id="path-4-inside-2" fill="white">
<path d="M44 66H50V71C50 71.5523 49.5523 72 49 72H45C44.4477 72 44 71.5523 44 71V66Z"/>
</mask>
<path d="M44 66H50V71C50 71.5523 49.5523 72 49 72H45C44.4477 72 44 71.5523 44 71V66Z" stroke="#DC493A" stroke-width="4" mask="url(#path-4-inside-2)"/>
<mask id="path-5-inside-3" fill="white">
<path d="M52 66H61C61.5523 66 62 66.4477 62 67V71C62 71.5523 61.5523 72 61 72H53C52.4477 72 52 71.5523 52 71V66Z"/>
</mask>
<path d="M52 66H61C61.5523 66 62 66.4477 62 67V71C62 71.5523 61.5523 72 61 72H53C52.4477 72 52 71.5523 52 71V66Z" stroke="#DC493A" stroke-width="4" mask="url(#path-5-inside-3)"/>
<path fill-rule="evenodd" clip-rule="evenodd" d="M55 38C51.7 38 49 40.7 49 44C49 47.3 51.7 50 55 50C58.3 50 61 47.3 61 44C61 40.7 58.3 38 55 38Z" fill="white"/>
<path d="M51 45C50.4 45 50 44.6 50 44C50 43.4 50.4 43 51 43H58.7C59.3 43 59.7 43.4 59.7 44C59.7 44.6 59.3 45 58.7 45H51Z" fill="#DC493A"/>
<path d="M55 48.7C54.4 48.7 54 48.3 54 47.7V40C54 39.4 54.4 39 55 39C55.6 39 56 39.4 56 40V47.7C56 48.2 55.6 48.7 55 48.7Z" fill="#DC493A"/>
<path fill-rule="evenodd" clip-rule="evenodd" d="M47 44C47 48.4 50.6 52 55 52C59.4 52 63 48.4 63 44C63 39.6 59.4 36 55 36C50.6 36 47 39.6 47 44ZM49 44C49 40.7 51.7 38 55 38C58.3 38 61 40.7 61 44C61 47.3 58.3 50 55 50C51.7 50 49 47.3 49 44Z" fill="#DC493A"/>
</svg>
