<svg width="72" height="99" viewBox="0 0 72 99" fill="none" xmlns="http://www.w3.org/2000/svg">
<path d="M36 92L34.4314 93.2408L36 95.2237L37.5686 93.2408L36 92ZM36 92C37.5686 93.2408 37.5688 93.2405 37.5692 93.2401L37.5705 93.2383L37.5754 93.2322L37.5937 93.2089L37.6644 93.1191C37.7263 93.0403 37.8176 92.9239 37.9362 92.7718C38.1735 92.4677 38.5204 92.0209 38.9611 91.4471C39.8425 90.2996 41.0999 88.6436 42.6081 86.6042C45.6229 82.5274 49.6465 76.9097 53.6736 70.7544C57.6961 64.6062 61.7466 57.8847 64.7987 51.6062C67.8117 45.4081 70 39.3517 70 34.6311C70 16.5279 54.6944 2 36 2C17.3056 2 2 16.5279 2 34.6311C2 39.3517 4.18825 45.4081 7.20127 51.6062C10.2534 57.8847 14.3039 64.6062 18.3264 70.7544C22.3535 76.9097 26.3771 82.5274 29.3919 86.6042C30.9001 88.6436 32.1575 90.2996 33.0389 91.4471C33.4796 92.0209 33.8265 92.4677 34.0638 92.7718C34.1824 92.9239 34.2737 93.0403 34.3356 93.1191L34.4063 93.2089L34.4246 93.2322L34.4295 93.2383L34.4308 93.2401C34.4312 93.2405 34.4314 93.2408 36 92Z" fill="white" stroke="#0353A4" stroke-width="4"/>
<mask id="mask0" mask-type="alpha" maskUnits="userSpaceOnUse" x="0" y="0" width="72" height="99">
<path d="M36 92L34.4314 93.2408L36 95.2237L37.5686 93.2408L36 92ZM36 92C37.5686 93.2408 37.5688 93.2405 37.5692 93.2401L37.5705 93.2383L37.5754 93.2322L37.5937 93.2089L37.6644 93.1191C37.7263 93.0403 37.8176 92.9239 37.9362 92.7718C38.1735 92.4677 38.5204 92.0209 38.9611 91.4471C39.8425 90.2996 41.0999 88.6436 42.6081 86.6042C45.6229 82.5274 49.6465 76.9097 53.6736 70.7544C57.6961 64.6062 61.7466 57.8847 64.7987 51.6062C67.8117 45.4081 70 39.3517 70 34.6311C70 16.5279 54.6944 2 36 2C17.3056 2 2 16.5279 2 34.6311C2 39.3517 4.18825 45.4081 7.20127 51.6062C10.2534 57.8847 14.3039 64.6062 18.3264 70.7544C22.3535 76.9097 26.3771 82.5274 29.3919 86.6042C30.9001 88.6436 32.1575 90.2996 33.0389 91.4471C33.4796 92.0209 33.8265 92.4677 34.0638 92.7718C34.1824 92.9239 34.2737 93.0403 34.3356 93.1191L34.4063 93.2089L34.4246 93.2322L34.4295 93.2383L34.4308 93.2401C34.4312 93.2405 34.4314 93.2408 36 92Z" fill="white" stroke="white" stroke-width="4"/>
</mask>
<g mask="url(#mask0)">
</g>
<path fill-rule="evenodd" clip-rule="evenodd" d="M49.7046 45.2446L49.7699 42.9181V42.6605C49.9891 42.4489 51.2155 41.245 51.897 39.9577C52.4612 38.8919 52.6477 37.6853 51.6221 37.6853C51.5817 37.6853 51.5313 37.6955 51.4708 37.7155C51.41 37.7356 51.3494 37.7761 51.2888 37.8367C50.8813 38.1939 50.2264 39.3918 49.7699 39.9783V32.3354L49.7046 29.714C49.0233 29.7728 48.3529 29.8204 47.6935 29.8571C47.0341 29.8938 46.5159 29.9123 46.139 29.9123C45.9215 29.9123 45.7441 29.901 45.6062 29.8792C45.4686 29.8571 45.3635 29.8313 45.2912 29.8019C45.2478 29.7579 45.2153 29.7066 45.1934 29.6478C45.1715 29.589 45.1463 29.5301 45.1172 29.4716C45.1172 29.3394 45.1934 29.222 45.3456 29.1192C45.4977 29.0164 45.6608 28.9648 45.8346 28.9648H60.8362C61.0099 28.9648 61.184 29.0455 61.3577 29.2072C61.4734 29.3246 61.5318 29.4274 61.5318 29.5156C61.5172 29.5744 61.5026 29.6257 61.4883 29.67C61.4734 29.714 61.4446 29.7579 61.4012 29.8019C61.3431 29.8168 61.2924 29.824 61.249 29.824C60.9446 29.8828 60.698 29.9123 60.51 29.9123C59.9593 29.9123 59.3466 29.8902 58.6726 29.8462C57.9986 29.8019 57.4228 29.7579 56.9443 29.714L56.879 31.5863L56.9009 32.3354V42.6232L56.879 43.4162L56.9443 45.2446H49.7046Z" fill="#0353A4"/>
<path fill-rule="evenodd" clip-rule="evenodd" d="M27.4111 46.0876L25.7584 41.999H14.2189C13.6882 43.2945 13.26 44.3132 12.9334 45.0756C12.607 45.8314 12.3721 46.2359 12.2294 46.2899H11.8925C11.5864 46.2899 11.4336 46.0203 11.4336 45.4805C11.4336 45.3455 11.4539 45.197 11.4946 45.035C11.5356 44.873 11.5864 44.7248 11.6477 44.5898C12.607 42.5388 13.4228 40.798 14.0965 39.3675C14.9536 37.5055 15.7595 35.7107 16.5143 33.9836L25.2992 14.0664L30.4656 26.024C28.7934 28.0021 27.9572 30.3482 27.9572 33.0629L27.8937 34.01C27.8937 37.0608 28.9529 39.7436 31.0706 42.0579C33.1886 44.3723 35.7756 45.7085 38.8312 46.0661L39.1322 46.0825L39.1344 46.0876H27.4111ZM14.8565 40.5011H25.1767C24.2382 38.1802 23.422 36.2102 22.7279 34.5907C22.3608 33.7273 21.5035 31.7706 20.1568 28.7209L14.8565 40.5011Z" fill="#0353A4"/>
<path fill-rule="evenodd" clip-rule="evenodd" d="M39.7172 44.6352L40.2626 44.6958C42.3833 44.6958 44.3117 44.2917 46.0486 43.4829C47.9672 42.5937 49.4113 41.5606 50.4211 39.8625C50.5826 39.5595 50.7037 39.3271 50.7847 39.1654C51.0961 38.5789 51.3418 38.3167 51.5638 38.2837C51.9115 38.2325 52.0392 38.7881 51.8552 39.1895C51.221 40.366 51.1607 40.3465 50.1398 41.6052C49.2916 42.4944 48.5831 43.3011 47.7753 43.7862C46.8464 44.3929 45.7963 44.8575 44.6249 45.1809C43.4536 45.5043 42.2618 45.6661 41.05 45.6661L39.3841 45.5751C36.4558 45.2316 33.9766 43.9479 31.9468 41.7243C29.9174 39.501 28.9023 36.9237 28.9023 33.9927L28.9632 33.0828C28.9632 29.889 30.1648 27.226 32.568 25.0933C34.9712 22.9606 37.819 21.8945 41.1109 21.8945H41.8983C43.3727 21.8945 44.8167 22.2279 46.2303 22.895C47.4624 23.4612 48.7042 24.3099 49.9565 25.442C50.3201 25.7249 50.6129 26.0332 50.835 26.3668C51.0571 26.7004 51.1683 26.9682 51.1683 27.1704C51.1683 27.4938 51.0774 27.6554 50.8955 27.6554C50.7745 27.6554 50.6027 27.5797 50.3806 27.4279C50.1585 27.2764 49.997 27.15 49.896 27.0488C48.6235 25.6341 47.2502 24.6082 45.7758 23.9713C44.3018 23.3347 42.6254 23.0162 40.7473 23.0162H39.7172V44.6352Z" fill="#0353A4"/>
</svg>
