<svg width="44" height="51" viewBox="0 0 44 51" fill="none" xmlns="http://www.w3.org/2000/svg">
<path fill-rule="evenodd" clip-rule="evenodd" d="M6.87222 0H31.8769L43.9769 12.1176V49.6434C43.9769 50.388 43.3657 51 42.6222 51H6.87222C6.1287 51 5.51759 50.388 5.51759 49.6434V43.2072H8.22685V48.2868H41.2676V12.1176H31.8769V2.7132H8.22685V27.5502H5.51759V1.3566C5.51759 0.612 6.1287 0 6.87222 0ZM33.1676 28.5499H0.0351562V42.2077H28.1768L33.1676 28.5499ZM10.5842 35.8223C10.1361 36.2303 9.52494 36.4241 8.74068 36.4241H7.20272V39.1271H6.01105V31.9871H8.74068C9.52494 31.9871 10.1462 32.1911 10.5842 32.5991C11.0324 33.0071 11.2564 33.5375 11.2564 34.2005C11.2564 34.8839 11.0324 35.4143 10.5842 35.8223ZM17.2611 38.2909C17.8213 37.7299 18.1065 37.0057 18.1065 36.1081V35.0269C18.1065 34.1395 17.8315 33.4051 17.2611 32.8441C16.6907 32.2831 15.9574 31.9975 15.0509 31.9975H12.6981V39.1375H15.0509C15.9574 39.1375 16.6907 38.8519 17.2611 38.2909ZM24.2731 32.9461H20.9018V35.1289H23.774V36.0877H20.9018V39.1375H19.7101V31.9975H24.2731V32.9461ZM11.8412 16.8709H37.6504V18.8701H11.8412V16.8709ZM33.5662 20.757H11.8412V22.7562H33.5662V20.757ZM15.0481 32.946H13.887V38.1786H15.0481C15.6185 38.1786 16.0768 37.9848 16.4129 37.5972C16.749 37.2096 16.9222 36.7098 16.9222 36.108V35.0166C16.9222 34.4148 16.749 33.9252 16.4129 33.5376C16.0768 33.1398 15.6185 32.946 15.0481 32.946ZM7.20693 32.946H8.7449C9.18286 32.946 9.51897 33.0684 9.74305 33.303C9.96712 33.5478 10.0792 33.8436 10.0792 34.2108C10.0792 34.578 9.96712 34.8738 9.74305 35.1084C9.51897 35.343 9.18286 35.4654 8.7449 35.4654H7.20693V32.946Z" fill="#DC493A"/>
</svg>
