<svg width="72" height="72" viewBox="0 0 72 72" fill="none" xmlns="http://www.w3.org/2000/svg">
<path fill-rule="evenodd" clip-rule="evenodd" d="M27.2008 9.5V40.7C32.1008 43.6 35.1008 48.9 35.1008 54.7C35.1008 63.7 27.7008 71.1 18.7008 71.1C9.70078 71.1 2.30078 63.7 2.30078 54.7C2.30078 48.9 5.30078 43.7 10.2008 40.7V9.5C10.2008 4.8 14.0008 1 18.7008 1C23.4008 1 27.2008 4.8 27.2008 9.5ZM5.80078 54.7C5.80078 61.8 11.6008 67.6 18.7008 67.6C25.8008 67.6 31.6008 61.8 31.4008 54.6C31.4008 49.8 28.8008 45.4 24.5008 43.2C24.0008 42.9 23.6008 42.4 23.6008 41.7V9.5C23.6008 6.8 21.4008 4.5 18.6008 4.5C15.9008 4.5 13.6008 6.7 13.6008 9.5V41.8C13.6008 42.4 13.3008 43 12.7008 43.3C8.50078 45.5 5.80078 49.9 5.80078 54.7Z" fill="white"/>
<path fill-rule="evenodd" clip-rule="evenodd" d="M20.5016 24.0984V46.2984C24.4016 47.0984 27.4016 50.5984 27.5016 54.6984C27.5016 59.4984 23.6016 63.3984 18.8016 63.3984C14.0016 63.3984 10.1016 59.4984 10.1016 54.6984C10.1016 50.4984 13.1016 46.9984 17.1016 46.1984V24.0984C17.1016 23.1984 17.8016 22.3984 18.8016 22.3984C19.7016 22.3984 20.5016 23.0984 20.5016 24.0984ZM13.5016 54.8984C13.5016 57.7984 15.8016 60.0984 18.7016 60.0984C21.6016 60.0984 23.9016 57.6984 23.9016 54.8984C23.9016 51.9984 21.6016 49.6984 18.7016 49.6984C15.8016 49.6984 13.5016 51.9984 13.5016 54.8984Z" fill="white"/>
<path fill-rule="evenodd" clip-rule="evenodd" d="M59.1301 55.2004L56.9156 54.5236L57.8887 56.4351L56.2781 57.3731L55.2938 55.4734L54.6563 57.8242L52.9004 57.2781L54.0524 53.0633L52.4082 49.8933C52.274 49.917 52.1398 49.9408 51.9944 49.9408C51.7483 49.9408 51.5135 49.9052 51.2786 49.8458L49.5338 53.0039L50.5852 57.2543L48.8068 57.7411L48.2252 55.3785L47.1962 57.2543L45.6192 56.2689L46.6482 54.393L44.4225 55.0104L43.9639 53.1227L47.968 52.0066L49.7239 48.8129C49.4555 48.4923 49.243 48.1005 49.12 47.6731H45.6416L42.7224 50.7719L41.4138 49.4065L43.0468 47.6731H41V45.726H43.058L41.425 43.9926L42.7224 42.6154L45.6304 45.726H49.1088C49.2318 45.3105 49.422 44.9424 49.6792 44.6218L48.0798 41.5468L44.1093 40.3239L44.6238 38.4599L46.8719 39.1129L45.7087 36.8809L47.3193 35.9429L48.4713 38.175L49.1088 35.8242L50.8648 36.3704L49.7128 40.5851L51.2562 43.5533C51.5023 43.4821 51.7483 43.4346 52.0168 43.4346C52.2293 43.4346 52.4418 43.4583 52.6431 43.5058L54.2201 40.6445L53.1688 36.3941L54.9471 35.9073L55.5287 38.27L56.7367 36.0735L58.3137 37.059L57.1057 39.2554L59.3315 38.638L59.79 40.5258L55.786 41.6418L54.2201 44.4912C54.5221 44.8356 54.757 45.2511 54.8912 45.7141H58.3696L61.2888 42.6154L62.5862 43.9926L60.9532 45.726H63V47.6731H60.9532L62.5974 49.3946L61.2999 50.7719L58.3808 47.6731H54.9024C54.7458 48.2074 54.4662 48.6823 54.0859 49.0503L55.6741 52.1135L59.6446 53.3364L59.1301 55.2004ZM50.7977 46.6996C50.7977 47.4 51.3345 47.9818 52.0056 47.9818C52.6655 47.9818 53.2135 47.4 53.2135 46.6996C53.2135 45.9991 52.6655 45.4173 52.0056 45.4173C51.3457 45.4173 50.7977 45.9872 50.7977 46.6996Z" fill="white"/>
<path fill-rule="evenodd" clip-rule="evenodd" d="M41.1406 17.8316C41.1406 13.8121 44.4519 10.5273 48.5041 10.5273C52.5563 10.5273 55.8675 13.8121 55.8675 17.8316C55.8675 21.8512 52.5563 25.1358 48.5041 25.1358C44.4519 25.1358 41.1406 21.8512 41.1406 17.8316ZM53.413 17.8316C53.413 15.1277 51.2298 12.9621 48.5041 12.9621C45.7784 12.9621 43.5951 15.1277 43.5951 17.8316C43.5951 20.5353 45.7784 22.701 48.5041 22.701C51.2298 22.701 53.413 20.5353 53.413 17.8316Z" fill="white"/>
<path fill-rule="evenodd" clip-rule="evenodd" d="M48.4817 4.44156C48.1561 4.44659 47.846 4.5797 47.6194 4.8116C47.3929 5.04349 47.2685 5.35517 47.2736 5.67806V8.07717C47.2673 8.51619 47.4999 8.92454 47.8822 9.14585C48.2644 9.36717 48.7372 9.36717 49.1195 9.14585C49.5018 8.92454 49.7343 8.51619 49.7281 8.07717V5.67806C49.7333 5.34858 49.6037 5.03106 49.3688 4.79804C49.1339 4.56502 48.8138 4.4364 48.4817 4.44156Z" fill="white"/>
<path fill-rule="evenodd" clip-rule="evenodd" d="M58.2827 8.09428C57.9638 8.10369 57.6612 8.23586 57.4389 8.46278L56.2357 9.65388C55.9157 9.95935 55.787 10.4124 55.8992 10.8387C56.0114 11.2649 56.347 11.5978 56.7766 11.7091C57.2063 11.8204 57.6631 11.6928 57.9711 11.3754L59.1743 10.1842C59.5372 9.83419 59.6463 9.2991 59.4491 8.83672C59.2518 8.37434 58.7886 8.07951 58.2827 8.09428Z" fill="white"/>
<path fill-rule="evenodd" clip-rule="evenodd" d="M38.6827 8.09375C38.1822 8.09289 37.7313 8.39353 37.5432 8.85355C37.3551 9.31357 37.4673 9.84083 37.8269 10.1861L39.0302 11.3773C39.3382 11.6947 39.795 11.8223 40.2246 11.711C40.6543 11.5997 40.9899 11.2668 41.1021 10.8406C41.2143 10.4144 41.0856 9.96126 40.7656 9.65579L39.5623 8.46469C39.3317 8.22821 39.0144 8.0944 38.6827 8.09375V8.09375Z" fill="white"/>
<path fill-rule="evenodd" clip-rule="evenodd" d="M48.4817 26.3556C48.1561 26.3607 47.846 26.4938 47.6194 26.7257C47.3929 26.9576 47.2685 27.2692 47.2736 27.5921V29.9912C47.2673 30.4303 47.4999 30.8386 47.8822 31.0599C48.2644 31.2812 48.7372 31.2812 49.1195 31.0599C49.5018 30.8386 49.7343 30.4303 49.7281 29.9912V27.5921C49.7333 27.2626 49.6037 26.9451 49.3688 26.7121C49.1339 26.4791 48.8138 26.3505 48.4817 26.3556Z" fill="white"/>
<path fill-rule="evenodd" clip-rule="evenodd" d="M36.2467 16.6134C35.8045 16.6079 35.3936 16.8387 35.1709 17.2176C34.9482 17.5965 34.9482 18.065 35.1709 18.4439C35.3936 18.8228 35.8045 19.0537 36.2467 19.0482H38.6676C39.1097 19.0537 39.5207 18.8228 39.7433 18.4439C39.966 18.065 39.966 17.5965 39.7433 17.2176C39.5207 16.8387 39.1097 16.6079 38.6676 16.6134H36.2467Z" fill="white"/>
<path fill-rule="evenodd" clip-rule="evenodd" d="M58.3365 16.6134C57.8944 16.6079 57.4834 16.8387 57.2608 17.2176C57.0381 17.5965 57.0381 18.065 57.2608 18.4439C57.4834 18.8228 57.8944 19.0537 58.3365 19.0482H60.7574C61.1996 19.0537 61.6105 18.8228 61.8332 18.4439C62.0559 18.065 62.0559 17.5965 61.8332 17.2176C61.6105 16.8387 61.1996 16.6079 60.7574 16.6134H58.3365Z" fill="white"/>
<path fill-rule="evenodd" clip-rule="evenodd" d="M57.0928 23.918C56.5924 23.9171 56.1415 24.2177 55.9534 24.6778C55.7652 25.1378 55.8775 25.6651 56.2371 26.0103L57.4404 27.2015C57.7481 27.5198 58.2053 27.6481 58.6356 27.537C59.0658 27.4258 59.4018 27.0925 59.5139 26.6657C59.626 26.2389 59.4966 25.7854 59.1758 25.4801L57.9725 24.2889C57.7419 24.0524 57.4245 23.9186 57.0928 23.918V23.918Z" fill="white"/>
<path fill-rule="evenodd" clip-rule="evenodd" d="M39.874 23.9224C39.5552 23.9318 39.2526 24.064 39.0303 24.2909L37.827 25.4821C37.5062 25.7874 37.3768 26.2409 37.4889 26.6677C37.601 27.0945 37.937 27.4278 38.3672 27.539C38.7975 27.6501 39.2547 27.5218 39.5624 27.2035L40.7657 26.0123C41.1286 25.6623 41.2377 25.1272 41.0404 24.6648C40.8432 24.2025 40.38 23.9076 39.874 23.9224Z" fill="white"/>
</svg>
