<svg width="72" height="72" viewBox="0 0 72 72" fill="none" xmlns="http://www.w3.org/2000/svg">
<path fill-rule="evenodd" clip-rule="evenodd" d="M51.7531 44.2354C52.0565 45.0695 51.6014 45.9794 50.7669 46.2827C48.5669 47.1168 46.6703 48.5574 45.4565 50.3772C46.1393 51.3629 46.9738 52.2728 47.96 52.9552C47.96 52.0453 47.96 51.1354 48.1117 50.0739C48.1876 49.2398 49.0221 48.6333 49.8565 48.7091C50.691 48.7849 51.2979 49.619 51.2221 50.453C50.9186 53.1069 51.4496 55.3816 51.4496 55.3816C51.5255 55.9882 51.3738 56.5948 50.9186 56.9739C50.6152 57.2014 50.2359 57.353 49.8565 57.353C49.629 57.353 49.4014 57.353 49.2496 57.2772C46.8979 56.3673 44.8496 54.775 43.2565 52.8036C40.5255 56.1398 36.429 58.1871 32.1048 58.1871C27.0221 58.1871 22.3186 55.4574 19.7393 51.0596C19.4359 50.6047 19.4359 49.9223 19.7393 49.4673C22.3186 45.0695 27.0221 42.3398 32.1048 42.3398C36.5048 42.3398 40.6772 44.3871 43.3324 47.7992C45.0014 45.7519 47.2014 44.1596 49.7048 43.2497C50.5393 42.9464 51.4496 43.4014 51.7531 44.2354ZM23.0014 50.3014C25.0497 53.2585 28.4634 55.0783 32.1048 55.0783C35.7462 55.0783 39.16 53.3343 41.1324 50.3014C39.3117 47.7992 36.5807 46.1311 33.5462 45.6761C35.0634 48.2541 34.229 50.5289 33.091 52.1212C32.7876 52.5761 32.3324 52.8036 31.8014 52.8036C31.4979 52.8036 31.1945 52.7278 30.891 52.5003C30.1324 51.9695 29.9807 50.9838 30.5117 50.3014C31.4979 49.0124 31.6496 47.7992 29.829 45.9794C29.829 45.9794 29.829 45.9036 29.7531 45.8278C27.0221 46.4343 24.5945 48.0267 23.0014 50.3014Z" fill="white"/>
<path d="M43.4065 28.6911C44.3927 30.4351 47.0479 31.5725 49.9306 31.5725C52.8134 31.5725 55.3927 30.4351 56.4548 28.6911C56.9099 27.9329 57.8961 27.7054 58.6548 28.0845C59.4134 28.5395 59.641 29.5252 59.2617 30.2834C57.6685 33.0131 54.0272 34.7571 50.0065 34.7571C46.8961 34.7571 44.0134 33.6955 42.1168 31.9516C40.2203 33.6955 37.3375 34.7571 34.2272 34.7571C31.1168 34.7571 28.2341 33.6955 26.3375 31.9516C24.441 33.6955 21.5582 34.7571 18.5237 34.7571C14.503 34.7571 10.8617 33.0131 9.26855 30.2834C8.81338 29.5252 9.11682 28.5395 9.87545 28.0845C10.6341 27.6296 11.6203 27.9329 12.0754 28.6911C13.0617 30.4351 15.7168 31.5725 18.5996 31.5725C21.4823 31.5725 24.0617 30.4351 25.1237 28.6911C25.5789 27.9329 26.5651 27.7054 27.3237 28.0845C27.5513 28.2362 27.7789 28.4637 27.9306 28.6911C28.9168 30.4351 31.572 31.5725 34.4548 31.5725C37.3375 31.5725 39.9168 30.4351 40.9789 28.6911C40.9789 28.6911 41.4341 27.7812 42.4203 27.7812C43.4065 27.7812 43.4065 28.6911 43.4065 28.6911Z" fill="white"/>
<path d="M17.766 43.5508C16.7798 43.5508 15.9453 44.3848 15.9453 45.3706C15.9453 46.3563 16.7798 47.1903 17.766 47.1903C18.7522 47.1903 19.5867 46.3563 19.5867 45.3706C19.5867 44.309 18.7522 43.5508 17.766 43.5508Z" fill="white"/>
<path d="M20.2715 40.8231C20.3473 40.8231 20.4232 40.8231 20.4991 40.8231C21.4853 40.6715 22.168 39.7616 22.0163 38.7759C21.8646 37.7901 20.9542 37.1077 19.968 37.2594C18.9818 37.411 18.2991 38.3209 18.4508 39.3066C18.6025 40.1407 19.3611 40.8231 20.2715 40.8231Z" fill="white"/>
<path fill-rule="evenodd" clip-rule="evenodd" d="M21.1821 9.58311C19.1338 9.58311 17.4648 7.91498 17.4648 5.86773C17.4648 3.82048 19.1338 2.15234 21.1821 2.15234C23.2304 2.15234 24.8993 3.82048 24.8993 5.86773C24.8993 7.91498 23.2304 9.58311 21.1821 9.58311ZM21.1821 6.3985C21.4855 6.3985 21.7131 6.17103 21.7131 5.86773C21.7131 5.56443 21.4855 5.33696 21.1821 5.33696C20.8786 5.33696 20.6511 5.56443 20.6511 5.86773C20.6511 6.17103 20.8786 6.3985 21.1821 6.3985Z" fill="white"/>
<path fill-rule="evenodd" clip-rule="evenodd" d="M60.5526 18.1515C60.5526 16.9383 60.5526 13.8295 42.0422 12.8438C41.1319 12.7679 40.4491 13.4504 40.3732 14.3602C40.2974 15.2701 40.9801 15.9525 41.8905 16.0284C48.5664 16.4075 52.9664 17.0899 55.3939 17.7723C55.4222 17.8006 55.4399 17.8393 55.4589 17.8807C55.4908 17.9506 55.5263 18.028 55.6215 18.0756C55.6445 18.0986 55.6674 18.1285 55.6925 18.1611L55.6925 18.1611C55.7503 18.2363 55.8192 18.3261 55.925 18.3789C52.8146 19.3646 45.6077 20.4262 34.3043 20.4262C23.0008 20.4262 15.7939 19.2888 12.6836 18.3789C12.7066 18.356 12.7295 18.3261 12.7546 18.2934C12.8123 18.2182 12.8813 18.1285 12.987 18.0756C13.1388 17.924 13.2146 17.7723 13.2905 17.6207C15.4146 17.0141 19.2836 16.3317 25.7319 16.0284C26.7181 17.5449 28.4629 18.6064 30.4353 18.6064C33.5457 18.6064 36.0491 16.1042 36.0491 12.9954C36.0491 9.88662 33.3939 7.30859 30.2836 7.30859C27.1732 7.30859 24.6698 9.81079 24.6698 12.8438C7.90428 13.8295 7.82842 16.9383 7.82842 18.1515C7.82842 18.4547 7.90428 18.6822 7.98015 18.9097C3.88359 24.4449 1.68359 31.1174 1.68359 38.0932C1.68359 55.9877 16.2491 70.546 34.1526 70.546C52.056 70.546 66.6215 55.9877 66.6215 38.0932C66.6215 31.1174 64.4215 24.4449 60.325 18.9097C60.4767 18.6822 60.5526 18.4547 60.5526 18.1515ZM30.2836 10.4932C31.6491 10.4932 32.7112 11.6306 32.7112 12.9196C32.7112 14.2844 31.5732 15.346 30.2836 15.346C28.9181 15.346 27.856 14.2086 27.856 12.9196C27.856 11.6306 28.9181 10.4932 30.2836 10.4932ZM34.2284 67.3613C50.387 67.3613 63.5112 54.2438 63.5112 38.0932C63.5112 31.8756 61.5388 25.9613 57.8974 20.9569C52.5112 23.3833 40.2974 23.6866 34.2284 23.6866C28.1595 23.6866 15.9457 23.3833 10.5595 20.9569C6.91808 25.8855 4.94566 31.8756 4.94566 38.0932C4.94566 54.2438 18.0698 67.3613 34.2284 67.3613Z" fill="white"/>
</svg>
