<svg width="60" height="74" viewBox="0 0 60 74" fill="none" xmlns="http://www.w3.org/2000/svg">
<path d="M24.064 6.758C30.1475 13.9401 34.9555 19.6134 26.3772 35.012C15.0454 55.3529 23.1169 64.88 29.6018 72.5357C31.0742 74.2723 33.6858 74.4967 35.4339 73.0348C37.1844 71.5737 37.4107 68.9796 35.9382 67.2423C29.8547 60.0593 25.0467 54.3852 33.6234 38.9916C37.7431 31.5965 39.299 25.6313 39.299 20.6651C39.299 11.9701 34.5282 6.33703 30.4004 1.46455C28.928 -0.272804 26.3164 -0.496452 24.5675 0.965454C22.8153 2.42654 22.5907 5.01983 24.064 6.758Z" fill="#B9D6F2"/>
<path fill-rule="evenodd" clip-rule="evenodd" d="M44.7624 6.758C50.8467 13.9401 55.6539 19.6134 47.0764 35.012C35.7446 55.3529 43.8162 64.88 50.301 72.5357C51.7726 74.2723 54.385 74.4967 56.1356 73.0348C57.8837 71.5737 58.1107 68.9796 56.6383 67.2423C50.5532 60.0593 45.7475 54.386 54.3226 38.9916C58.4439 31.5965 59.9982 25.6313 59.9982 20.6651C59.9982 11.9701 55.2275 6.33703 51.1005 1.46455C49.6288 -0.272804 47.0156 -0.496452 45.2659 0.965454C43.5162 2.42736 43.2916 5.01983 44.7624 6.758Z" fill="#B9D6F2"/>
<path fill-rule="evenodd" clip-rule="evenodd" d="M15.2354 67.2423C9.15268 60.0593 4.34379 54.3852 12.9213 38.9916C17.041 31.5965 18.5962 25.6313 18.5953 20.6651C18.5953 11.9701 13.8254 6.33703 9.69674 1.46455C8.22593 -0.272804 5.61432 -0.496452 3.86379 0.965454C2.11326 2.42736 1.88704 5.02065 3.36028 6.758C9.44538 13.9401 14.2527 19.6134 5.67351 35.012C-5.65751 55.3529 2.41407 64.88 8.89809 72.5357C10.3697 74.2723 12.9813 74.4967 14.7318 73.0348C16.4816 71.5737 16.7078 68.9804 15.2354 67.2423Z" fill="#B9D6F2"/>
</svg>
