<svg width="65" height="32" viewBox="0 0 65 32" fill="none" xmlns="http://www.w3.org/2000/svg">
<path d="M63.764 9.603C62.568 6.777 60.577 4.381 58.07 2.687C56.816 1.839 55.43 1.167 53.951 0.708C52.471 0.247 50.896 0 49.276 0C48.17 0 47.093 0.125 46.062 0.361C44.126 0.801 42.365 1.619 40.773 2.648C39.378 3.547 38.104 4.61 36.908 5.758C35.715 6.909 34.596 8.149 33.522 9.423C34.424 10.527 35.298 11.643 36.15 12.733L36.218 12.821C36.645 13.367 37.075 13.919 37.51 14.468C37.6 14.357 37.691 14.246 37.781 14.137C38.751 12.958 39.716 11.854 40.679 10.876C41.402 10.141 42.123 9.478 42.84 8.905C43.918 8.042 44.981 7.386 46.032 6.951C46.559 6.734 47.086 6.571 47.62 6.46C48.155 6.349 48.701 6.291 49.275 6.291C50.586 6.291 51.818 6.555 52.945 7.031C54.634 7.744 56.082 8.945 57.1 10.453C57.609 11.206 58.011 12.035 58.286 12.919C58.561 13.804 58.71 14.742 58.71 15.726C58.71 17.038 58.446 18.27 57.971 19.398C57.256 21.086 56.056 22.535 54.548 23.552C53.794 24.061 52.965 24.462 52.081 24.738C51.197 25.014 50.258 25.162 49.275 25.162C48.643 25.162 48.046 25.091 47.459 24.958C46.69 24.782 45.933 24.496 45.169 24.096C44.915 23.962 44.659 23.817 44.402 23.658C43.633 23.183 42.857 22.595 42.077 21.906C41.784 21.648 41.491 21.377 41.198 21.093C40.318 20.24 39.436 19.276 38.552 18.239C37.815 17.373 37.075 16.458 36.329 15.513C35.882 14.948 35.433 14.372 34.978 13.791C33.749 12.219 32.496 10.611 31.174 9.064C30.182 7.905 29.153 6.779 28.058 5.729C27.237 4.941 26.379 4.196 25.47 3.516C25.3 3.389 25.128 3.264 24.954 3.141C23.735 2.281 22.423 1.54 20.997 0.992C19.675 0.483 18.254 0.147 16.766 0.04C16.422 0.015 16.076 0.002 15.725 0.003C13.563 0.003 11.486 0.442 9.603 1.239C6.777 2.436 4.382 4.425 2.687 6.933C1.84 8.187 1.167 9.573 0.708 11.053C0.247 12.529 0 14.104 0 15.725C0 17.887 0.44 19.964 1.237 21.847C2.433 24.673 4.423 27.068 6.931 28.763C8.185 29.61 9.571 30.283 11.05 30.743C12.529 31.203 14.104 31.45 15.725 31.45C16.83 31.45 17.908 31.324 18.938 31.09C20.874 30.649 22.635 29.831 24.228 28.803C25.623 27.904 26.896 26.84 28.092 25.692C29.285 24.542 30.404 23.302 31.478 22.027C30.572 20.918 29.694 19.798 28.838 18.703L28.781 18.63C28.355 18.084 27.924 17.532 27.49 16.983C27.399 17.093 27.309 17.205 27.219 17.315C26.248 18.493 25.283 19.597 24.32 20.576C23.597 21.31 22.876 21.973 22.159 22.548C21.082 23.41 20.018 24.067 18.967 24.501C18.44 24.719 17.914 24.882 17.379 24.993C16.844 25.103 16.299 25.162 15.725 25.162C14.413 25.162 13.181 24.898 12.054 24.421C10.365 23.708 8.917 22.508 7.9 21C7.391 20.246 6.989 19.417 6.713 18.533C6.439 17.649 6.29 16.71 6.29 15.726C6.29 14.414 6.554 13.182 7.029 12.054C7.744 10.365 8.944 8.917 10.452 7.9C11.205 7.39 12.034 6.989 12.918 6.714C13.802 6.439 14.741 6.29 15.725 6.29C16.357 6.29 16.954 6.361 17.54 6.494C18.565 6.728 19.57 7.159 20.597 7.794C21.367 8.27 22.143 8.858 22.922 9.547C24.093 10.578 25.269 11.831 26.448 13.215C27.628 14.599 28.811 16.114 30.02 17.661C31.249 19.233 32.502 20.842 33.824 22.389C34.816 23.549 35.845 24.674 36.94 25.725C37.145 25.922 37.352 26.116 37.563 26.308C38.194 26.88 38.846 27.427 39.528 27.938C40.89 28.958 42.372 29.835 44.001 30.462C44.103 30.501 44.205 30.539 44.308 30.576C45.851 31.132 47.523 31.452 49.275 31.451C51.436 31.451 53.513 31.012 55.396 30.215C58.222 29.019 60.617 27.028 62.312 24.521C63.159 23.267 63.833 21.881 64.292 20.401C64.754 18.92 65 17.346 65 15.725C65 13.562 64.561 11.485 63.764 9.603Z" fill="#0353A4"/>
</svg>
