<svg width="25" height="34" viewBox="0 0 25 34" fill="none" xmlns="http://www.w3.org/2000/svg">
<path d="M6.56641 11.8867V14H5.57812V8.3125H7.75391C8.38932 8.3125 8.89323 8.47786 9.26562 8.80859C9.64062 9.13932 9.82812 9.57682 9.82812 10.1211C9.82812 10.6784 9.64453 11.112 9.27734 11.4219C8.91276 11.7318 8.40104 11.8867 7.74219 11.8867H6.56641ZM6.56641 11.0938H7.75391C8.10547 11.0938 8.3737 11.0117 8.55859 10.8477C8.74349 10.681 8.83594 10.4414 8.83594 10.1289C8.83594 9.82161 8.74219 9.57682 8.55469 9.39453C8.36719 9.20964 8.10938 9.11458 7.78125 9.10938H6.56641V11.0938ZM10.6953 14V8.3125H12.375C12.8776 8.3125 13.3229 8.42448 13.7109 8.64844C14.1016 8.8724 14.4036 9.1901 14.6172 9.60156C14.8307 10.013 14.9375 10.4844 14.9375 11.0156V11.3008C14.9375 11.8398 14.8294 12.3138 14.6133 12.7227C14.3997 13.1315 14.0938 13.4466 13.6953 13.668C13.2995 13.8893 12.8451 14 12.332 14H10.6953ZM11.6836 9.10938V13.2109H12.3281C12.8464 13.2109 13.2435 13.0495 13.5195 12.7266C13.7982 12.401 13.9401 11.9349 13.9453 11.3281V11.0117C13.9453 10.3945 13.8112 9.92318 13.543 9.59766C13.2747 9.27214 12.8854 9.10938 12.375 9.10938H11.6836ZM19.1992 11.5898H16.9102V14H15.9219V8.3125H19.5352V9.10938H16.9102V10.8008H19.1992V11.5898Z" fill="#DC493A"/>
<path d="M1 3C1 1.89543 1.89543 1 3 1H16C20.4183 1 24 4.58172 24 9V31C24 32.1046 23.1046 33 22 33H3C1.89543 33 1 32.1046 1 31V3Z" stroke="#DC493A" stroke-width="2"/>
<rect x="6" y="21" width="13" height="2" fill="#DC493A"/>
<rect x="6" y="25" width="13" height="2" fill="#DC493A"/>
</svg>
