<svg width="28" height="29" viewBox="0 0 28 29" fill="none" xmlns="http://www.w3.org/2000/svg">
<path fill-rule="evenodd" clip-rule="evenodd" d="M0.595552 1.09751C-0.185497 1.87855 -0.185496 3.14488 0.595553 3.92593L11.0206 14.351L0.595552 24.776C-0.185497 25.5571 -0.185497 26.8234 0.595552 27.6045C1.3766 28.3855 2.64293 28.3855 3.42398 27.6045L13.849 17.1794L24.2741 27.6045C25.0551 28.3855 26.3215 28.3855 27.1025 27.6045C27.8836 26.8234 27.8835 25.5571 27.1025 24.776L16.6775 14.351L27.1025 3.92593C27.8836 3.14488 27.8836 1.87855 27.1025 1.09751C26.3215 0.316457 25.0551 0.316458 24.2741 1.09751L13.849 11.5226L3.42398 1.09751C2.64293 0.316457 1.3766 0.316457 0.595552 1.09751Z" fill="white"/>
</svg>
